<svg width="27" height="27" viewBox="0 0 27 27" fill="none" xmlns="http://www.w3.org/2000/svg">
<path d="M26.4253 13.5C26.4253 12.5105 25.6203 11.7056 24.6309 11.7056H24.2829L25.149 10.8394L24.0614 9.75184L22.1078 11.7056H19.4529C19.3211 11.2544 19.1411 10.8237 18.9185 10.4195L20.7969 8.54106H23.5599V7.00297H22.335L22.5811 6.75693C23.2807 6.0573 23.2807 4.91886 22.5811 4.21924C21.8814 3.51962 20.743 3.51951 20.0434 4.21924L19.7973 4.46533V3.2404H18.2592V6.00342L16.3808 7.88178C15.9766 7.65922 15.5458 7.47916 15.0947 7.34735V4.69256L17.0484 2.73888L15.9608 1.6513L15.0947 2.5174V2.16943C15.0947 1.17998 14.2897 0.375 13.3003 0.375C12.3108 0.375 11.5059 1.17998 11.5059 2.16943V2.5174L10.6397 1.65125L9.55213 2.73883L11.5059 4.69256V7.34735C11.0547 7.47916 10.624 7.65922 10.2198 7.88178L8.3414 6.00342V3.2404H6.80332V4.46533L6.55722 4.21924C5.8576 3.51957 4.71916 3.51962 4.01953 4.21924C3.31991 4.91886 3.31991 6.0573 4.01953 6.75693L4.26558 7.00297H3.0407V8.54106H5.80366L7.68208 10.4195C7.45951 10.8237 7.27946 11.2544 7.14764 11.7056H4.4928L2.53913 9.75189L1.45155 10.8395L2.31769 11.7056H1.96973C0.980276 11.7056 0.175293 12.5105 0.175293 13.5C0.175293 14.4895 0.980276 15.2944 1.96973 15.2944H2.31769L1.4516 16.1606L2.53918 17.2482L4.4928 15.2944H7.14764C7.27946 15.7456 7.45951 16.1763 7.68208 16.5805L5.80366 18.4589H3.0407V19.997H4.26558L4.01953 20.2431C3.31991 20.9427 3.31991 22.0811 4.01953 22.7808C4.3694 23.1306 4.82882 23.3055 5.2884 23.3055C5.74783 23.3055 6.20746 23.1306 6.55722 22.7808L6.80332 22.5347V23.7596H8.3414V20.9966L10.2198 19.1182C10.624 19.3408 11.0547 19.5208 11.5059 19.6527V22.3074L9.55218 24.2611L10.6398 25.3487L11.5059 24.4826V24.8306C11.5059 25.82 12.3108 26.625 13.3003 26.625C14.2897 26.625 15.0947 25.82 15.0947 24.8306V24.4826L15.9609 25.3487L17.0485 24.2612L15.0947 22.3074V19.6527C15.5459 19.5208 15.9766 19.3408 16.3808 19.1182L18.2592 20.9966V23.7596H19.7973V22.5347L20.0434 22.7808C20.3932 23.1306 20.8527 23.3055 21.3122 23.3055C21.7717 23.3055 22.2312 23.1306 22.5811 22.7808C23.2807 22.0811 23.2807 20.9427 22.5811 20.2431L22.335 19.997H23.5599V18.4589H20.7969L18.9185 16.5805C19.1411 16.1763 19.3211 15.7456 19.4529 15.2944H22.1078L24.0615 17.2481L25.149 16.1605L24.2829 15.2944H24.6309C25.6203 15.2944 26.4253 14.4895 26.4253 13.5ZM13.3003 15.2944C12.3108 15.2944 11.5059 14.4895 11.5059 13.5C11.5059 12.5105 12.3108 11.7056 13.3003 11.7056C14.2897 11.7056 15.0947 12.5105 15.0947 13.5C15.0947 14.4895 14.2897 15.2944 13.3003 15.2944Z" fill="url(#paint0_linear_1682_25364)"/>
<defs>
<linearGradient id="paint0_linear_1682_25364" x1="0.175293" y1="16.0521" x2="26.4253" y2="16.0521" gradientUnits="userSpaceOnUse">
<stop stop-color="#2942CB"/>
<stop offset="1" stop-color="#273DB1"/>
</linearGradient>
</defs>
</svg>
