<svg width="38" height="38" viewBox="0 0 38 38" fill="none" xmlns="http://www.w3.org/2000/svg">
<path d="M15.7041 11.6025C7.22303 11.6025 0.250077 17.4347 0.250077 24.6037C0.250077 27.4694 1.36162 30.3818 3.40007 32.6391L0.521519 35.9285C0.238285 36.2526 0.169582 36.7128 0.34881 37.1055C0.526939 37.4982 0.917474 37.7503 1.34873 37.7503H16.8028C23.0648 37.7503 31.1582 32.3581 31.1582 24.6037C31.1582 17.4347 24.1853 11.6025 15.7041 11.6025ZM9.03911 26.6175C7.8278 26.6175 6.84187 25.6315 6.84187 24.4203C6.84187 23.209 7.82788 22.223 9.03911 22.223C10.2503 22.223 11.2363 23.209 11.2363 24.4203C11.2364 25.6315 10.2504 26.6175 9.03911 26.6175ZM15.7041 26.6175C14.4928 26.6175 13.5069 25.6315 13.5069 24.4203C13.5069 23.209 14.4929 22.223 15.7041 22.223C16.9154 22.223 17.9014 23.209 17.9014 24.4203C17.9014 25.6315 16.9154 26.6175 15.7041 26.6175ZM22.3692 26.6175C21.1579 26.6175 20.1719 25.6315 20.1719 24.4203C20.1719 23.209 21.1579 22.223 22.3692 22.223C23.5804 22.223 24.5664 23.209 24.5664 24.4203C24.5664 25.6315 23.5805 26.6175 22.3692 26.6175Z" fill="url(#paint0_linear_1377_26737)"/>
<path d="M37.4851 22.6056L34.8984 19.5876C36.7448 17.5041 37.7501 14.9634 37.7501 12.3349C37.7501 5.67128 31.3429 0.25 23.4679 0.25C16.3468 0.25 10.2968 4.68777 9.22852 10.4638C11.2155 9.78868 13.4438 9.40489 15.7043 9.40489C25.3251 9.40489 33.2294 16.1246 33.3449 24.4199H36.6515C37.59 24.4199 38.094 23.3148 37.4851 22.6056Z" fill="url(#paint1_linear_1377_26737)"/>
<defs>
<linearGradient id="paint0_linear_1377_26737" x1="0.25" y1="27.2186" x2="31.1582" y2="27.2186" gradientUnits="userSpaceOnUse">
<stop stop-color="#2942CB"/>
<stop offset="1" stop-color="#273DB1"/>
</linearGradient>
<linearGradient id="paint1_linear_1377_26737" x1="9.22852" y1="14.6848" x2="37.7509" y2="14.6848" gradientUnits="userSpaceOnUse">
<stop stop-color="#2942CB"/>
<stop offset="1" stop-color="#273DB1"/>
</linearGradient>
</defs>
</svg>
