<svg width="29" height="30" viewBox="0 0 29 30" fill="none" xmlns="http://www.w3.org/2000/svg">
<path d="M22 17C18.416 17 15.5 19.916 15.5 23.5C15.5 27.084 18.416 30 22 30C25.584 30 28.5 27.084 28.5 23.5C28.5 19.916 25.584 17 22 17ZM22 29C18.9675 29 16.5 26.5325 16.5 23.5C16.5 20.4675 18.9675 18 22 18C25.0325 18 27.5 20.4675 27.5 23.5C27.5 26.5325 25.0325 29 22 29Z" fill="url(#paint0_linear_1425_18769)" fill-opacity="0.5"/>
<path d="M25 23H22.5V20.5C22.5 20.224 22.276 20 22 20C21.724 20 21.5 20.224 21.5 20.5V23H19C18.724 23 18.5 23.224 18.5 23.5C18.5 23.776 18.724 24 19 24H21.5V26.5C21.5 26.776 21.724 27 22 27C22.276 27 22.5 26.776 22.5 26.5V24H25C25.276 24 25.5 23.776 25.5 23.5C25.5 23.224 25.276 23 25 23Z" fill="url(#paint1_linear_1425_18769)" fill-opacity="0.5"/>
<path d="M14.0255 24H5.5C5.224 24 5 23.7765 5 23.5C5 23.2235 5.224 23 5.5 23H14.0255C14.092 21.929 14.369 20.9165 14.8175 20H5.5C5.224 20 5 19.7765 5 19.5C5 19.2235 5.224 19 5.5 19H15.391C16.833 16.889 19.257 15.5 22 15.5C22.513 15.5 23.0135 15.553 23.5 15.646V7.293L16.207 0H0V30H17.354C15.455 28.639 14.1795 26.4715 14.0255 24ZM15.5 1L22.5 8H15.5V1ZM5.5 7H10.5C10.776 7 11 7.2235 11 7.5C11 7.7765 10.776 8 10.5 8H5.5C5.224 8 5 7.7765 5 7.5C5 7.2235 5.224 7 5.5 7ZM5.5 11H18C18.276 11 18.5 11.2235 18.5 11.5C18.5 11.7765 18.276 12 18 12H5.5C5.224 12 5 11.7765 5 11.5C5 11.2235 5.224 11 5.5 11ZM5.5 15H18C18.276 15 18.5 15.2235 18.5 15.5C18.5 15.7765 18.276 16 18 16H5.5C5.224 16 5 15.7765 5 15.5C5 15.2235 5.224 15 5.5 15Z" fill="url(#paint2_linear_1425_18769)" fill-opacity="0.5"/>
<defs>
<linearGradient id="paint0_linear_1425_18769" x1="15.5" y1="24.7639" x2="28.5" y2="24.7639" gradientUnits="userSpaceOnUse">
<stop stop-color="#2942CB"/>
<stop offset="1" stop-color="#273DB1"/>
</linearGradient>
<linearGradient id="paint1_linear_1425_18769" x1="18.5" y1="24.1806" x2="25.5" y2="24.1806" gradientUnits="userSpaceOnUse">
<stop stop-color="#2942CB"/>
<stop offset="1" stop-color="#273DB1"/>
</linearGradient>
<linearGradient id="paint2_linear_1425_18769" x1="-3.01271e-08" y1="17.9167" x2="23.5" y2="17.9167" gradientUnits="userSpaceOnUse">
<stop stop-color="#2942CB"/>
<stop offset="1" stop-color="#273DB1"/>
</linearGradient>
</defs>
</svg>
