<svg width="37" height="38" viewBox="0 0 37 38" fill="none" xmlns="http://www.w3.org/2000/svg">
<path d="M23.9012 23.1673C23.9903 22.8339 23.9446 22.4859 23.7721 22.1871L21.0832 17.5295C20.8531 17.1312 20.4241 16.8834 19.9633 16.8834C19.7379 16.8834 19.5151 16.9434 19.319 17.0567L17.9173 17.8661C17.3477 17.4482 16.7317 17.0901 16.0786 16.8008V15.186C16.0786 14.4738 15.4991 13.8945 14.787 13.8945H9.40873C8.69669 13.8945 8.11735 14.4738 8.11735 15.186V16.8007C7.46419 17.09 6.84825 17.4482 6.2785 17.8661L4.87681 17.0568C4.68071 16.9435 4.4578 16.8836 4.23241 16.8836C3.77175 16.8836 3.34273 17.1312 3.11261 17.5297L0.423665 22.187C0.251172 22.4859 0.205291 22.8339 0.294476 23.1673C0.383867 23.5005 0.597497 23.7791 0.896188 23.9514L2.29396 24.7582C2.25633 25.1079 2.23633 25.4626 2.23633 25.8221C2.23633 26.1815 2.25623 26.5364 2.29396 26.886L0.896188 27.693C0.597394 27.8654 0.383867 28.1439 0.294476 28.4772C0.205291 28.8103 0.251172 29.1585 0.423665 29.4572L3.1125 34.1148C3.34263 34.5133 3.77175 34.7608 4.23231 34.7608C4.45769 34.7608 4.6806 34.701 4.87671 34.5876L6.2785 33.7784C6.84815 34.1961 7.46419 34.5543 8.11725 34.8436V36.4583C8.11725 36.8033 8.25159 37.1276 8.49564 37.3715C8.73958 37.6154 9.06395 37.7499 9.40862 37.7499H14.7869C15.4989 37.7499 16.0785 37.1705 16.0785 36.4583V34.8435C16.7316 34.5542 17.3475 34.1961 17.9171 33.7783L19.3189 34.5875C19.515 34.7009 19.7379 34.7607 19.9632 34.7607C20.4241 34.7607 20.853 34.5133 21.0831 34.1147L23.772 29.4571C23.9445 29.1584 23.9902 28.8103 23.9011 28.4771C23.8119 28.1437 23.5981 27.8652 23.2996 27.6929L21.9018 26.8858C21.9394 26.5362 21.9593 26.1813 21.9593 25.8219C21.9593 25.4624 21.9395 25.1076 21.9018 24.758L23.2996 23.951C23.5983 23.7791 23.812 23.5006 23.9012 23.1673ZM12.0979 31.4308C9.00033 31.4308 6.48945 28.9198 6.48945 25.8223C6.48945 22.7249 9.00044 20.2139 12.0979 20.2139C15.1953 20.2139 17.7064 22.7249 17.7064 25.8223C17.7064 28.9197 15.1954 31.4308 12.0979 31.4308Z" fill="url(#paint0_linear_1377_624)"/>
<path d="M16.8141 9.89977C16.7551 10.1204 16.7855 10.3507 16.8996 10.5483L18.6788 13.6303C18.8313 13.8941 19.115 14.0577 19.4199 14.0577C19.5691 14.0577 19.7164 14.0181 19.8464 13.9432L20.7746 13.4074C21.1513 13.6837 21.5588 13.92 21.9907 14.1112V15.1811C21.9907 15.4094 22.0795 15.624 22.241 15.7854C22.4025 15.9469 22.617 16.0357 22.8452 16.0357H26.404C26.8752 16.0357 27.2588 15.6523 27.2588 15.1811V14.1112C27.6906 13.9199 28.098 13.6836 28.4748 13.4072L29.4031 13.9432C29.5328 14.0182 29.6802 14.0577 29.8294 14.0577C30.1343 14.0577 30.4183 13.894 30.5705 13.6303L32.3497 10.5483C32.4639 10.3507 32.4943 10.1204 32.4353 9.89977C32.3761 9.67923 32.2348 9.49498 32.0372 9.38085L31.1118 8.84657C31.1367 8.61531 31.1503 8.38064 31.1503 8.14289C31.1503 7.90513 31.1367 7.67057 31.1118 7.4392L32.0372 6.90502C32.2348 6.79089 32.3761 6.60654 32.4353 6.386C32.4943 6.16546 32.4638 5.93523 32.3497 5.73748L30.5705 2.65551C30.4183 2.39177 30.1344 2.22794 29.8294 2.22794C29.6802 2.22794 29.5328 2.26763 29.4031 2.34269L28.4748 2.87862C28.098 2.60231 27.6907 2.36599 27.2588 2.17474V1.10463C27.2588 0.633442 26.8752 0.25 26.404 0.25H22.8452C22.374 0.25 21.9907 0.633442 21.9907 1.10463V2.17463C21.5589 2.36599 21.1513 2.60231 20.7747 2.87852L19.8464 2.34259C19.7164 2.26743 19.5692 2.22784 19.4199 2.22784C19.1151 2.22784 18.8313 2.39177 18.6788 2.65541L16.8996 5.73738C16.7855 5.93513 16.7551 6.16536 16.8141 6.3859C16.8732 6.60654 17.0146 6.79079 17.2121 6.90492L18.1375 7.4391C18.1126 7.67036 18.099 7.90503 18.099 8.14278C18.099 8.38064 18.1126 8.6152 18.1375 8.84646L17.2121 9.38075C17.0146 9.49499 16.8732 9.67923 16.8141 9.89977ZM24.6246 4.43167C26.6744 4.43167 28.3359 6.09329 28.3359 8.14289C28.3359 10.1925 26.6744 11.8541 24.6246 11.8541C22.5749 11.8541 20.9134 10.1925 20.9134 8.14289C20.9134 6.09329 22.5749 4.43167 24.6246 4.43167Z" fill="url(#paint1_linear_1377_624)"/>
<path d="M36.0417 21.8481L35.4046 21.4803C35.4219 21.3211 35.4312 21.1596 35.4312 20.9959C35.4312 20.8321 35.4219 20.6707 35.4046 20.5114L36.0417 20.1436C36.1777 20.065 36.275 19.9382 36.3157 19.7863C36.3564 19.6345 36.3354 19.476 36.2569 19.3399L35.032 17.2184C34.9272 17.0368 34.7319 16.9241 34.5221 16.9241C34.4194 16.9241 34.3179 16.9514 34.2284 17.0031L33.5895 17.372C33.3301 17.1817 33.0497 17.019 32.7524 16.8874V16.1508C32.7524 15.8265 32.4885 15.5625 32.1642 15.5625H29.7145C29.39 15.5625 29.1262 15.8265 29.1262 16.1508V16.8874C28.8288 17.019 28.5485 17.1817 28.2891 17.372L27.65 17.0031C27.5607 16.9514 27.4592 16.9241 27.3565 16.9241C27.1467 16.9241 26.9512 17.0368 26.8465 17.2184L25.6218 19.3399C25.543 19.476 25.5221 19.6345 25.5628 19.7863C25.6036 19.9382 25.7009 20.065 25.8368 20.1436L26.474 20.5114C26.4568 20.6706 26.4474 20.832 26.4474 20.9957C26.4474 21.1595 26.4568 21.3209 26.474 21.4801L25.8368 21.8479C25.7009 21.9264 25.6035 22.0531 25.5628 22.205C25.5221 22.3569 25.5431 22.5155 25.6218 22.6515L26.8465 24.7729C26.9513 24.9546 27.1467 25.0673 27.3565 25.0673C27.4592 25.0673 27.5606 25.0399 27.65 24.9883L28.2891 24.6194C28.5485 24.8097 28.8288 24.9722 29.1262 25.104V25.8406C29.1262 25.9976 29.1873 26.1455 29.2984 26.2565C29.4096 26.3678 29.5574 26.4289 29.7145 26.4289H32.1642C32.4885 26.4289 32.7524 26.1649 32.7524 25.8406V25.104C33.0497 24.9723 33.3302 24.8097 33.5895 24.6194L34.2284 24.9883C34.3178 25.0399 34.4194 25.0673 34.5221 25.0673C34.7319 25.0673 34.9273 24.9546 35.032 24.7729L36.2569 22.6515C36.3355 22.5155 36.3564 22.3569 36.3157 22.205C36.275 22.0533 36.1777 21.9265 36.0417 21.8481ZM30.9393 23.5505C29.5283 23.5505 28.3846 22.4066 28.3846 20.9959C28.3846 19.5849 29.5283 18.441 30.9393 18.441C32.3503 18.441 33.4939 19.585 33.4939 20.9959C33.4939 22.4067 32.3502 23.5505 30.9393 23.5505Z" fill="url(#paint2_linear_1377_624)"/>
<defs>
<linearGradient id="paint0_linear_1377_624" x1="0.25" y1="28.1415" x2="23.9457" y2="28.1415" gradientUnits="userSpaceOnUse">
<stop stop-color="#2942CB"/>
<stop offset="1" stop-color="#273DB1"/>
</linearGradient>
<linearGradient id="paint1_linear_1377_624" x1="16.7847" y1="9.67755" x2="32.4647" y2="9.67755" gradientUnits="userSpaceOnUse">
<stop stop-color="#2942CB"/>
<stop offset="1" stop-color="#273DB1"/>
</linearGradient>
<linearGradient id="paint2_linear_1377_624" x1="25.5425" y1="22.0522" x2="36.336" y2="22.0522" gradientUnits="userSpaceOnUse">
<stop stop-color="#2942CB"/>
<stop offset="1" stop-color="#273DB1"/>
</linearGradient>
</defs>
</svg>
