<svg width="21" height="15" viewBox="0 0 21 15" fill="none" xmlns="http://www.w3.org/2000/svg">
<path d="M3.96338 2.68793H17.3696C17.4504 2.68793 17.528 2.65582 17.5851 2.59869C17.6422 2.54156 17.6743 2.46406 17.6743 2.38324V0.859802H3.65869V2.38324C3.65869 2.46406 3.69079 2.54156 3.74793 2.59869C3.80507 2.65582 3.88257 2.68793 3.96338 2.68793Z" fill="url(#paint0_linear_1472_20555)"/>
<path d="M18.8931 0.859802H18.2837V2.38324C18.283 2.62543 18.1864 2.85752 18.0152 3.0288C17.8439 3.20003 17.6118 3.29658 17.3696 3.2973H3.96338C3.72118 3.29658 3.4891 3.20003 3.31784 3.0288C3.14658 2.85752 3.05004 2.62543 3.04932 2.38324V0.859802H2.43994C2.0359 0.859802 1.64841 1.02031 1.36271 1.30601C1.07701 1.59171 0.916504 1.97919 0.916504 2.38324V6.95355H20.4165V2.38324C20.4165 1.97919 20.256 1.59171 19.9703 1.30601C19.6846 1.02031 19.2971 0.859802 18.8931 0.859802ZM13.4087 6.03949H7.92432C7.8435 6.03949 7.76599 6.00738 7.70886 5.95025C7.65174 5.89313 7.61963 5.81562 7.61963 5.7348C7.61963 5.65398 7.65174 5.57648 7.70886 5.51935C7.76599 5.46222 7.8435 5.43011 7.92432 5.43011H13.4087C13.4895 5.43011 13.567 5.46222 13.6241 5.51935C13.6813 5.57648 13.7134 5.65398 13.7134 5.7348C13.7134 5.81562 13.6813 5.89313 13.6241 5.95025C13.567 6.00738 13.4895 6.03949 13.4087 6.03949Z" fill="url(#paint1_linear_1472_20555)"/>
<path d="M14.9321 7.56293H6.40088V10.0004H14.9321V7.56293Z" fill="url(#paint2_linear_1472_20555)"/>
<path d="M15.5415 10.0004H18.8931C19.297 9.99993 19.6842 9.83929 19.9698 9.55368C20.2554 9.26811 20.416 8.88089 20.4165 8.47699V7.56293H15.5415V10.0004ZM17.6743 8.47699H18.5884C18.6692 8.47699 18.7467 8.5091 18.8038 8.56622C18.861 8.62335 18.8931 8.70086 18.8931 8.78168C18.8931 8.8625 18.861 8.94 18.8038 8.99713C18.7467 9.05426 18.6692 9.08636 18.5884 9.08636H17.6743C17.5935 9.08636 17.516 9.05426 17.4589 8.99713C17.4017 8.94 17.3696 8.8625 17.3696 8.78168C17.3696 8.70086 17.4017 8.62335 17.4589 8.56622C17.516 8.5091 17.5935 8.47699 17.6743 8.47699Z" fill="url(#paint3_linear_1472_20555)"/>
<path d="M0.916504 8.47699C0.916988 8.88089 1.07765 9.26811 1.36324 9.55368C1.64884 9.83929 2.03605 9.99993 2.43994 10.0004H5.7915V7.56293H0.916504V8.47699Z" fill="url(#paint4_linear_1472_20555)"/>
<path d="M11.2759 10.9145C11.2759 10.8337 11.2438 10.7562 11.1866 10.699C11.1295 10.6419 11.052 10.6098 10.9712 10.6098C10.8904 10.6098 10.8129 10.6419 10.7557 10.699C10.6986 10.7562 10.6665 10.8337 10.6665 10.9145C10.6675 11.0209 10.6469 11.1263 10.606 11.2245C10.5651 11.3227 10.5048 11.4115 10.4285 11.4858C10.1897 11.7453 10.0571 12.0852 10.0571 12.4379C10.0571 12.7907 10.1897 13.1305 10.4285 13.3901C10.5048 13.4643 10.5651 13.5532 10.606 13.6514C10.6469 13.7496 10.6675 13.855 10.6665 13.9614C10.6665 14.0422 10.6986 14.1197 10.7557 14.1768C10.8129 14.2339 10.8904 14.2661 10.9712 14.2661C11.052 14.2661 11.1295 14.2339 11.1866 14.1768C11.2438 14.1197 11.2759 14.0422 11.2759 13.9614C11.2785 13.6082 11.1456 13.2674 10.9045 13.0092C10.8291 12.9344 10.7692 12.8454 10.7284 12.7474C10.6875 12.6493 10.6665 12.5441 10.6665 12.4379C10.6665 12.3317 10.6875 12.2266 10.7284 12.1285C10.7692 12.0304 10.8291 11.9414 10.9045 11.8666C11.1456 11.6085 11.2785 11.2677 11.2759 10.9145Z" fill="url(#paint5_linear_1472_20555)"/>
<path d="M13.104 10.9145C13.104 10.8337 13.0719 10.7562 13.0148 10.699C12.9576 10.6419 12.8801 10.6098 12.7993 10.6098C12.7185 10.6098 12.641 10.6419 12.5839 10.699C12.5267 10.7562 12.4946 10.8337 12.4946 10.9145C12.4956 11.0209 12.475 11.1263 12.4341 11.2245C12.3932 11.3227 12.3329 11.4115 12.2567 11.4858C12.0178 11.7453 11.8853 12.0852 11.8853 12.4379C11.8853 12.7907 12.0178 13.1305 12.2567 13.3901C12.3329 13.4643 12.3932 13.5532 12.4341 13.6514C12.475 13.7496 12.4956 13.855 12.4946 13.9614C12.4946 14.0422 12.5267 14.1197 12.5839 14.1768C12.641 14.2339 12.7185 14.2661 12.7993 14.2661C12.8801 14.2661 12.9576 14.2339 13.0148 14.1768C13.0719 14.1197 13.104 14.0422 13.104 13.9614C13.1066 13.6082 12.9737 13.2674 12.7326 13.0092C12.6572 12.9344 12.5973 12.8454 12.5565 12.7474C12.5157 12.6493 12.4946 12.5441 12.4946 12.4379C12.4946 12.3317 12.5157 12.2266 12.5565 12.1285C12.5973 12.0304 12.6572 11.9414 12.7326 11.8666C12.9737 11.6085 13.1066 11.2677 13.104 10.9145Z" fill="url(#paint6_linear_1472_20555)"/>
<path d="M14.9321 10.9145C14.9321 10.8337 14.9 10.7562 14.8429 10.699C14.7858 10.6419 14.7083 10.6098 14.6274 10.6098C14.5467 10.6098 14.4692 10.6419 14.412 10.699C14.3549 10.7562 14.3228 10.8337 14.3228 10.9145C14.3237 11.0209 14.3031 11.1263 14.2622 11.2245C14.2213 11.3227 14.161 11.4115 14.0848 11.4858C13.846 11.7453 13.7134 12.0852 13.7134 12.4379C13.7134 12.7907 13.846 13.1305 14.0848 13.3901C14.161 13.4643 14.2213 13.5532 14.2622 13.6514C14.3031 13.7496 14.3237 13.855 14.3228 13.9614C14.3228 14.0422 14.3549 14.1197 14.412 14.1768C14.4692 14.2339 14.5467 14.2661 14.6274 14.2661C14.7083 14.2661 14.7858 14.2339 14.8429 14.1768C14.9 14.1197 14.9321 14.0422 14.9321 13.9614C14.9348 13.6082 14.8018 13.2674 14.5607 13.0092C14.4853 12.9344 14.4255 12.8454 14.3846 12.7474C14.3438 12.6493 14.3228 12.5441 14.3228 12.4379C14.3228 12.3317 14.3438 12.2266 14.3846 12.1285C14.4255 12.0304 14.4853 11.9414 14.5607 11.8666C14.8018 11.6085 14.9348 11.2677 14.9321 10.9145Z" fill="url(#paint7_linear_1472_20555)"/>
<path d="M16.7603 10.9145C16.7603 10.8337 16.7281 10.7562 16.671 10.699C16.6139 10.6419 16.5364 10.6098 16.4556 10.6098C16.3748 10.6098 16.2973 10.6419 16.2401 10.699C16.183 10.7562 16.1509 10.8337 16.1509 10.9145C16.1519 11.0209 16.1313 11.1263 16.0904 11.2245C16.0495 11.3227 15.9891 11.4115 15.9129 11.4858C15.6741 11.7453 15.5415 12.0852 15.5415 12.4379C15.5415 12.7907 15.6741 13.1305 15.9129 13.3901C15.9891 13.4643 16.0495 13.5532 16.0904 13.6514C16.1313 13.7496 16.1519 13.855 16.1509 13.9614C16.1509 14.0422 16.183 14.1197 16.2401 14.1768C16.2973 14.2339 16.3748 14.2661 16.4556 14.2661C16.5364 14.2661 16.6139 14.2339 16.671 14.1768C16.7281 14.1197 16.7603 14.0422 16.7603 13.9614C16.7629 13.6082 16.63 13.2674 16.3888 13.0092C16.3134 12.9344 16.2536 12.8454 16.2127 12.7474C16.1719 12.6493 16.1509 12.5441 16.1509 12.4379C16.1509 12.3317 16.1719 12.2266 16.2127 12.1285C16.2536 12.0304 16.3134 11.9414 16.3888 11.8666C16.63 11.6085 16.7629 11.2677 16.7603 10.9145Z" fill="url(#paint8_linear_1472_20555)"/>
<path d="M5.7915 10.9145C5.7915 10.8337 5.7594 10.7562 5.70227 10.699C5.64514 10.6419 5.56763 10.6098 5.48682 10.6098C5.40604 10.6098 5.32853 10.6419 5.27136 10.699C5.21424 10.7562 5.18213 10.8337 5.18213 10.9145C5.18312 11.0209 5.16251 11.1263 5.12161 11.2245C5.08071 11.3227 5.02038 11.4115 4.94417 11.4858C4.70533 11.7453 4.57275 12.0852 4.57275 12.4379C4.57275 12.7907 4.70533 13.1305 4.94417 13.3901C5.02038 13.4643 5.08071 13.5532 5.12161 13.6514C5.16251 13.7496 5.18312 13.855 5.18213 13.9614C5.18213 14.0422 5.21424 14.1197 5.27136 14.1768C5.32853 14.2339 5.40604 14.2661 5.48682 14.2661C5.56763 14.2661 5.64514 14.2339 5.70227 14.1768C5.7594 14.1197 5.7915 14.0422 5.7915 13.9614C5.79413 13.6082 5.66121 13.2674 5.42009 13.0092C5.34468 12.9344 5.28485 12.8454 5.24398 12.7474C5.20315 12.6493 5.18213 12.5441 5.18213 12.4379C5.18213 12.3317 5.20315 12.2266 5.24398 12.1285C5.28485 12.0304 5.34468 11.9414 5.42009 11.8666C5.66121 11.6085 5.79413 11.2677 5.7915 10.9145Z" fill="url(#paint9_linear_1472_20555)"/>
<path d="M7.61963 10.9145C7.61963 10.8337 7.58752 10.7562 7.53039 10.699C7.47326 10.6419 7.39576 10.6098 7.31494 10.6098C7.23416 10.6098 7.15666 10.6419 7.09949 10.699C7.04236 10.7562 7.01025 10.8337 7.01025 10.9145C7.01124 11.0209 6.99064 11.1263 6.94974 11.2245C6.90883 11.3227 6.8485 11.4115 6.77229 11.4858C6.53346 11.7453 6.40088 12.0852 6.40088 12.4379C6.40088 12.7907 6.53346 13.1305 6.77229 13.3901C6.8485 13.4643 6.90883 13.5532 6.94974 13.6514C6.99064 13.7496 7.01124 13.855 7.01025 13.9614C7.01025 14.0422 7.04236 14.1197 7.09949 14.1768C7.15666 14.2339 7.23416 14.2661 7.31494 14.2661C7.39576 14.2661 7.47326 14.2339 7.53039 14.1768C7.58752 14.1197 7.61963 14.0422 7.61963 13.9614C7.62226 13.6082 7.48934 13.2674 7.24821 13.0092C7.1728 12.9344 7.11297 12.8454 7.07211 12.7474C7.03128 12.6493 7.01025 12.5441 7.01025 12.4379C7.01025 12.3317 7.03128 12.2266 7.07211 12.1285C7.11297 12.0304 7.1728 11.9414 7.24821 11.8666C7.48934 11.6085 7.62226 11.2677 7.61963 10.9145Z" fill="url(#paint10_linear_1472_20555)"/>
<path d="M9.44775 10.9145C9.44775 10.8337 9.41565 10.7562 9.35852 10.699C9.30139 10.6419 9.22388 10.6098 9.14307 10.6098C9.06229 10.6098 8.98478 10.6419 8.92761 10.699C8.87049 10.7562 8.83838 10.8337 8.83838 10.9145C8.83937 11.0209 8.81876 11.1263 8.77786 11.2245C8.73696 11.3227 8.67663 11.4115 8.60042 11.4858C8.36158 11.7453 8.229 12.0852 8.229 12.4379C8.229 12.7907 8.36158 13.1305 8.60042 13.3901C8.67663 13.4643 8.73696 13.5532 8.77786 13.6514C8.81876 13.7496 8.83937 13.855 8.83838 13.9614C8.83838 14.0422 8.87049 14.1197 8.92761 14.1768C8.98478 14.2339 9.06229 14.2661 9.14307 14.2661C9.22388 14.2661 9.30139 14.2339 9.35852 14.1768C9.41565 14.1197 9.44775 14.0422 9.44775 13.9614C9.45038 13.6082 9.31746 13.2674 9.07634 13.0092C9.00093 12.9344 8.9411 12.8454 8.90023 12.7474C8.8594 12.6493 8.83838 12.5441 8.83838 12.4379C8.83838 12.3317 8.8594 12.2266 8.90023 12.1285C8.9411 12.0304 9.00093 11.9414 9.07634 11.8666C9.31746 11.6085 9.45038 11.2677 9.44775 10.9145Z" fill="url(#paint11_linear_1472_20555)"/>
<defs>
<linearGradient id="paint0_linear_1472_20555" x1="3.65869" y1="1.9516" x2="17.6743" y2="1.9516" gradientUnits="userSpaceOnUse">
<stop stop-color="#2942CB"/>
<stop offset="1" stop-color="#273DB1"/>
</linearGradient>
<linearGradient id="paint1_linear_1472_20555" x1="0.916504" y1="4.49913" x2="20.4165" y2="4.49913" gradientUnits="userSpaceOnUse">
<stop stop-color="#2942CB"/>
<stop offset="1" stop-color="#273DB1"/>
</linearGradient>
<linearGradient id="paint2_linear_1472_20555" x1="6.40088" y1="9.01866" x2="14.9321" y2="9.01866" gradientUnits="userSpaceOnUse">
<stop stop-color="#2942CB"/>
<stop offset="1" stop-color="#273DB1"/>
</linearGradient>
<linearGradient id="paint3_linear_1472_20555" x1="15.5415" y1="9.01866" x2="20.4165" y2="9.01866" gradientUnits="userSpaceOnUse">
<stop stop-color="#2942CB"/>
<stop offset="1" stop-color="#273DB1"/>
</linearGradient>
<linearGradient id="paint4_linear_1472_20555" x1="0.916504" y1="9.01866" x2="5.7915" y2="9.01866" gradientUnits="userSpaceOnUse">
<stop stop-color="#2942CB"/>
<stop offset="1" stop-color="#273DB1"/>
</linearGradient>
<linearGradient id="paint5_linear_1472_20555" x1="10.0571" y1="12.7934" x2="11.2759" y2="12.7934" gradientUnits="userSpaceOnUse">
<stop stop-color="#2942CB"/>
<stop offset="1" stop-color="#273DB1"/>
</linearGradient>
<linearGradient id="paint6_linear_1472_20555" x1="11.8853" y1="12.7934" x2="13.104" y2="12.7934" gradientUnits="userSpaceOnUse">
<stop stop-color="#2942CB"/>
<stop offset="1" stop-color="#273DB1"/>
</linearGradient>
<linearGradient id="paint7_linear_1472_20555" x1="13.7134" y1="12.7934" x2="14.9322" y2="12.7934" gradientUnits="userSpaceOnUse">
<stop stop-color="#2942CB"/>
<stop offset="1" stop-color="#273DB1"/>
</linearGradient>
<linearGradient id="paint8_linear_1472_20555" x1="15.5415" y1="12.7934" x2="16.7603" y2="12.7934" gradientUnits="userSpaceOnUse">
<stop stop-color="#2942CB"/>
<stop offset="1" stop-color="#273DB1"/>
</linearGradient>
<linearGradient id="paint9_linear_1472_20555" x1="4.57275" y1="12.7934" x2="5.79154" y2="12.7934" gradientUnits="userSpaceOnUse">
<stop stop-color="#2942CB"/>
<stop offset="1" stop-color="#273DB1"/>
</linearGradient>
<linearGradient id="paint10_linear_1472_20555" x1="6.40088" y1="12.7934" x2="7.61967" y2="12.7934" gradientUnits="userSpaceOnUse">
<stop stop-color="#2942CB"/>
<stop offset="1" stop-color="#273DB1"/>
</linearGradient>
<linearGradient id="paint11_linear_1472_20555" x1="8.229" y1="12.7934" x2="9.44779" y2="12.7934" gradientUnits="userSpaceOnUse">
<stop stop-color="#2942CB"/>
<stop offset="1" stop-color="#273DB1"/>
</linearGradient>
</defs>
</svg>
