<svg width="20" height="21" viewBox="0 0 20 21" fill="none" xmlns="http://www.w3.org/2000/svg">
<path d="M18.5312 10.2875H1.46875C0.7968 10.2875 0.25 10.8343 0.25 11.5062C0.25 12.1782 0.7968 12.725 1.46875 12.725H18.5312C19.2032 12.725 19.75 12.1782 19.75 11.5062C19.75 10.8343 19.2032 10.2875 18.5312 10.2875Z" fill="url(#paint0_linear_1472_2276)"/>
<path d="M18.6428 11.9279C18.4226 11.8662 18.2016 11.9913 18.1407 12.2074L18.109 12.3188H1.89065L1.85816 12.2074C1.79723 11.9913 1.57461 11.8678 1.35604 11.9279C1.1399 11.9897 1.01559 12.2148 1.07736 12.4301L2.19698 16.3496C2.5439 17.5642 3.66842 18.4125 4.93104 18.4125H15.067C16.3304 18.4125 17.4541 17.5642 17.801 16.3496L18.9207 12.4301C18.9832 12.2147 18.8581 11.9897 18.6428 11.9279ZM4.93184 16.7875C4.39072 16.7875 3.9081 16.4243 3.76021 15.9035L3.23291 14.0558C3.17117 13.8397 3.29629 13.6154 3.51159 13.5537C3.72933 13.492 3.95278 13.6179 4.01371 13.8332L4.541 15.6808C4.59139 15.8539 4.75143 15.9758 4.9318 15.9758C5.15605 15.9758 5.33807 16.1578 5.33807 16.382C5.3381 16.6063 5.15609 16.7875 4.93184 16.7875Z" fill="url(#paint1_linear_1472_2276)"/>
<path d="M5.71195 17.6423C5.51128 17.544 5.26833 17.6228 5.16675 17.8243L4.35426 19.4493C4.25433 19.65 4.33556 19.8937 4.53628 19.9945C4.59558 20.0237 4.65735 20.0376 4.71829 20.0376C4.86698 20.0376 5.00999 19.9555 5.08148 19.8125L5.89396 18.1875C5.9939 17.9868 5.91263 17.743 5.71195 17.6423Z" fill="url(#paint2_linear_1472_2276)"/>
<path d="M15.6449 19.4501L14.8324 17.8251C14.7317 17.6235 14.488 17.5431 14.2872 17.643C14.0866 17.7438 14.0053 17.9875 14.1052 18.1882L14.9177 19.8133C14.9892 19.9554 15.1322 20.0375 15.2809 20.0375C15.3418 20.0375 15.4036 20.0237 15.4629 19.9953C15.6636 19.8945 15.7449 19.6507 15.6449 19.4501Z" fill="url(#paint3_linear_1472_2276)"/>
<path d="M16.5694 0.609802C16.155 0.609802 15.765 0.771477 15.4717 1.06481L14.1823 2.35425C14.0239 2.51269 14.0239 2.77026 14.1823 2.9287C14.3407 3.08714 14.5983 3.08714 14.7568 2.9287L16.0462 1.64006C16.1851 1.50033 16.3711 1.42313 16.5735 1.42313C16.9813 1.42313 17.3128 1.75463 17.3128 2.16249V10.6937C17.3128 10.918 17.4948 11.1 17.7191 11.1C17.9433 11.1 18.1253 10.918 18.1261 10.6929V2.16169C18.1262 1.30613 17.4307 0.609802 16.5694 0.609802Z" fill="url(#paint4_linear_1472_2276)"/>
<path d="M15.163 2.76049L14.3506 1.948C14.2579 1.85538 14.1287 1.8123 13.9971 1.83424L11.9659 2.16738C11.8164 2.19175 11.6937 2.29737 11.6458 2.44038C11.5978 2.58339 11.6344 2.74263 11.74 2.85068L14.1775 5.3613C14.2547 5.44174 14.3611 5.48482 14.4684 5.48482C14.5066 5.48482 14.5456 5.47914 14.5838 5.46775C14.7284 5.42552 14.8381 5.30608 14.8673 5.15819L15.2736 3.12695C15.3003 2.99449 15.2589 2.85715 15.163 2.76049Z" fill="url(#paint5_linear_1472_2276)"/>
<path d="M9.88077 5.53191C9.72233 5.37348 9.46475 5.37348 9.30632 5.53191L8.49383 6.3444C8.33539 6.50284 8.33539 6.76041 8.49383 6.91885C8.57347 6.99765 8.67744 7.03749 8.78145 7.03749C8.88547 7.03749 8.98944 6.99769 9.06828 6.91885L9.88077 6.10636C10.0392 5.94789 10.0392 5.69035 9.88077 5.53191Z" fill="url(#paint6_linear_1472_2276)"/>
<path d="M11.5058 7.15685C11.3473 6.99842 11.0898 6.99842 10.9313 7.15685L10.1188 7.96934C9.96039 8.12778 9.96039 8.38535 10.1188 8.54379C10.1985 8.62259 10.3024 8.66243 10.4065 8.66243C10.5105 8.66243 10.6144 8.62263 10.6933 8.54379L11.5058 7.7313C11.6642 7.57287 11.6642 7.31529 11.5058 7.15685Z" fill="url(#paint7_linear_1472_2276)"/>
<path d="M12.3183 4.71935C12.1598 4.56092 11.9023 4.56092 11.7438 4.71935L10.9313 5.53184C10.7729 5.69028 10.7729 5.94785 10.9313 6.10629C11.011 6.18509 11.1149 6.22493 11.219 6.22493C11.323 6.22493 11.4269 6.18513 11.5058 6.10629L12.3183 5.2938C12.4767 5.13537 12.4767 4.87779 12.3183 4.71935Z" fill="url(#paint8_linear_1472_2276)"/>
<defs>
<linearGradient id="paint0_linear_1472_2276" x1="0.25" y1="11.7432" x2="19.75" y2="11.7432" gradientUnits="userSpaceOnUse">
<stop stop-color="#2942CB"/>
<stop offset="1" stop-color="#273DB1"/>
</linearGradient>
<linearGradient id="paint1_linear_1472_2276" x1="1.06152" y1="15.7943" x2="18.9368" y2="15.7943" gradientUnits="userSpaceOnUse">
<stop stop-color="#2942CB"/>
<stop offset="1" stop-color="#273DB1"/>
</linearGradient>
<linearGradient id="paint2_linear_1472_2276" x1="4.31152" y1="19.0558" x2="5.9367" y2="19.0558" gradientUnits="userSpaceOnUse">
<stop stop-color="#2942CB"/>
<stop offset="1" stop-color="#273DB1"/>
</linearGradient>
<linearGradient id="paint3_linear_1472_2276" x1="14.0625" y1="19.0558" x2="15.6877" y2="19.0558" gradientUnits="userSpaceOnUse">
<stop stop-color="#2942CB"/>
<stop offset="1" stop-color="#273DB1"/>
</linearGradient>
<linearGradient id="paint4_linear_1472_2276" x1="14.0635" y1="6.87478" x2="18.1261" y2="6.87478" gradientUnits="userSpaceOnUse">
<stop stop-color="#2942CB"/>
<stop offset="1" stop-color="#273DB1"/>
</linearGradient>
<linearGradient id="paint5_linear_1472_2276" x1="11.625" y1="4.01218" x2="15.2816" y2="4.01218" gradientUnits="userSpaceOnUse">
<stop stop-color="#2942CB"/>
<stop offset="1" stop-color="#273DB1"/>
</linearGradient>
<linearGradient id="paint6_linear_1472_2276" x1="8.375" y1="6.38322" x2="9.99959" y2="6.38322" gradientUnits="userSpaceOnUse">
<stop stop-color="#2942CB"/>
<stop offset="1" stop-color="#273DB1"/>
</linearGradient>
<linearGradient id="paint7_linear_1472_2276" x1="10" y1="8.00815" x2="11.6246" y2="8.00815" gradientUnits="userSpaceOnUse">
<stop stop-color="#2942CB"/>
<stop offset="1" stop-color="#273DB1"/>
</linearGradient>
<linearGradient id="paint8_linear_1472_2276" x1="10.8125" y1="5.57065" x2="12.4371" y2="5.57065" gradientUnits="userSpaceOnUse">
<stop stop-color="#2942CB"/>
<stop offset="1" stop-color="#273DB1"/>
</linearGradient>
</defs>
</svg>
