<svg width="14" height="14" viewBox="0 0 14 14" fill="none" xmlns="http://www.w3.org/2000/svg">
<path d="M7.81738 0.0012207C7.16311 0.0012207 6.63086 0.559836 6.63086 1.21411C6.63086 1.86839 7.16311 2.427 7.81738 2.427C8.47166 2.427 9.00391 1.86839 9.00391 1.21411C9.00391 0.559836 8.47166 0.0012207 7.81738 0.0012207Z" fill="url(#paint0_linear_1449_9142)"/>
<path d="M12.5635 7.96411H9.00391V11.5237C9.00391 12.179 9.53513 12.7102 10.1904 12.7102H11.377V13.1057C11.377 13.3243 11.5539 13.5012 11.7725 13.5012C11.9911 13.5012 12.168 13.3243 12.168 13.1057V12.7102H12.5635C13.2188 12.7102 13.75 12.179 13.75 11.5237V9.15063C13.75 8.49533 13.2188 7.96411 12.5635 7.96411Z" fill="url(#paint1_linear_1449_9142)"/>
<path d="M1.04102 10.3372C0.604138 10.3372 0.25 10.6913 0.25 11.1282C0.25 11.565 0.604138 11.9192 1.04102 11.9192H1.83203V13.1057C1.83203 13.3243 2.00893 13.5012 2.22754 13.5012C2.44615 13.5012 2.62305 13.3243 2.62305 13.1057V11.9192H8.21289V10.3372H1.04102Z" fill="url(#paint2_linear_1449_9142)"/>
<path d="M2.22754 9.54614C2.88284 9.54614 3.41406 9.01492 3.41406 8.35962C3.41406 7.70432 2.88284 7.1731 2.22754 7.1731C1.57224 7.1731 1.04102 7.70432 1.04102 8.35962C1.04102 9.01492 1.57224 9.54614 2.22754 9.54614Z" fill="url(#paint3_linear_1449_9142)"/>
<path d="M4.205 7.96411C4.19111 7.96411 4.17951 7.97131 4.1658 7.97202C4.19084 8.0975 4.205 8.22689 4.205 8.35962C4.205 8.76821 4.08039 9.14826 3.86719 9.46382C3.98365 9.51962 4.04738 9.53958 4.28411 9.54614L8.21282 9.54448V7.96411H4.205Z" fill="url(#paint4_linear_1449_9142)"/>
<path d="M9.95863 2.65875C9.80646 2.50658 9.60407 2.43125 9.32133 2.43085C9.08458 2.45403 8.87291 2.58109 8.7412 2.77924L7.27582 4.97732L5.88226 5.6741C5.49029 5.86969 5.33177 6.34601 5.52807 6.73625C5.71886 7.1163 6.20668 7.28163 6.58906 7.08965L8.17186 6.29824C8.29433 6.23648 8.39901 6.14417 8.47547 6.02984L9.46269 4.54861C9.93893 5.28787 10.1904 6.14879 10.1904 7.03752V7.1731H11.7724V7.03752C11.7724 5.38327 11.1281 3.82826 9.95863 2.65875Z" fill="url(#paint5_linear_1449_9142)"/>
<defs>
<linearGradient id="paint0_linear_1449_9142" x1="6.63086" y1="1.44995" x2="9.00391" y2="1.44995" gradientUnits="userSpaceOnUse">
<stop stop-color="#2942CB"/>
<stop offset="1" stop-color="#273DB1"/>
</linearGradient>
<linearGradient id="paint1_linear_1449_9142" x1="9.00391" y1="11.271" x2="13.75" y2="11.271" gradientUnits="userSpaceOnUse">
<stop stop-color="#2942CB"/>
<stop offset="1" stop-color="#273DB1"/>
</linearGradient>
<linearGradient id="paint2_linear_1449_9142" x1="0.25" y1="12.2268" x2="8.21289" y2="12.2268" gradientUnits="userSpaceOnUse">
<stop stop-color="#2942CB"/>
<stop offset="1" stop-color="#273DB1"/>
</linearGradient>
<linearGradient id="paint3_linear_1449_9142" x1="1.04102" y1="8.59033" x2="3.41406" y2="8.59033" gradientUnits="userSpaceOnUse">
<stop stop-color="#2942CB"/>
<stop offset="1" stop-color="#273DB1"/>
</linearGradient>
<linearGradient id="paint4_linear_1449_9142" x1="3.86719" y1="8.90894" x2="8.21282" y2="8.90894" gradientUnits="userSpaceOnUse">
<stop stop-color="#2942CB"/>
<stop offset="1" stop-color="#273DB1"/>
</linearGradient>
<linearGradient id="paint5_linear_1449_9142" x1="5.44385" y1="5.26303" x2="11.7724" y2="5.26303" gradientUnits="userSpaceOnUse">
<stop stop-color="#2942CB"/>
<stop offset="1" stop-color="#273DB1"/>
</linearGradient>
</defs>
</svg>
