<svg width="18" height="18" viewBox="0 0 18 18" fill="none" xmlns="http://www.w3.org/2000/svg">
<path d="M16.0714 7.09305L13.3637 8.2532C13.2033 8.32226 13.0326 8.35742 12.8571 8.35742C12.6816 8.35742 12.5109 8.32226 12.3499 8.25289L9.64282 7.09277V8.35742C9.64282 8.601 9.78031 8.82355 9.99815 8.93247L12.5696 10.2182C12.66 10.2634 12.7585 10.286 12.8571 10.286C12.9557 10.286 13.0542 10.2634 13.1446 10.2182L15.7161 8.93247C15.9339 8.82355 16.0714 8.601 16.0714 8.35742V7.09305Z" fill="url(#paint0_linear_1377_3694)"/>
<path d="M17.6105 4.55212L13.1105 2.62355C12.9486 2.55387 12.7659 2.55387 12.6039 2.62355L8.1039 4.55212C7.86754 4.6532 7.71436 4.88579 7.71436 5.14287C7.71436 5.39995 7.86754 5.63255 8.1039 5.73362L12.6039 7.66219C12.6849 7.69703 12.7709 7.7143 12.8572 7.7143C12.9435 7.7143 13.0295 7.69703 13.1105 7.66219L16.7143 6.11771V9.64287C16.7143 9.99788 17.0022 10.2857 17.3572 10.2857C17.7122 10.2857 18.0001 9.99788 18.0001 9.64287V5.14287C18.0001 4.88579 17.8469 4.6532 17.6105 4.55212V4.55212Z" fill="url(#paint1_linear_1377_3694)"/>
<path d="M3.21421 5.14287H7.07135L8.93212 2.20038C9.04826 1.96759 9.0131 1.68764 8.84266 1.49094C8.6719 1.29456 8.40007 1.21946 8.15366 1.30209L6.69091 1.79004L5.67766 0.268674C5.4391 -0.0895581 4.84646 -0.0895581 4.6079 0.268674L3.59465 1.79004L2.1319 1.30209C1.88581 1.21946 1.61366 1.29456 1.4429 1.49094C1.27246 1.68764 1.2373 1.96759 1.35344 2.20038L3.21421 5.14287Z" fill="url(#paint2_linear_1377_3694)"/>
<path d="M7.07142 5.78613H3.21428C1.44231 7.28047 0 10.5948 0 12.8524C0 16.2201 1.77853 18.0004 5.14285 18.0004C8.50718 18.0004 10.2857 16.2201 10.2857 12.8524C10.2857 10.5948 8.8434 7.28047 7.07142 5.78613V5.78613ZM5.14285 11.2504C6.20633 11.2504 7.07142 12.1155 7.07142 13.179C7.07142 14.1324 6.3745 14.9209 5.46428 15.0751V15.7504C5.46428 15.9281 5.32052 16.0718 5.14285 16.0718C4.96519 16.0718 4.82142 15.9281 4.82142 15.7504V15.0751C3.91121 14.9209 3.21428 14.1324 3.21428 13.179C3.21428 13.0013 3.35805 12.8576 3.53571 12.8576C3.71337 12.8576 3.85714 13.0013 3.85714 13.179C3.85714 13.8881 4.43376 14.4647 5.14285 14.4647C5.85194 14.4647 6.42856 13.8881 6.42856 13.179C6.42856 12.4699 5.85194 11.8933 5.14285 11.8933C4.07938 11.8933 3.21428 11.0282 3.21428 9.9647C3.21428 9.01128 3.91121 8.22274 4.82142 8.06862V7.39327C4.82142 7.21561 4.96519 7.07185 5.14285 7.07185C5.32052 7.07185 5.46428 7.21561 5.46428 7.39327V8.06862C6.3745 8.22274 7.07142 9.01128 7.07142 9.9647C7.07142 10.1424 6.92766 10.2861 6.74999 10.2861C6.57233 10.2861 6.42856 10.1424 6.42856 9.9647C6.42856 9.25561 5.85194 8.67899 5.14285 8.67899C4.43376 8.67899 3.85714 9.25561 3.85714 9.9647C3.85714 10.6738 4.43376 11.2504 5.14285 11.2504Z" fill="url(#paint3_linear_1377_3694)"/>
<defs>
<linearGradient id="paint0_linear_1377_3694" x1="9.64282" y1="8.99983" x2="16.0714" y2="8.99983" gradientUnits="userSpaceOnUse">
<stop stop-color="#2942CB"/>
<stop offset="1" stop-color="#273DB1"/>
</linearGradient>
<linearGradient id="paint1_linear_1377_3694" x1="7.71436" y1="7.17852" x2="18.0001" y2="7.17852" gradientUnits="userSpaceOnUse">
<stop stop-color="#2942CB"/>
<stop offset="1" stop-color="#273DB1"/>
</linearGradient>
<linearGradient id="paint2_linear_1377_3694" x1="1.28564" y1="3.07144" x2="8.99992" y2="3.07144" gradientUnits="userSpaceOnUse">
<stop stop-color="#2942CB"/>
<stop offset="1" stop-color="#273DB1"/>
</linearGradient>
<linearGradient id="paint3_linear_1377_3694" x1="-1.31863e-08" y1="13.0808" x2="10.2857" y2="13.0808" gradientUnits="userSpaceOnUse">
<stop stop-color="#2942CB"/>
<stop offset="1" stop-color="#273DB1"/>
</linearGradient>
</defs>
</svg>
