<svg width="35" height="34" viewBox="0 0 35 34" fill="none" xmlns="http://www.w3.org/2000/svg">
<path d="M7.88628 27.625H8.15191V28.6875C8.15191 29.274 8.62685 29.75 9.21442 29.75C9.802 29.75 10.2769 29.274 10.2769 28.6875V27.625H25.1522V28.6875C25.1522 29.274 25.6271 29.75 26.2147 29.75C26.8023 29.75 27.2772 29.274 27.2772 28.6875V27.625H27.5428C29.1547 27.625 30.4648 26.3149 30.4648 24.7031V20.9843C30.4648 19.3724 29.1547 18.0623 27.5428 18.0623H18.7771V10.7575C18.7771 10.171 18.3021 9.69501 17.7146 9.69501C17.127 9.69501 16.652 10.171 16.652 10.7575V18.0623H7.88628C6.27444 18.0623 4.96436 19.3724 4.96436 20.9843V24.7031C4.96436 26.3149 6.27444 27.625 7.88628 27.625ZM25.6834 21.2499C26.5632 21.2499 27.2772 21.9639 27.2772 22.8437C27.2772 23.7234 26.5632 24.4374 25.6834 24.4374C24.8037 24.4374 24.0897 23.7234 24.0897 22.8437C24.0897 21.9639 24.8037 21.2499 25.6834 21.2499ZM15.0583 21.2499C15.938 21.2499 16.652 21.9639 16.652 22.8437C16.652 23.7234 15.938 24.4374 15.0583 24.4374C14.1785 24.4374 13.4645 23.7234 13.4645 22.8437C13.4645 21.9639 14.1785 21.2499 15.0583 21.2499ZM9.74568 21.2499C10.6254 21.2499 11.3395 21.9639 11.3395 22.8437C11.3395 23.7234 10.6254 24.4374 9.74568 24.4374C8.86592 24.4374 8.15191 23.7234 8.15191 22.8437C8.15191 21.9639 8.86592 21.2499 9.74568 21.2499Z" fill="url(#paint0_linear_1226_28605)"/>
<path d="M20.2432 12.244C20.6045 12.4979 21.1017 12.4076 21.3525 12.0485C21.7531 11.4769 21.9645 10.8011 21.9645 10.0935C21.9645 9.38582 21.7531 8.71006 21.3525 8.13843C21.1017 7.77717 20.6045 7.69004 20.2432 7.94292C19.882 8.1958 19.7948 8.692 20.0467 9.05219C20.2592 9.35501 20.3707 9.7152 20.3707 10.0935C20.3707 10.4717 20.2592 10.8319 20.0467 11.1347C19.7948 11.4949 19.882 11.9922 20.2432 12.244V12.244Z" fill="url(#paint1_linear_1226_28605)"/>
<path d="M22.8868 14.0556C23.247 14.3031 23.7442 14.2107 23.9939 13.8462C24.7515 12.7348 25.1521 11.4365 25.1521 10.0934C25.1521 8.75041 24.7515 7.45201 23.9939 6.34062C23.7463 5.9783 23.2512 5.88268 22.8868 6.13131C22.5223 6.37887 22.4278 6.87507 22.6764 7.23845C23.2533 8.08421 23.5583 9.07235 23.5583 10.0934C23.5583 11.1145 23.2533 12.1027 22.6764 12.9495C22.4288 13.3129 22.5223 13.8091 22.8868 14.0556V14.0556Z" fill="url(#paint2_linear_1226_28605)"/>
<path d="M25.5051 15.7949C25.8706 16.0467 26.3647 15.9543 26.6144 15.5941C27.7428 13.9674 28.3399 12.0644 28.3399 10.0934C28.3399 8.12246 27.7428 6.21949 26.6144 4.59278C26.3647 4.23152 25.8706 4.14121 25.5051 4.39196C25.1439 4.64272 25.0536 5.13891 25.3054 5.50017C26.2478 6.86019 26.7461 8.44865 26.7461 10.0934C26.7461 11.7382 26.2478 13.3267 25.3054 14.6867C25.0536 15.0479 25.1439 15.5441 25.5051 15.7949Z" fill="url(#paint3_linear_1226_28605)"/>
<path d="M15.1856 7.9429C14.8244 7.68896 14.3282 7.77715 14.0764 8.1384C13.6758 8.71004 13.4644 9.3858 13.4644 10.0934C13.4644 10.8011 13.6758 11.4768 14.0764 12.0485C14.3271 12.4076 14.8244 12.4979 15.1856 12.244C15.5469 11.9922 15.634 11.4949 15.3822 11.1347C15.1697 10.8319 15.0581 10.4717 15.0581 10.0934C15.0581 9.71518 15.1697 9.35498 15.3822 9.05217C15.634 8.69197 15.5469 8.19472 15.1856 7.9429V7.9429Z" fill="url(#paint4_linear_1226_28605)"/>
<path d="M12.5421 6.13128C12.1788 5.88265 11.6826 5.97722 11.435 6.3406C10.6774 7.45199 10.2769 8.75039 10.2769 10.0934C10.2769 11.4364 10.6774 12.7348 11.435 13.8462C11.6847 14.2117 12.1819 14.3031 12.5421 14.0555C12.9066 13.808 13.0011 13.3118 12.7525 12.9484C12.1756 12.1026 11.8706 11.1145 11.8706 10.0934C11.8706 9.07233 12.1756 8.08419 12.7525 7.23736C13.0001 6.87398 12.9066 6.37779 12.5421 6.13128Z" fill="url(#paint5_linear_1226_28605)"/>
<path d="M9.92415 4.39196C9.56077 4.14121 9.06564 4.23152 8.81488 4.59278C7.68649 6.21949 7.08936 8.12246 7.08936 10.0934C7.08936 12.0644 7.68649 13.9674 8.81488 15.5941C9.06458 15.9543 9.55865 16.0467 9.92415 15.7949C10.2854 15.5441 10.3757 15.0479 10.1239 14.6867C9.18145 13.3267 8.68313 11.7382 8.68313 10.0934C8.68313 8.44865 9.18145 6.86019 10.1239 5.50017C10.3757 5.13891 10.2854 4.64272 9.92415 4.39196V4.39196Z" fill="url(#paint6_linear_1226_28605)"/>
<defs>
<linearGradient id="paint0_linear_1226_28605" x1="4.96436" y1="21.6723" x2="30.4648" y2="21.6723" gradientUnits="userSpaceOnUse">
<stop stop-color="#2942CB"/>
<stop offset="1" stop-color="#273DB1"/>
</linearGradient>
<linearGradient id="paint1_linear_1226_28605" x1="19.9028" y1="10.5397" x2="21.9645" y2="10.5397" gradientUnits="userSpaceOnUse">
<stop stop-color="#2942CB"/>
<stop offset="1" stop-color="#273DB1"/>
</linearGradient>
<linearGradient id="paint2_linear_1226_28605" x1="22.5376" y1="10.8908" x2="25.1521" y2="10.8908" gradientUnits="userSpaceOnUse">
<stop stop-color="#2942CB"/>
<stop offset="1" stop-color="#273DB1"/>
</linearGradient>
<linearGradient id="paint3_linear_1226_28605" x1="25.1626" y1="11.2298" x2="28.3399" y2="11.2298" gradientUnits="userSpaceOnUse">
<stop stop-color="#2942CB"/>
<stop offset="1" stop-color="#273DB1"/>
</linearGradient>
<linearGradient id="paint4_linear_1226_28605" x1="13.4644" y1="10.5395" x2="15.526" y2="10.5395" gradientUnits="userSpaceOnUse">
<stop stop-color="#2942CB"/>
<stop offset="1" stop-color="#273DB1"/>
</linearGradient>
<linearGradient id="paint5_linear_1226_28605" x1="10.2769" y1="10.8909" x2="12.8913" y2="10.8909" gradientUnits="userSpaceOnUse">
<stop stop-color="#2942CB"/>
<stop offset="1" stop-color="#273DB1"/>
</linearGradient>
<linearGradient id="paint6_linear_1226_28605" x1="7.08936" y1="11.2298" x2="10.2667" y2="11.2298" gradientUnits="userSpaceOnUse">
<stop stop-color="#2942CB"/>
<stop offset="1" stop-color="#273DB1"/>
</linearGradient>
</defs>
</svg>
