<svg width="21" height="21" viewBox="0 0 21 21" fill="none" xmlns="http://www.w3.org/2000/svg">
<path d="M16.4267 15.235C16.7633 15.235 17.0361 14.9622 17.0361 14.6256C17.0361 14.2891 16.7633 14.0163 16.4267 14.0163C16.0902 14.0163 15.8174 14.2891 15.8174 14.6256C15.8174 14.9622 16.0902 15.235 16.4267 15.235Z" fill="url(#paint0_linear_1472_1905)"/>
<path d="M3.63037 9.14148H10.9426V15.235H3.63037V9.14148Z" fill="url(#paint1_linear_1472_1905)"/>
<path d="M16.4267 10.3602C16.7633 10.3602 17.0361 10.0874 17.0361 9.75083C17.0361 9.41429 16.7633 9.14148 16.4267 9.14148C16.0902 9.14148 15.8174 9.41429 15.8174 9.75083C15.8174 10.0874 16.0902 10.3602 16.4267 10.3602Z" fill="url(#paint2_linear_1472_1905)"/>
<path d="M18.2546 5.48541H2.41155C1.92688 5.48594 1.46222 5.67871 1.11951 6.02142C0.776797 6.36413 0.584028 6.8288 0.583496 7.31346L0.583496 17.0631C0.584028 17.5477 0.776797 18.0124 1.11951 18.3551C1.46222 18.6978 1.92688 18.8906 2.41155 18.8911H18.2546C18.7393 18.8906 19.204 18.6978 19.5467 18.3551C19.8894 18.0124 20.0822 17.5477 20.0827 17.0631V7.31346C20.0822 6.8288 19.8894 6.36413 19.5467 6.02142C19.204 5.67871 18.7393 5.48594 18.2546 5.48541V5.48541ZM12.1611 15.8444C12.1611 16.006 12.0969 16.161 11.9827 16.2752C11.8684 16.3895 11.7134 16.4537 11.5518 16.4537H3.0209C2.85929 16.4537 2.7043 16.3895 2.59002 16.2752C2.47575 16.161 2.41155 16.006 2.41155 15.8444V8.53216C2.41155 8.37055 2.47575 8.21556 2.59002 8.10129C2.7043 7.98701 2.85929 7.92281 3.0209 7.92281H11.5518C11.7134 7.92281 11.8684 7.98701 11.9827 8.10129C12.0969 8.21556 12.1611 8.37055 12.1611 8.53216V15.8444ZM16.4266 16.4537C16.065 16.4537 15.7116 16.3465 15.411 16.1456C15.1104 15.9448 14.8761 15.6593 14.7377 15.3252C14.5993 14.9912 14.5631 14.6236 14.6337 14.269C14.7042 13.9144 14.8783 13.5887 15.134 13.333C15.3896 13.0774 15.7154 12.9033 16.07 12.8327C16.4246 12.7622 16.7921 12.7984 17.1262 12.9368C17.4602 13.0751 17.7457 13.3094 17.9466 13.6101C18.1474 13.9107 18.2546 14.2641 18.2546 14.6257C18.2541 15.1103 18.0613 15.575 17.7186 15.9177C17.3759 16.2604 16.9113 16.4532 16.4266 16.4537ZM16.4266 11.5789C16.065 11.5789 15.7116 11.4717 15.411 11.2708C15.1104 11.07 14.8761 10.7845 14.7377 10.4504C14.5993 10.1164 14.5631 9.74883 14.6337 9.39423C14.7042 9.03962 14.8783 8.71389 15.134 8.45824C15.3896 8.20258 15.7154 8.02847 16.07 7.95794C16.4246 7.8874 16.7921 7.9236 17.1262 8.06196C17.4602 8.20033 17.7457 8.43463 17.9466 8.73525C18.1474 9.03587 18.2546 9.38931 18.2546 9.75086C18.2541 10.2355 18.0613 10.7002 17.7186 11.0429C17.3759 11.3856 16.9113 11.5784 16.4266 11.5789V11.5789Z" fill="url(#paint3_linear_1472_1905)"/>
<path d="M10.6925 4.26671H5.09863C5.18908 4.06728 5.29931 3.87743 5.42768 3.70001C5.6679 3.36835 5.97256 3.08857 6.32343 2.87739C6.7976 2.59039 7.34129 2.43866 7.89555 2.43866C8.44981 2.43866 8.9935 2.59039 9.46767 2.87739C9.81854 3.08857 10.1232 3.36835 10.3634 3.70001C10.4918 3.87743 10.602 4.06728 10.6925 4.26671Z" fill="url(#paint4_linear_1472_1905)"/>
<path d="M6.65859 4.13874C6.59589 4.19716 6.52095 4.24088 6.43923 4.2667H6.06752C5.96274 4.24223 5.86869 4.18451 5.79941 4.10218L5.42771 3.70001L3.52654 1.63431C3.41664 1.51553 3.35843 1.35795 3.36472 1.19625C3.371 1.03455 3.44127 0.881974 3.56005 0.77208C3.67883 0.662185 3.83641 0.603978 3.99811 0.610263C4.15981 0.616548 4.31239 0.686811 4.42228 0.805594L6.32345 2.87738L6.69515 3.27956C6.74924 3.33833 6.79121 3.4072 6.81865 3.48222C6.84609 3.55723 6.85847 3.63692 6.85508 3.71673C6.85168 3.79654 6.83258 3.87489 6.79886 3.9473C6.76515 4.01972 6.71748 4.08477 6.65859 4.13874V4.13874Z" fill="url(#paint5_linear_1472_1905)"/>
<path d="M12.2646 1.63431L10.3635 3.70001L9.99176 4.10218C9.92375 4.18304 9.83212 4.24058 9.72974 4.2667H9.35194C9.27022 4.24088 9.19528 4.19716 9.13258 4.13874C9.07369 4.08477 9.02602 4.01972 8.99231 3.9473C8.95859 3.87489 8.93949 3.79654 8.9361 3.71673C8.9327 3.63692 8.94508 3.55723 8.97252 3.48222C8.99996 3.4072 9.04193 3.33833 9.09602 3.27956L9.46772 2.87738L11.3689 0.805594C11.4788 0.686811 11.6314 0.616548 11.7931 0.610263C11.9548 0.603978 12.1123 0.662185 12.2311 0.77208C12.3499 0.881974 12.4202 1.03455 12.4265 1.19625C12.4327 1.35795 12.3745 1.51553 12.2646 1.63431V1.63431Z" fill="url(#paint6_linear_1472_1905)"/>
<path d="M3.02097 20.1098C2.85936 20.1098 2.70437 20.0456 2.5901 19.9313C2.47582 19.8171 2.41162 19.6621 2.41162 19.5005V17.6724C2.41162 17.5108 2.47582 17.3558 2.5901 17.2415C2.70437 17.1272 2.85936 17.063 3.02097 17.063C3.18258 17.063 3.33757 17.1272 3.45185 17.2415C3.56612 17.3558 3.63032 17.5108 3.63032 17.6724V19.5005C3.63032 19.6621 3.56612 19.8171 3.45185 19.9313C3.33757 20.0456 3.18258 20.1098 3.02097 20.1098Z" fill="url(#paint7_linear_1472_1905)"/>
<path d="M17.6455 20.1098C17.4839 20.1098 17.3289 20.0456 17.2146 19.9313C17.1003 19.8171 17.0361 19.6621 17.0361 19.5005V17.6724C17.0361 17.5108 17.1003 17.3558 17.2146 17.2415C17.3289 17.1272 17.4839 17.063 17.6455 17.063C17.8071 17.063 17.9621 17.1272 18.0764 17.2415C18.1906 17.3558 18.2548 17.5108 18.2548 17.6724V19.5005C18.2548 19.6621 18.1906 19.8171 18.0764 19.9313C17.9621 20.0456 17.8071 20.1098 17.6455 20.1098Z" fill="url(#paint8_linear_1472_1905)"/>
<defs>
<linearGradient id="paint0_linear_1472_1905" x1="15.8174" y1="14.7441" x2="17.0361" y2="14.7441" gradientUnits="userSpaceOnUse">
<stop stop-color="#2942CB"/>
<stop offset="1" stop-color="#273DB1"/>
</linearGradient>
<linearGradient id="paint1_linear_1472_1905" x1="3.63037" y1="12.7807" x2="10.9426" y2="12.7807" gradientUnits="userSpaceOnUse">
<stop stop-color="#2942CB"/>
<stop offset="1" stop-color="#273DB1"/>
</linearGradient>
<linearGradient id="paint2_linear_1472_1905" x1="15.8174" y1="9.86931" x2="17.0361" y2="9.86931" gradientUnits="userSpaceOnUse">
<stop stop-color="#2942CB"/>
<stop offset="1" stop-color="#273DB1"/>
</linearGradient>
<linearGradient id="paint3_linear_1472_1905" x1="0.583496" y1="13.4916" x2="20.0827" y2="13.4916" gradientUnits="userSpaceOnUse">
<stop stop-color="#2942CB"/>
<stop offset="1" stop-color="#273DB1"/>
</linearGradient>
<linearGradient id="paint4_linear_1472_1905" x1="5.09863" y1="3.53041" x2="10.6925" y2="3.53041" gradientUnits="userSpaceOnUse">
<stop stop-color="#2942CB"/>
<stop offset="1" stop-color="#273DB1"/>
</linearGradient>
<linearGradient id="paint5_linear_1472_1905" x1="3.36426" y1="2.79378" x2="6.85562" y2="2.79378" gradientUnits="userSpaceOnUse">
<stop stop-color="#2942CB"/>
<stop offset="1" stop-color="#273DB1"/>
</linearGradient>
<linearGradient id="paint6_linear_1472_1905" x1="8.93555" y1="2.79378" x2="12.4269" y2="2.79378" gradientUnits="userSpaceOnUse">
<stop stop-color="#2942CB"/>
<stop offset="1" stop-color="#273DB1"/>
</linearGradient>
<linearGradient id="paint7_linear_1472_1905" x1="2.41162" y1="18.8826" x2="3.63032" y2="18.8826" gradientUnits="userSpaceOnUse">
<stop stop-color="#2942CB"/>
<stop offset="1" stop-color="#273DB1"/>
</linearGradient>
<linearGradient id="paint8_linear_1472_1905" x1="17.0361" y1="18.8826" x2="18.2548" y2="18.8826" gradientUnits="userSpaceOnUse">
<stop stop-color="#2942CB"/>
<stop offset="1" stop-color="#273DB1"/>
</linearGradient>
</defs>
</svg>
