<svg width="20" height="18" viewBox="0 0 20 18" fill="none" xmlns="http://www.w3.org/2000/svg">
<path d="M17.16 0H15.36V1.8C15.36 2.16 15.06 2.4 14.76 2.4C14.46 2.4 14.16 2.16 14.16 1.8V0H4.56002V1.8C4.56002 2.16 4.25999 2.4 3.96001 2.4C3.65999 2.4 3.36 2.16 3.36 1.8V0H1.56C0.66 0 0 0.779998 0 1.8V3.96001H19.2V1.8C19.2 0.779998 18.12 0 17.16 0ZM0 5.21999V16.2C0 17.28 0.66 18 1.62 18H17.22C18.18 18 19.26 17.22 19.26 16.2V5.21999H0ZM5.34 15.3H3.90001C3.65999 15.3 3.42001 15.12 3.42001 14.82V13.32C3.42001 13.08 3.60002 12.84 3.90001 12.84H5.40001C5.64002 12.84 5.88 13.02 5.88 13.32V14.82C5.82 15.12 5.64002 15.3 5.34 15.3ZM5.34 9.9H3.90001C3.65999 9.9 3.42001 9.72002 3.42001 9.42V7.92C3.42001 7.68002 3.60002 7.44 3.90001 7.44H5.40001C5.64002 7.44 5.88 7.62002 5.88 7.92V9.42C5.82 9.72002 5.64002 9.9 5.34 9.9ZM10.14 15.3H8.64002C8.4 15.3 8.16002 15.12 8.16002 14.82V13.32C8.16002 13.08 8.34 12.84 8.64002 12.84H10.14C10.38 12.84 10.62 13.02 10.62 13.32V14.82C10.62 15.12 10.44 15.3 10.14 15.3ZM10.14 9.9H8.64002C8.4 9.9 8.16002 9.72002 8.16002 9.42V7.92C8.16002 7.68002 8.34 7.44 8.64002 7.44H10.14C10.38 7.44 10.62 7.62002 10.62 7.92V9.42C10.62 9.72002 10.44 9.9 10.14 9.9ZM14.94 15.3H13.44C13.2 15.3 12.96 15.12 12.96 14.82V13.32C12.96 13.08 13.14 12.84 13.44 12.84H14.94C15.18 12.84 15.42 13.02 15.42 13.32V14.82C15.42 15.12 15.24 15.3 14.94 15.3ZM14.94 9.9H13.44C13.2 9.9 12.96 9.72002 12.96 9.42V7.92C12.96 7.68002 13.14 7.44 13.44 7.44H14.94C15.18 7.44 15.42 7.62002 15.42 7.92V9.42C15.42 9.72002 15.24 9.9 14.94 9.9Z" fill="url(#paint0_linear_1314_18474)"/>
<defs>
<linearGradient id="paint0_linear_1314_18474" x1="-2.46914e-08" y1="10.75" x2="19.26" y2="10.75" gradientUnits="userSpaceOnUse">
<stop stop-color="#2942CB"/>
<stop offset="1" stop-color="#273DB1"/>
</linearGradient>
</defs>
</svg>
