<svg width="19" height="23" viewBox="0 0 19 23" fill="none" xmlns="http://www.w3.org/2000/svg">
<path d="M9.17148 8.10391L7.31091 9.77325C7.55516 10.6157 7.89879 11.4261 8.33456 12.1873C8.78811 12.9432 9.33373 13.64 9.95891 14.2616L12.3684 13.5191C13.7183 13.1029 15.1919 13.5304 16.0896 14.599L17.4619 16.2324C18.0176 16.8881 18.2961 17.7343 18.2386 18.5918C18.1811 19.4494 17.792 20.2508 17.1537 20.8264C14.9152 22.8692 11.4685 23.5599 8.88801 21.5329C6.62007 19.7471 4.70112 17.5581 3.22756 15.076C1.75077 12.6055 0.762442 9.87423 0.316347 7.03077C-0.178605 3.83158 2.16342 1.27133 5.08363 0.398419C6.82496 -0.12353 8.68328 0.771882 9.32222 2.44122L10.0759 4.40978C10.5708 5.70565 10.2154 7.16576 9.17148 8.10167V8.10391Z" fill="url(#paint0_linear_1529_22503)"/>
<defs>
<linearGradient id="paint0_linear_1529_22503" x1="0.25" y1="13.6875" x2="18.246" y2="13.6875" gradientUnits="userSpaceOnUse">
<stop stop-color="#2942CB"/>
<stop offset="1" stop-color="#273DB1"/>
</linearGradient>
</defs>
</svg>
