<svg width="35" height="34" viewBox="0 0 35 34" fill="none" xmlns="http://www.w3.org/2000/svg">
<path d="M27.7558 13.5942L15.8676 25.4825C15.3303 26.0197 14.4593 26.0197 13.9221 25.4825L6.9263 18.4867C6.38915 17.9494 6.38915 17.0784 6.9263 16.5412L18.8145 4.65286C19.3518 4.11571 20.2228 4.11571 20.76 4.65286L27.7558 11.6487C28.2931 12.1858 28.2931 13.057 27.7558 13.5942V13.5942Z" fill="url(#paint0_linear_1226_28588)"/>
<path d="M27.7556 11.6487L26.8827 10.7755C27.3611 11.2539 27.3132 12.0772 26.7761 12.6144L14.8877 24.5028C14.3506 25.0401 13.5272 25.0878 13.0488 24.6094L13.922 25.4825C14.4591 26.0197 15.3301 26.0197 15.8675 25.4825L27.7556 13.5942C28.293 13.057 28.293 12.1858 27.7556 11.6487V11.6487Z" fill="url(#paint1_linear_1226_28588)"/>
<path d="M9.2125 17.9974C9.11678 17.9974 9.02126 17.9608 8.9483 17.8879C8.80239 17.742 8.80239 17.5056 8.9483 17.3597L14.7714 11.5366C14.9173 11.3907 15.1539 11.3907 15.2996 11.5366C15.4455 11.6825 15.4455 11.9191 15.2996 12.0648L9.4765 17.8881C9.40355 17.9608 9.30802 17.9974 9.2125 17.9974Z" fill="white"/>
<path d="M11.0626 19.848C10.9669 19.848 10.8714 19.8114 10.7984 19.7385C10.6525 19.5926 10.6525 19.3562 10.7984 19.2103L16.6215 13.3872C16.7674 13.2413 17.004 13.2413 17.1497 13.3872C17.2956 13.5331 17.2956 13.7697 17.1497 13.9154L11.3266 19.7385C11.2536 19.8114 11.1581 19.848 11.0626 19.848Z" fill="white"/>
<path d="M18.6203 7.36258L17.4553 8.52735C16.9973 8.98532 16.9973 9.72772 17.4553 10.1857C17.9133 10.6437 18.6559 10.6437 19.1138 10.1857L20.2786 9.02092C20.7366 8.56295 20.7366 7.82055 20.2786 7.36258C19.8206 6.90461 19.078 6.90461 18.6203 7.36258V7.36258Z" fill="white"/>
<path d="M28.8782 17.105H12.0656C11.3059 17.105 10.6899 17.721 10.6899 18.4807V28.3743C10.6899 29.1341 11.3059 29.75 12.0656 29.75H28.8782C29.6381 29.75 30.2539 29.1341 30.2539 28.3743V18.4807C30.2541 17.721 29.6381 17.105 28.8782 17.105V17.105Z" fill="url(#paint2_linear_1226_28588)"/>
<path d="M28.8783 17.105H27.647C28.4067 17.105 29.0226 17.721 29.0226 18.4807V28.3743C29.0226 29.1341 28.4067 29.75 27.647 29.75H28.8783C29.6382 29.75 30.2539 29.1341 30.2539 28.3743V18.4807C30.2541 17.721 29.6382 17.105 28.8783 17.105V17.105Z" fill="url(#paint3_linear_1226_28588)"/>
<path d="M10.6899 20.2132H30.2541V22.59H10.6899V20.2132Z" fill="white"/>
<path d="M29.0229 20.2132H30.2543V22.59H29.0229V20.2132Z" fill="white"/>
<path d="M25.4458 26.3878V27.8537C25.4458 27.9672 25.5376 28.059 25.6511 28.059H27.9827C28.0962 28.059 28.188 27.9672 28.188 27.8537V26.3878C28.188 26.2744 28.0962 26.1826 27.9827 26.1826H25.6511C25.5376 26.1826 25.4458 26.2744 25.4458 26.3878V26.3878Z" fill="#E9E9EA"/>
<path d="M18.4155 26.3878V27.8537C18.4155 27.9672 18.5075 28.059 18.6208 28.059H23.5526C23.666 28.059 23.7579 27.9672 23.7579 27.8537V26.3878C23.7579 26.2744 23.666 26.1826 23.5526 26.1826H18.6208C18.5075 26.1826 18.4155 26.2744 18.4155 26.3878V26.3878Z" fill="#E9E9EA"/>
<path d="M16.4052 28.4325H13.9482C13.7418 28.4325 13.5747 28.2652 13.5747 28.059C13.5747 27.8525 13.7418 27.6854 13.9482 27.6854H16.4052C16.6116 27.6854 16.7787 27.8525 16.7787 28.059C16.7787 28.2652 16.6116 28.4325 16.4052 28.4325Z" fill="white"/>
<defs>
<linearGradient id="paint0_linear_1226_28588" x1="6.52344" y1="17.1711" x2="28.1588" y2="17.1711" gradientUnits="userSpaceOnUse">
<stop stop-color="#2942CB"/>
<stop offset="1" stop-color="#273DB1"/>
</linearGradient>
<linearGradient id="paint1_linear_1226_28588" x1="13.0488" y1="19.7995" x2="28.1586" y2="19.7995" gradientUnits="userSpaceOnUse">
<stop stop-color="#2942CB"/>
<stop offset="1" stop-color="#273DB1"/>
</linearGradient>
<linearGradient id="paint2_linear_1226_28588" x1="10.6899" y1="24.6569" x2="30.2539" y2="24.6569" gradientUnits="userSpaceOnUse">
<stop stop-color="#2942CB"/>
<stop offset="1" stop-color="#273DB1"/>
</linearGradient>
<linearGradient id="paint3_linear_1226_28588" x1="27.647" y1="24.6569" x2="30.2539" y2="24.6569" gradientUnits="userSpaceOnUse">
<stop stop-color="#2942CB"/>
<stop offset="1" stop-color="#273DB1"/>
</linearGradient>
</defs>
</svg>
