<svg width="44" height="38" viewBox="0 0 44 38" fill="none" xmlns="http://www.w3.org/2000/svg">
<path d="M18.9172 10.9628V8.28418H2.84517C1.36923 8.28418 0.166504 9.4869 0.166504 10.9628V16.3202H19.4824C19.11 14.6835 18.9172 12.921 18.9172 10.9628Z" fill="url(#paint0_linear_1377_880)"/>
<path d="M42.9153 21.6777C41.0885 24.493 38.3027 26.8877 34.3115 29.1807C33.6981 29.5316 33.007 29.7137 32.3105 29.7137C31.6141 29.7137 30.923 29.5316 30.3176 29.186C26.3264 26.8877 23.5406 24.4903 21.711 21.6777H0.166504V35.0711C0.166504 36.5497 1.36923 37.7497 2.84517 37.7497H40.3465C41.8251 37.7497 43.0252 36.5497 43.0252 35.0711V21.6777H42.9153V21.6777ZM12.2205 29.7137H6.86317C6.12386 29.7137 5.52384 29.1137 5.52384 28.3744C5.52384 27.6351 6.12386 27.0351 6.86317 27.0351H12.2205C12.9598 27.0351 13.5598 27.6351 13.5598 28.3744C13.5598 29.1137 12.9598 29.7137 12.2205 29.7137Z" fill="url(#paint1_linear_1377_880)"/>
<path d="M42.2134 4.37649L32.8381 0.358486C32.4979 0.213838 32.1202 0.213838 31.78 0.358486L22.4047 4.37649C21.9145 4.58542 21.5957 5.07026 21.5957 5.606V10.9633C21.5957 18.3323 24.3199 22.6396 31.6434 26.8585C31.8496 26.9764 32.08 27.0353 32.3104 27.0353C32.5407 27.0353 32.7711 26.9764 32.9774 26.8585C40.3008 22.6504 43.025 18.3431 43.025 10.9633V5.606C43.025 5.07026 42.7063 4.58542 42.2134 4.37649ZM37.3757 10.4624L32.0184 17.1591C31.7612 17.4752 31.3755 17.66 30.971 17.66C30.9523 17.66 30.9309 17.66 30.9148 17.66C30.4889 17.6412 30.0951 17.4216 29.8567 17.0653L27.178 13.0473C26.7682 12.4312 26.9343 11.6009 27.5504 11.191C28.1611 10.7839 28.9942 10.9446 29.4067 11.5634L31.0701 14.0572L35.281 8.79093C35.7444 8.21502 36.5882 8.12394 37.1641 8.58199C37.7427 9.04005 37.8338 9.88383 37.3757 10.4624Z" fill="url(#paint2_linear_1377_880)"/>
<defs>
<linearGradient id="paint0_linear_1377_880" x1="0.166504" y1="13.0835" x2="19.4824" y2="13.0835" gradientUnits="userSpaceOnUse">
<stop stop-color="#2942CB"/>
<stop offset="1" stop-color="#273DB1"/>
</linearGradient>
<linearGradient id="paint1_linear_1377_880" x1="0.166504" y1="31.2763" x2="43.0252" y2="31.2763" gradientUnits="userSpaceOnUse">
<stop stop-color="#2942CB"/>
<stop offset="1" stop-color="#273DB1"/>
</linearGradient>
<linearGradient id="paint2_linear_1377_880" x1="21.5957" y1="16.2468" x2="43.025" y2="16.2468" gradientUnits="userSpaceOnUse">
<stop stop-color="#2942CB"/>
<stop offset="1" stop-color="#273DB1"/>
</linearGradient>
</defs>
</svg>
