<svg width="21" height="18" viewBox="0 0 21 18" fill="none" xmlns="http://www.w3.org/2000/svg">
<path d="M9.00032 5.14221V3.85645H1.28576C0.577306 3.85645 0 4.43375 0 5.14221V7.71373H9.27162C9.09289 6.92813 9.00032 6.0821 9.00032 5.14221Z" fill="url(#paint0_linear_1377_26495)"/>
<path d="M20.5194 10.2852C19.6426 11.6365 18.3054 12.786 16.3896 13.8866C16.0951 14.055 15.7634 14.1424 15.4291 14.1424C15.0948 14.1424 14.7631 14.055 14.4725 13.8891C12.5567 12.786 11.2195 11.6352 10.3414 10.2852H0V16.714C0 17.4237 0.577306 17.9997 1.28576 17.9997H19.2864C19.9961 17.9997 20.5722 17.4237 20.5722 16.714V10.2852H20.5194ZM5.78592 14.1424H3.2144C2.85953 14.1424 2.57152 13.8544 2.57152 13.4996C2.57152 13.1447 2.85953 12.8567 3.2144 12.8567H5.78592C6.14079 12.8567 6.4288 13.1447 6.4288 13.4996C6.4288 13.8544 6.14079 14.1424 5.78592 14.1424Z" fill="url(#paint1_linear_1377_26495)"/>
<path d="M20.1826 1.98071L15.6825 0.0520733C15.5192 -0.0173578 15.3379 -0.0173578 15.1746 0.0520733L10.6744 1.98071C10.4391 2.081 10.2861 2.31373 10.2861 2.57088V5.1424C10.2861 8.67952 11.5938 10.747 15.109 12.7721C15.208 12.8287 15.3186 12.857 15.4292 12.857C15.5397 12.857 15.6503 12.8287 15.7493 12.7721C19.2646 10.7522 20.5722 8.68467 20.5722 5.1424V2.57088C20.5722 2.31373 20.4192 2.081 20.1826 1.98071ZM17.8605 4.90196L15.289 8.11636C15.1656 8.26808 14.9804 8.3568 14.7863 8.3568C14.7773 8.3568 14.767 8.3568 14.7593 8.3568C14.5549 8.3478 14.3658 8.24237 14.2514 8.07136L12.9657 6.14272C12.7689 5.84699 12.8487 5.44841 13.1444 5.25169C13.4375 5.05625 13.8374 5.1334 14.0354 5.43041L14.8339 6.62745L16.8551 4.09965C17.0775 3.82321 17.4825 3.77949 17.759 3.99936C18.0367 4.21922 18.0804 4.62424 17.8605 4.90196Z" fill="url(#paint2_linear_1377_26495)"/>
<defs>
<linearGradient id="paint0_linear_1377_26495" x1="-1.18863e-08" y1="6.1601" x2="9.27162" y2="6.1601" gradientUnits="userSpaceOnUse">
<stop stop-color="#2942CB"/>
<stop offset="1" stop-color="#273DB1"/>
</linearGradient>
<linearGradient id="paint1_linear_1377_26495" x1="-2.63736e-08" y1="14.8925" x2="20.5722" y2="14.8925" gradientUnits="userSpaceOnUse">
<stop stop-color="#2942CB"/>
<stop offset="1" stop-color="#273DB1"/>
</linearGradient>
<linearGradient id="paint2_linear_1377_26495" x1="10.2861" y1="7.67846" x2="20.5722" y2="7.67846" gradientUnits="userSpaceOnUse">
<stop stop-color="#2942CB"/>
<stop offset="1" stop-color="#273DB1"/>
</linearGradient>
</defs>
</svg>
