<svg width="24" height="22" viewBox="0 0 24 22" fill="none" xmlns="http://www.w3.org/2000/svg">
<path d="M13.3909 10.0553C14.9824 9.85548 16.5518 10.496 17.5583 11.7358C17.6321 11.8268 17.764 11.8467 17.8586 11.7776C18.3146 11.4445 18.7071 11.0283 19.0149 10.5478C20.933 7.55508 18.803 3.51562 15.164 3.51562C12.7893 3.51562 10.8321 5.33544 10.6142 7.65382C10.6055 7.74747 10.6572 7.8369 10.7432 7.87491C11.7366 8.31428 12.5853 9.03819 13.1814 9.95854C13.2266 10.0284 13.3084 10.0656 13.3909 10.0553V10.0553Z" fill="url(#paint0_linear_1498_20266)"/>
<path d="M15.1641 2.8125C15.5524 2.8125 15.8672 2.49768 15.8672 2.10938V0.703125C15.8672 0.314824 15.5524 0 15.1641 0C14.7757 0 14.4609 0.314824 14.4609 0.703125V2.10938C14.4609 2.49768 14.7757 2.8125 15.1641 2.8125Z" fill="url(#paint1_linear_1498_20266)"/>
<path d="M22.5469 7.38281H21.1406C20.7523 7.38281 20.4375 7.69764 20.4375 8.08594C20.4375 8.47424 20.7523 8.78906 21.1406 8.78906H22.5469C22.9352 8.78906 23.25 8.47424 23.25 8.08594C23.25 7.69764 22.9352 7.38281 22.5469 7.38281Z" fill="url(#paint2_linear_1498_20266)"/>
<path d="M19.8868 11.8148C19.6123 11.5402 19.1671 11.5402 18.8925 11.8148C18.6179 12.0894 18.6179 12.5346 18.8925 12.8092L19.8868 13.8035C20.0241 13.9408 20.204 14.0095 20.384 14.0095C21.0048 14.0095 21.3253 13.2533 20.8811 12.8092L19.8868 11.8148Z" fill="url(#paint3_linear_1498_20266)"/>
<path d="M10.4405 4.35705C10.7151 4.63166 11.1603 4.63166 11.4349 4.35705C11.7095 4.08243 11.7095 3.63727 11.4349 3.3627L10.4405 2.36835C10.1661 2.09378 9.72085 2.09378 9.4462 2.36835C9.17158 2.64296 9.17158 3.08813 9.4462 3.3627L10.4405 4.35705Z" fill="url(#paint4_linear_1498_20266)"/>
<path d="M19.3904 4.56298C19.5704 4.56298 19.7503 4.49434 19.8876 4.35701L20.8819 3.36266C21.1566 3.08804 21.1566 2.64288 20.8819 2.36831C20.6074 2.09374 20.1622 2.09369 19.8876 2.36831L18.8933 3.3627C18.449 3.80694 18.7697 4.56298 19.3904 4.56298V4.56298Z" fill="url(#paint5_linear_1498_20266)"/>
<path d="M17.1209 15.293C17.663 12.6222 14.8661 10.5631 12.4942 11.7802C11.9728 10.0598 10.375 8.80739 8.48438 8.80739C6.03073 8.80739 4.09362 10.9088 4.31177 13.3714C2.31876 13.5271 0.75 15.1936 0.75 17.2266C0.75 19.3564 2.47551 21.0938 4.61719 21.0938H17.1855C18.7874 21.0938 20.0859 19.7952 20.0859 18.1934C20.0859 16.6624 18.8813 15.293 17.1209 15.293Z" fill="url(#paint6_linear_1498_20266)"/>
<defs>
<linearGradient id="paint0_linear_1498_20266" x1="10.6133" y1="8.47457" x2="19.7347" y2="8.47457" gradientUnits="userSpaceOnUse">
<stop stop-color="#2942CB"/>
<stop offset="1" stop-color="#273DB1"/>
</linearGradient>
<linearGradient id="paint1_linear_1498_20266" x1="14.4609" y1="1.67969" x2="15.8672" y2="1.67969" gradientUnits="userSpaceOnUse">
<stop stop-color="#2942CB"/>
<stop offset="1" stop-color="#273DB1"/>
</linearGradient>
<linearGradient id="paint2_linear_1498_20266" x1="20.4375" y1="8.22266" x2="23.25" y2="8.22266" gradientUnits="userSpaceOnUse">
<stop stop-color="#2942CB"/>
<stop offset="1" stop-color="#273DB1"/>
</linearGradient>
<linearGradient id="paint3_linear_1498_20266" x1="18.6865" y1="13.0426" x2="21.0879" y2="13.0426" gradientUnits="userSpaceOnUse">
<stop stop-color="#2942CB"/>
<stop offset="1" stop-color="#273DB1"/>
</linearGradient>
<linearGradient id="paint4_linear_1498_20266" x1="9.24023" y1="3.5961" x2="11.6409" y2="3.5961" gradientUnits="userSpaceOnUse">
<stop stop-color="#2942CB"/>
<stop offset="1" stop-color="#273DB1"/>
</linearGradient>
<linearGradient id="paint5_linear_1498_20266" x1="18.6865" y1="3.59606" x2="21.0879" y2="3.59606" gradientUnits="userSpaceOnUse">
<stop stop-color="#2942CB"/>
<stop offset="1" stop-color="#273DB1"/>
</linearGradient>
<linearGradient id="paint6_linear_1498_20266" x1="0.75" y1="16.1451" x2="20.0859" y2="16.1451" gradientUnits="userSpaceOnUse">
<stop stop-color="#2942CB"/>
<stop offset="1" stop-color="#273DB1"/>
</linearGradient>
</defs>
</svg>
