<svg width="16" height="17" viewBox="0 0 16 17" fill="none" xmlns="http://www.w3.org/2000/svg">
<path d="M13.6588 5.86999L13.1164 5.79426L13.2589 5.26542C13.3175 5.04692 13.3475 4.82069 13.3475 4.59317C13.3475 3.17102 12.1906 2.01408 10.7687 2.01408C10.3959 2.01408 10.0365 2.09175 9.70042 2.24482L9.31628 2.42014L9.09101 2.06274C8.37558 0.927725 7.14872 0.25 5.80906 0.25C3.67115 0.25 1.93188 1.98927 1.93188 4.12718C1.93188 4.61187 2.02019 5.08495 2.19453 5.53258L2.35019 5.93251L1.97185 6.13457C1.16683 6.56415 0.666992 7.39721 0.666992 8.30825C0.666992 9.66596 1.77172 10.7707 3.12942 10.7707H4.88416L5.78521 8.30664H11.2341L10.3282 10.7707H13.3149C14.6727 10.7707 15.7774 9.66596 15.7774 8.30825C15.7774 7.08654 14.8667 6.03821 13.6588 5.86999V5.86999Z" fill="url(#paint0_linear_1498_20730)"/>
<path d="M9.84888 9.27344H6.46122L5.03906 13.1625H7.875L6.31685 16.75H7.03195L11.6497 11.7375H8.94299L9.84888 9.27344Z" fill="url(#paint1_linear_1498_20730)"/>
<defs>
<linearGradient id="paint0_linear_1498_20730" x1="0.666992" y1="6.53319" x2="15.7774" y2="6.53319" gradientUnits="userSpaceOnUse">
<stop stop-color="#2942CB"/>
<stop offset="1" stop-color="#273DB1"/>
</linearGradient>
<linearGradient id="paint1_linear_1498_20730" x1="5.03906" y1="13.7386" x2="11.6497" y2="13.7386" gradientUnits="userSpaceOnUse">
<stop stop-color="#2942CB"/>
<stop offset="1" stop-color="#273DB1"/>
</linearGradient>
</defs>
</svg>
