<svg width="14" height="14" viewBox="0 0 14 14" fill="none" xmlns="http://www.w3.org/2000/svg">
<path d="M5.81349 4.33679C2.76029 4.33679 0.250028 6.43638 0.250028 9.01723C0.250028 10.0489 0.650185 11.0973 1.38403 11.91L0.347747 13.0942C0.245783 13.2108 0.22105 13.3765 0.285571 13.5179C0.349698 13.6592 0.490291 13.75 0.645544 13.75H6.20901C8.46332 13.75 11.377 11.8088 11.377 9.01723C11.377 6.43638 8.86669 4.33679 5.81349 4.33679ZM3.41408 9.74218C2.97801 9.74218 2.62307 9.38722 2.62307 8.95117C2.62307 8.5151 2.97804 8.16017 3.41408 8.16017C3.85012 8.16017 4.20509 8.51513 4.20509 8.95117C4.20511 9.38722 3.85015 9.74218 3.41408 9.74218ZM5.81349 9.74218C5.37742 9.74218 5.02249 9.38722 5.02249 8.95117C5.02249 8.5151 5.37745 8.16017 5.81349 8.16017C6.24954 8.16017 6.6045 8.51513 6.6045 8.95117C6.6045 9.38722 6.24956 9.74218 5.81349 9.74218ZM8.2129 9.74218C7.77683 9.74218 7.4219 9.38722 7.4219 8.95117C7.4219 8.5151 7.77686 8.16017 8.2129 8.16017C8.64895 8.16017 9.00391 8.51513 9.00391 8.95117C9.00391 9.38722 8.64897 9.74218 8.2129 9.74218Z" fill="url(#paint0_linear_1297_4177)"/>
<path d="M13.6545 8.29803L12.7233 7.21154C13.388 6.46149 13.75 5.54684 13.75 4.60058C13.7499 2.20167 11.4433 0.250008 8.60836 0.250008C6.04475 0.250008 3.86675 1.8476 3.48218 3.92699C4.19748 3.68393 4.99967 3.54577 5.81346 3.54577C9.27694 3.54577 12.1225 5.96488 12.1641 8.95116H13.3544C13.6923 8.95118 13.8737 8.55335 13.6545 8.29803Z" fill="url(#paint1_linear_1297_4177)"/>
<defs>
<linearGradient id="paint0_linear_1297_4177" x1="0.25" y1="9.95857" x2="11.377" y2="9.95857" gradientUnits="userSpaceOnUse">
<stop stop-color="#2942CB"/>
<stop offset="1" stop-color="#273DB1"/>
</linearGradient>
<linearGradient id="paint1_linear_1297_4177" x1="3.48218" y1="5.44653" x2="13.7502" y2="5.44653" gradientUnits="userSpaceOnUse">
<stop stop-color="#2942CB"/>
<stop offset="1" stop-color="#273DB1"/>
</linearGradient>
</defs>
</svg>
