<svg width="38" height="38" viewBox="0 0 38 38" fill="none" xmlns="http://www.w3.org/2000/svg">
<path d="M36.4828 21.9408L34.2857 20.6722C34.3449 20.1228 34.3761 19.5649 34.3761 18.9999C34.3761 18.4349 34.3449 17.877 34.2857 17.3276L36.4828 16.059C36.9524 15.7879 37.2881 15.3501 37.4285 14.8262C37.5687 14.3023 37.4967 13.7551 37.2256 13.2856L32.9988 5.96415C32.637 5.33765 31.9627 4.94852 31.2384 4.94852C30.884 4.94852 30.5339 5.04274 30.2254 5.22094L28.022 6.49302C27.1265 5.83632 26.1583 5.27329 25.1317 4.81848V2.28028C25.1316 1.16083 24.2206 0.25 23.1013 0.25H14.6471C13.5276 0.25 12.6169 1.16083 12.6169 2.28028V4.81859C11.5903 5.2734 10.622 5.83632 9.7264 6.49324L7.52299 5.22105C7.21453 5.04296 6.86431 4.94874 6.51011 4.94874C5.78586 4.94874 5.11152 5.33776 4.74962 5.96426L0.522986 13.2857C0.251776 13.7552 0.179703 14.3025 0.319992 14.8263C0.460391 15.3502 0.79618 15.788 1.26576 16.0591L3.46288 17.3277C3.40359 17.8771 3.3724 18.435 3.3724 19C3.3724 19.565 3.40359 20.1228 3.46288 20.6723L1.26576 21.9409C0.79618 22.212 0.460391 22.6498 0.319992 23.1737C0.179703 23.6976 0.251776 24.2449 0.522986 24.7143L4.74962 32.0357C5.11141 32.6622 5.78575 33.0513 6.51011 33.0513C6.86442 33.0513 7.21464 32.9571 7.52299 32.7789L9.7264 31.5069C10.622 32.1637 11.5903 32.7267 12.6169 33.1815V35.7199C12.6169 36.2621 12.8281 36.7719 13.2116 37.1553C13.5952 37.5387 14.1049 37.75 14.647 37.75H23.1012C24.2205 37.75 25.1315 36.8392 25.1315 35.7198V33.1813C26.1581 32.7266 27.1264 32.1636 28.0218 31.5068L30.2252 32.7788C30.5337 32.957 30.8839 33.0511 31.2382 33.0511C31.9624 33.0511 32.6367 32.6621 32.9986 32.0356L37.2253 24.7142C37.4964 24.2447 37.5685 23.6974 37.4283 23.1736C37.288 22.6497 36.9522 22.2119 36.4828 21.9408ZM18.8742 30.0203C12.7877 30.0203 7.85382 25.0862 7.85382 19C7.85382 12.9138 12.7877 7.97966 18.8742 7.97966C24.9607 7.97966 29.8945 12.9138 29.8945 19C29.8945 25.0862 24.9608 30.0203 18.8742 30.0203Z" fill="url(#paint0_linear_1377_826)"/>
<path d="M26.4721 13.2318C26.4069 13.2152 26.3378 13.2342 26.2903 13.2818L24.3003 15.278C24.1809 15.2295 23.88 15.0643 23.323 14.5093C22.7662 13.9542 22.6001 13.6537 22.5513 13.5345L24.5411 11.5384C24.5886 11.4908 24.6074 11.4216 24.5907 11.3566C24.5739 11.2914 24.524 11.24 24.4594 11.2212C24.1725 11.1379 23.8751 11.0957 23.5756 11.0957C22.7299 11.0957 21.9352 11.4255 21.3382 12.0244C20.7423 12.6222 20.4147 13.4163 20.4158 14.2603C20.4165 14.6953 20.5051 15.1164 20.672 15.5043L18.2599 17.9164L15.7896 15.4461C15.7874 15.4419 15.7859 15.4374 15.7834 15.4332L14.6538 13.4973C14.6342 13.4639 14.6078 13.4352 14.5759 13.4131L12.6711 12.0913C12.5658 12.0182 12.4232 12.0311 12.3328 12.1216L11.4839 12.9704C11.3933 13.061 11.3805 13.2035 11.4536 13.3088L12.7752 15.2137C12.7973 15.2454 12.826 15.272 12.8594 15.2915L14.7958 16.4208C14.7996 16.423 14.8036 16.4237 14.8074 16.4257L17.279 18.8972L15.4201 20.7561C15.0309 20.5888 14.6082 20.5002 14.1721 20.5002C13.3261 20.5002 12.5315 20.8301 11.9344 21.429C11.1191 22.2465 10.8149 23.4434 11.1407 24.5525C11.1596 24.617 11.2112 24.6668 11.2765 24.6833C11.3416 24.7 11.4107 24.681 11.4582 24.6332L13.448 22.6372C13.5674 22.6856 13.8683 22.8509 14.4253 23.4059C14.9822 23.9611 15.1481 24.2614 15.1967 24.3806L13.2069 26.3768C13.1594 26.4244 13.1405 26.4936 13.1574 26.5587C13.1742 26.6238 13.2241 26.6753 13.2887 26.694C13.5755 26.7772 13.8729 26.8194 14.1723 26.8194C15.0181 26.8194 15.8128 26.4896 16.41 25.8906C17.0059 25.2929 17.3333 24.4989 17.3321 23.6548C17.3315 23.2198 17.2429 22.7986 17.076 22.4108L18.9344 20.5525L19.7219 21.3399L19.185 21.8768C19.0679 21.9936 19.0035 22.1488 19.0035 22.3139C19.0034 22.479 19.0678 22.6343 19.1848 22.751L22.9772 26.5434C23.0937 26.6602 23.2487 26.7244 23.4139 26.7244C23.579 26.7244 23.7345 26.6602 23.8514 26.5434L25.9057 24.4886C26.0226 24.3719 26.0869 24.2166 26.087 24.0514C26.087 23.8862 26.0227 23.7311 25.9058 23.6144L22.1137 19.8224C21.997 19.7057 21.8419 19.6413 21.6767 19.6413C21.5115 19.6413 21.3562 19.7057 21.2395 19.8226L20.7029 20.3592L19.9154 19.5718L22.3279 17.1592C22.7171 17.3266 23.1396 17.4151 23.5759 17.4152C23.576 17.4152 23.576 17.4152 23.5761 17.4152C24.4218 17.4152 25.2165 17.0853 25.8135 16.4862C26.6287 15.669 26.9329 14.4722 26.6076 13.3628C26.5889 13.2981 26.5373 13.2483 26.4721 13.2318ZM21.6347 21.1715C21.7698 21.0362 21.989 21.0362 22.1243 21.1715L24.557 23.6043C24.6923 23.7394 24.6923 23.9585 24.557 24.0937C24.4216 24.2287 24.2029 24.2287 24.0678 24.0937L21.6347 21.6609C21.5001 21.5256 21.5001 21.3065 21.6347 21.1715ZM20.5334 22.2721C20.669 22.1372 20.8884 22.1372 21.0236 22.2723L23.4564 24.7053C23.5914 24.8403 23.5915 25.0595 23.4564 25.1945C23.3208 25.3297 23.1016 25.3297 22.9668 25.1945L20.5334 22.7615C20.3987 22.6266 20.3987 22.4075 20.5334 22.2721Z" fill="url(#paint1_linear_1377_826)"/>
<defs>
<linearGradient id="paint0_linear_1377_826" x1="0.25" y1="22.6458" x2="37.4985" y2="22.6458" gradientUnits="userSpaceOnUse">
<stop stop-color="#2942CB"/>
<stop offset="1" stop-color="#273DB1"/>
</linearGradient>
<linearGradient id="paint1_linear_1377_826" x1="11.0122" y1="20.4862" x2="26.7358" y2="20.4862" gradientUnits="userSpaceOnUse">
<stop stop-color="#2942CB"/>
<stop offset="1" stop-color="#273DB1"/>
</linearGradient>
</defs>
</svg>
