<svg width="21" height="18" viewBox="0 0 21 18" fill="none" xmlns="http://www.w3.org/2000/svg">
<path d="M9.00032 5.14221V3.85645H1.28576C0.577306 3.85645 0 4.43375 0 5.14221V7.71373H9.27162C9.09289 6.92813 9.00032 6.0821 9.00032 5.14221Z" fill="url(#paint0_linear_1359_696)"/>
<path d="M20.5194 10.2856C19.6426 11.637 18.3054 12.7864 16.3896 13.8871C16.0951 14.0555 15.7634 14.1429 15.4291 14.1429C15.0948 14.1429 14.7631 14.0555 14.4725 13.8896C12.5567 12.7864 11.2195 11.6357 10.3414 10.2856H0V16.7144C0 17.4242 0.577306 18.0002 1.28576 18.0002H19.2864C19.9961 18.0002 20.5722 17.4242 20.5722 16.7144V10.2856H20.5194ZM5.78592 14.1429H3.2144C2.85953 14.1429 2.57152 13.8549 2.57152 13.5C2.57152 13.1452 2.85953 12.8572 3.2144 12.8572H5.78592C6.14079 12.8572 6.4288 13.1452 6.4288 13.5C6.4288 13.8549 6.14079 14.1429 5.78592 14.1429Z" fill="url(#paint1_linear_1359_696)"/>
<path d="M20.1826 1.98071L15.6824 0.0520733C15.5191 -0.0173578 15.3378 -0.0173578 15.1745 0.0520733L10.6744 1.98071C10.4391 2.081 10.2861 2.31373 10.2861 2.57088V5.1424C10.2861 8.67952 11.5937 10.747 15.109 12.7721C15.208 12.8287 15.3185 12.857 15.4291 12.857C15.5397 12.857 15.6503 12.8287 15.7493 12.7721C19.2645 10.7522 20.5722 8.68467 20.5722 5.1424V2.57088C20.5722 2.31373 20.4192 2.081 20.1826 1.98071ZM17.8605 4.90196L15.289 8.11636C15.1655 8.26808 14.9804 8.3568 14.7862 8.3568C14.7772 8.3568 14.767 8.3568 14.7592 8.3568C14.5548 8.3478 14.3658 8.24237 14.2514 8.07136L12.9656 6.14272C12.7689 5.84699 12.8486 5.44841 13.1443 5.25169C13.4375 5.05625 13.8373 5.1334 14.0354 5.43041L14.8338 6.62745L16.855 4.09965C17.0775 3.82321 17.4825 3.77949 17.7589 3.99936C18.0366 4.21922 18.0804 4.62424 17.8605 4.90196Z" fill="url(#paint2_linear_1359_696)"/>
<defs>
<linearGradient id="paint0_linear_1359_696" x1="-1.18863e-08" y1="6.1601" x2="9.27162" y2="6.1601" gradientUnits="userSpaceOnUse">
<stop stop-color="#2942CB"/>
<stop offset="1" stop-color="#273DB1"/>
</linearGradient>
<linearGradient id="paint1_linear_1359_696" x1="-2.63736e-08" y1="14.893" x2="20.5722" y2="14.893" gradientUnits="userSpaceOnUse">
<stop stop-color="#2942CB"/>
<stop offset="1" stop-color="#273DB1"/>
</linearGradient>
<linearGradient id="paint2_linear_1359_696" x1="10.2861" y1="7.67846" x2="20.5722" y2="7.67846" gradientUnits="userSpaceOnUse">
<stop stop-color="#2942CB"/>
<stop offset="1" stop-color="#273DB1"/>
</linearGradient>
</defs>
</svg>
