<svg width="20" height="21" viewBox="0 0 20 21" fill="none" xmlns="http://www.w3.org/2000/svg">
<path d="M9.73061 8.2603L10.1683 9.57915L10.4116 9.64043C10.4756 9.6565 10.5397 9.66423 10.6028 9.66423C10.6046 9.66423 10.6063 9.66404 10.608 9.66401V9.09083C10.608 8.74614 10.7099 8.42495 10.8846 8.15506C10.8549 8.1436 10.8246 8.13324 10.7929 8.12528L9.39209 7.77271C9.54436 7.89512 9.66449 8.0611 9.73061 8.2603Z" fill="url(#paint0_linear_1472_1919)"/>
<path d="M18.9478 18.3537H18.2845C18.6069 18.1447 18.7687 17.742 18.6552 17.3544L17.533 13.52C17.4216 13.1397 17.0728 12.8783 16.6765 12.8783C16.3839 12.8783 15.4846 12.8783 15.192 12.8783V11.8151C15.5721 11.6403 16.7092 11.1172 17.2628 10.8625C17.6359 10.6909 17.7992 10.2493 17.6275 9.87616C17.4559 9.50306 17.0143 9.3397 16.6412 9.51136C16.327 9.6559 15.462 10.0538 15.192 10.178V9.09084C15.192 8.39022 14.6241 7.82227 13.9234 7.82227H12.3355C11.6348 7.82227 11.0669 8.39019 11.0669 9.09084V9.87041L11.9451 9.22563L10.5141 10.816C10.2706 11.0866 10.2588 11.4937 10.4861 11.7779L12.5487 14.357C12.5679 14.381 12.5883 14.4034 12.6097 14.4243V15.3424C12.7011 15.3199 12.7965 15.3077 12.8948 15.3077C12.9931 15.3077 13.0885 15.3199 13.1799 15.3424V14.6342C13.3261 14.6244 13.4708 14.5718 13.5939 14.4733C13.9146 14.2168 13.9667 13.7489 13.7102 13.4281L12.0417 11.3418L13.0507 10.2204L12.4869 11.1871L13.4683 12.4143C15.4914 12.6969 17.0217 14.4352 17.0217 16.5012C17.0217 16.8851 16.9688 17.2568 16.8703 17.6096L16.9423 17.8557C17.0048 18.0694 17.1405 18.2415 17.3138 18.3537H16.5818C16.4063 18.7014 16.1832 19.0211 15.9209 19.304H18.9476C19.2101 19.304 19.4228 19.0913 19.4228 18.8288C19.4228 18.5664 19.2102 18.3537 18.9478 18.3537Z" fill="url(#paint1_linear_1472_1919)"/>
<path d="M13.3865 7.36363C13.3903 7.36394 13.3941 7.36447 13.398 7.36473C14.3101 7.42945 15.098 6.74178 15.1624 5.8342C15.227 4.92433 14.5418 4.13438 13.6319 4.06983C12.722 4.00523 11.9321 4.69047 11.8675 5.60034C11.8032 6.50632 12.4824 7.29313 13.3865 7.36363Z" fill="url(#paint2_linear_1472_1919)"/>
<path d="M10.6993 13.0082L10.5563 12.5773C10.5059 12.5142 10.078 11.9792 10.003 11.8853C9.73692 11.5526 9.72949 11.0967 9.95333 10.7601L9.78289 10.2462C9.8137 10.5309 9.75413 10.8275 9.59249 11.0903C9.48844 11.2594 9.35265 11.3969 9.19775 11.5005L9.91166 13.6521C10.1462 13.4067 10.4108 13.1902 10.6993 13.0082Z" fill="url(#paint3_linear_1472_1919)"/>
<path d="M8.27295 8.70782L9.1541 9.24996C9.3459 9.36791 9.49719 9.52662 9.60429 9.70788L9.18415 8.44175C9.10146 8.19265 8.83253 8.05775 8.58347 8.1404C8.34539 8.21935 8.21216 8.46844 8.27295 8.70782Z" fill="url(#paint4_linear_1472_1919)"/>
<path d="M13.9907 13.0676C14.0054 13.0983 14.4729 13.5393 14.268 14.231C14.5681 14.4132 14.829 14.6535 15.036 14.9358L13.755 15.6753C13.8869 15.8126 13.9863 15.9812 14.0408 16.1688L15.3217 15.4293C15.4671 15.7574 15.5486 16.1199 15.5486 16.5013C15.5486 16.8827 15.4671 17.2452 15.3217 17.5733L14.0408 16.8337C13.9863 17.0213 13.8869 17.1899 13.755 17.3272L15.036 18.0668C14.6056 18.6537 13.9405 19.058 13.1799 19.1397V17.6601C13.0884 17.6826 12.993 17.6948 12.8948 17.6948C12.7965 17.6948 12.7011 17.6826 12.6096 17.6601V19.1397C11.849 19.058 11.1838 18.6537 10.7535 18.0668L12.0345 17.3272C11.9026 17.1899 11.8033 17.0213 11.7488 16.8337L10.4678 17.5733C10.3224 17.2452 10.2409 16.8827 10.2409 16.5013C10.2409 16.1199 10.3224 15.7574 10.4678 15.4293L11.7488 16.1688C11.8033 15.9812 11.9026 15.8126 12.0345 15.6753L10.7535 14.9358C11.0161 14.5776 11.3661 14.2877 11.772 14.0973L11.166 13.3395C10.0493 13.9526 9.29053 15.1399 9.29053 16.5013C9.29053 18.4886 10.9074 20.1055 12.8948 20.1055C14.8822 20.1055 16.499 18.4886 16.499 16.5013C16.499 14.8959 15.4439 13.5325 13.9907 13.0676Z" fill="url(#paint5_linear_1472_1919)"/>
<path d="M13.331 17.1956C13.7132 16.9593 13.8316 16.4579 13.5953 16.0756C13.359 15.6934 12.8576 15.575 12.4754 15.8113C12.0931 16.0476 11.9747 16.549 12.211 16.9313C12.4473 17.3135 12.9487 17.4318 13.331 17.1956Z" fill="url(#paint6_linear_1472_1919)"/>
<path d="M8.86221 9.72392L6.39411 8.20553L5.69171 6.18892L6.64816 7.7083L7.70744 8.35997C7.78609 8.01273 8.03926 7.71394 8.40185 7.59362C8.44763 7.57842 8.49375 7.56688 8.53988 7.5582L8.10831 7.44957L7.06037 6.24244L7.08155 5.92562C7.12417 5.28831 6.64202 4.73711 6.00471 4.69449L3.9468 4.55688C3.30948 4.51426 2.75828 4.99641 2.71566 5.63372L2.33092 11.5553C2.33092 11.5553 2.44257 13.8036 2.49654 14.8889L0.670209 18.7778C0.452419 19.2475 0.656639 19.8048 1.12631 20.0226C1.59587 20.2404 2.15326 20.0362 2.37109 19.5665L4.29478 15.4676C4.35873 15.3298 4.38817 15.1784 4.38059 15.0266L4.21381 11.6812L4.63642 11.7094L5.67369 14.794L6.06732 19.2537C6.10994 19.7418 6.51923 20.1097 7.00012 20.1096C7.55395 20.1096 7.98262 19.6358 7.93505 19.0907L7.53174 14.5197C7.52527 14.4457 7.51007 14.3728 7.48634 14.3024L6.65992 11.8447L6.74821 10.9113C6.20478 10.5769 5.47678 10.1291 4.85036 9.74369C4.63875 9.61347 4.51089 9.39431 4.48453 9.16522L4.21628 6.70283L5.01017 8.98213C5.06936 9.15196 5.18534 9.29627 5.33856 9.3905L8.04356 11.0547C8.40954 11.2797 8.89127 11.1677 9.11827 10.7987C9.34435 10.4312 9.22971 9.95 8.86221 9.72392Z" fill="url(#paint7_linear_1472_1919)"/>
<path d="M6.57121 3.53207C7.23971 2.86356 7.23971 1.7797 6.57121 1.11118C5.9027 0.442675 4.81881 0.442675 4.1503 1.11118C3.4818 1.7797 3.4818 2.86356 4.1503 3.53207C4.81881 4.20058 5.9027 4.20058 6.57121 3.53207Z" fill="url(#paint8_linear_1472_1919)"/>
<defs>
<linearGradient id="paint0_linear_1472_1919" x1="9.39209" y1="8.90237" x2="10.8846" y2="8.90237" gradientUnits="userSpaceOnUse">
<stop stop-color="#2942CB"/>
<stop offset="1" stop-color="#273DB1"/>
</linearGradient>
<linearGradient id="paint1_linear_1472_1919" x1="10.3232" y1="14.6794" x2="19.4228" y2="14.6794" gradientUnits="userSpaceOnUse">
<stop stop-color="#2942CB"/>
<stop offset="1" stop-color="#273DB1"/>
</linearGradient>
<linearGradient id="paint2_linear_1472_1919" x1="11.8633" y1="6.03844" x2="15.1666" y2="6.03844" gradientUnits="userSpaceOnUse">
<stop stop-color="#2942CB"/>
<stop offset="1" stop-color="#273DB1"/>
</linearGradient>
<linearGradient id="paint3_linear_1472_1919" x1="9.19775" y1="12.2803" x2="10.6993" y2="12.2803" gradientUnits="userSpaceOnUse">
<stop stop-color="#2942CB"/>
<stop offset="1" stop-color="#273DB1"/>
</linearGradient>
<linearGradient id="paint4_linear_1472_1919" x1="8.2583" y1="9.06674" x2="9.60429" y2="9.06674" gradientUnits="userSpaceOnUse">
<stop stop-color="#2942CB"/>
<stop offset="1" stop-color="#273DB1"/>
</linearGradient>
<linearGradient id="paint5_linear_1472_1919" x1="9.29053" y1="17.2708" x2="16.499" y2="17.2708" gradientUnits="userSpaceOnUse">
<stop stop-color="#2942CB"/>
<stop offset="1" stop-color="#273DB1"/>
</linearGradient>
<linearGradient id="paint6_linear_1472_1919" x1="12.0894" y1="16.6617" x2="13.717" y2="16.6617" gradientUnits="userSpaceOnUse">
<stop stop-color="#2942CB"/>
<stop offset="1" stop-color="#273DB1"/>
</linearGradient>
<linearGradient id="paint7_linear_1472_1919" x1="0.583008" y1="13.8444" x2="9.23421" y2="13.8444" gradientUnits="userSpaceOnUse">
<stop stop-color="#2942CB"/>
<stop offset="1" stop-color="#273DB1"/>
</linearGradient>
<linearGradient id="paint8_linear_1472_1919" x1="3.64893" y1="2.65448" x2="7.07259" y2="2.65448" gradientUnits="userSpaceOnUse">
<stop stop-color="#2942CB"/>
<stop offset="1" stop-color="#273DB1"/>
</linearGradient>
</defs>
</svg>
