<svg width="37" height="38" viewBox="0 0 37 38" fill="none" xmlns="http://www.w3.org/2000/svg">
<path d="M36.8779 29.4655C36.8779 24.8923 33.1662 21.1807 28.593 21.1807C24.0197 21.1807 20.3081 24.8923 20.3081 29.4655C20.3081 34.0388 24.0197 37.7504 28.593 37.7504C33.1662 37.7504 36.8779 34.0388 36.8779 29.4655ZM27.2849 25.9772V29.4655C27.2849 29.9609 27.5657 30.4144 28.0087 30.6359L29.7529 31.508C30.4 31.8307 31.1849 31.569 31.5093 30.9219C31.8319 30.2766 31.5686 29.49 30.9232 29.1673L29.9011 28.6562V25.9772C29.9011 25.2551 29.3151 24.669 28.593 24.669C27.8709 24.669 27.2849 25.2551 27.2849 25.9772V25.9772Z" fill="url(#paint0_linear_1377_26641)"/>
<path d="M22.9419 37.75C20.2994 35.943 18.564 32.9046 18.564 29.4651C18.564 23.9291 23.057 19.436 28.593 19.436C28.7395 19.436 28.8843 19.4395 29.0291 19.4448V11.05C29.0291 10.1901 28.6663 9.37035 28.0296 8.79128C26.3012 7.21977 21.1366 2.52616 19.5076 1.0436C18.9442 0.532558 18.2134 0.25 17.4529 0.25C15.3913 0.25 9.0686 0.25 5.04651 0.25C3.775 0.25 2.55407 0.755814 1.65407 1.65407C0.755814 2.55407 0.25 3.775 0.25 5.04651V32.9535C0.25 34.225 0.755814 35.4459 1.65407 36.3459C2.55407 37.2442 3.775 37.75 5.04651 37.75H22.9419ZM5.9186 26.4128H12.8953C13.6174 26.4128 14.2035 25.8267 14.2035 25.1046C14.2035 24.3826 13.6174 23.7965 12.8953 23.7965H5.9186C5.19651 23.7965 4.61047 24.3826 4.61047 25.1046C4.61047 25.8267 5.19651 26.4128 5.9186 26.4128ZM5.9186 20.3081H17.2558C17.9779 20.3081 18.564 19.7221 18.564 19C18.564 18.2779 17.9779 17.6919 17.2558 17.6919H5.9186C5.19651 17.6919 4.61047 18.2779 4.61047 19C4.61047 19.7221 5.19651 20.3081 5.9186 20.3081ZM5.9186 14.2035H12.0233C12.7453 14.2035 13.3314 13.6174 13.3314 12.8953C13.3314 12.1733 12.7453 11.5872 12.0233 11.5872H5.9186C5.19651 11.5872 4.61047 12.1733 4.61047 12.8953C4.61047 13.6174 5.19651 14.2035 5.9186 14.2035ZM17.2558 2.56628C17.4372 2.64128 17.6064 2.74942 17.7546 2.88372C19.3855 4.36628 24.5483 9.05988 26.2785 10.6314C26.4407 10.7814 26.5733 10.9576 26.6692 11.1512H18.1279C17.6465 11.1512 17.2558 10.7605 17.2558 10.2791V2.56628Z" fill="url(#paint1_linear_1377_26641)"/>
<defs>
<linearGradient id="paint0_linear_1377_26641" x1="20.3081" y1="31.0765" x2="36.8779" y2="31.0765" gradientUnits="userSpaceOnUse">
<stop stop-color="#2942CB"/>
<stop offset="1" stop-color="#273DB1"/>
</linearGradient>
<linearGradient id="paint1_linear_1377_26641" x1="0.25" y1="22.6458" x2="29.0291" y2="22.6458" gradientUnits="userSpaceOnUse">
<stop stop-color="#2942CB"/>
<stop offset="1" stop-color="#273DB1"/>
</linearGradient>
</defs>
</svg>
