<svg width="15" height="18" viewBox="0 0 15 18" fill="none" xmlns="http://www.w3.org/2000/svg">
<path d="M7.13719 6.28316L5.64873 7.61863C5.84413 8.29257 6.11903 8.94087 6.46765 9.54984C6.83049 10.1546 7.26698 10.712 7.76712 11.2093L9.69474 10.6153C10.7746 10.2824 11.9535 10.6243 12.6716 11.4792L13.7695 12.7859C14.2141 13.3105 14.4369 13.9875 14.3909 14.6735C14.3448 15.3595 14.0336 16.0007 13.523 16.4612C11.7321 18.0954 8.97481 18.6479 6.91041 17.0263C5.09606 15.5977 3.5609 13.8465 2.38205 11.8608C1.20061 9.88442 0.409953 7.69941 0.0530776 5.42464C-0.342884 2.86529 1.53073 0.817091 3.86691 0.118759C5.25997 -0.2988 6.74662 0.41753 7.25777 1.753L7.86071 3.32785C8.25668 4.36454 7.9723 5.53263 7.13719 6.28136V6.28316Z" fill="url(#paint0_linear_1425_26611)" fill-opacity="0.7"/>
<defs>
<linearGradient id="paint0_linear_1425_26611" x1="-1.84568e-08" y1="10.75" x2="14.3968" y2="10.75" gradientUnits="userSpaceOnUse">
<stop stop-color="#2942CB"/>
<stop offset="1" stop-color="#273DB1"/>
</linearGradient>
</defs>
</svg>
