<svg width="19" height="18" viewBox="0 0 19 18" fill="none" xmlns="http://www.w3.org/2000/svg">
<path d="M7.96956 13.6114L4.38733 13.6236V10.0286L13.6017 0.902261L13.6031 0.900802C14.1371 0.367566 15.1025 0.36434 15.6417 0.903481L17.183 2.44479C17.4566 2.71845 17.606 3.07916 17.606 3.46538C17.606 3.85126 17.4569 4.21166 17.1837 4.48523C17.1835 4.48548 17.1832 4.48573 17.183 4.48598L7.96956 13.6114ZM14.974 1.56986L14.622 1.21919L14.2691 1.56897L12.72 3.10444L12.3632 3.4581L12.7185 3.81322L14.2599 5.35355L14.6117 5.70522L14.9652 5.3551L16.5172 3.81769L16.8747 3.46347L16.5182 3.10825L14.974 1.56986ZM5.4791 10.2754L5.33097 10.4221V10.6306V12.1748V12.6764L5.83254 12.6748L7.37482 12.67L7.57959 12.6693L7.72508 12.5252L13.5842 6.72249L13.9412 6.36895L13.5859 6.01368L12.0446 4.47238L11.6927 4.1205L11.3392 4.4707L5.4791 10.2754Z" stroke="url(#paint0_linear_1359_26406)"/>
<path d="M15.5491 16.5564H16.0491V16.0564V9.78344L16.9927 8.83981V16.0564C16.9927 16.8522 16.3449 17.5001 15.5491 17.5001H1.94364C1.14786 17.5001 0.5 16.8522 0.5 16.0564V2.45096C0.5 1.65519 1.14786 1.00732 1.94364 1.00732H9.33421L8.39057 1.95096H1.94364H1.44364V2.45096V16.0564V16.5564H1.94364H4.81554L4.81693 16.5566L4.81745 16.5567C4.8256 16.5579 4.84189 16.5602 4.8601 16.5621C4.8794 16.5641 4.90552 16.5661 4.93587 16.5661C4.97342 16.5661 5.00473 16.5626 5.02535 16.5596C5.03267 16.5586 5.03972 16.5575 5.04591 16.5564H15.5491Z" stroke="url(#paint1_linear_1359_26406)"/>
<defs>
<linearGradient id="paint0_linear_1359_26406" x1="3.88733" y1="8.43592" x2="18.106" y2="8.43592" gradientUnits="userSpaceOnUse">
<stop stop-color="#2942CB"/>
<stop offset="1" stop-color="#273DB1"/>
</linearGradient>
<linearGradient id="paint1_linear_1359_26406" x1="-2.24258e-08" y1="10.9544" x2="17.4927" y2="10.9544" gradientUnits="userSpaceOnUse">
<stop stop-color="#2942CB"/>
<stop offset="1" stop-color="#273DB1"/>
</linearGradient>
</defs>
</svg>
