<svg width="35" height="34" viewBox="0 0 35 34" fill="none" xmlns="http://www.w3.org/2000/svg">
<path d="M7.44653 17.0001C7.44653 13.1213 9.83172 9.84782 13.1382 8.48109H13.1387L14.1995 6.57556C9.51721 7.67096 5.95239 11.8877 5.95239 17.0001C5.95239 21.8108 9.13426 25.917 13.5585 27.2513L13.671 25.7183C9.99294 24.4589 7.44653 20.9806 7.44653 17.0001Z" fill="url(#paint0_linear_1226_28653)"/>
<path d="M19.7621 6.7489L19.6495 8.28189C23.3276 9.54125 25.8741 13.0196 25.8741 17.0001C25.8741 20.875 23.4916 24.1512 20.1824 25.5191H20.1819L19.1211 27.4246C23.8034 26.3292 27.3681 22.1125 27.3681 17.0001C27.3681 12.1894 24.1863 8.08312 19.7621 6.7489Z" fill="url(#paint1_linear_1226_28653)"/>
<path d="M23.7789 15.2324C23.6447 15.0041 23.3996 14.8639 23.1348 14.8639H17.6684L18.3885 5.05194C18.4142 4.70236 18.1934 4.38197 17.8576 4.28151C17.5218 4.18086 17.1613 4.32748 16.9908 4.63373L9.5331 18.0256C9.40425 18.257 9.40754 18.5392 9.54171 18.7676C9.67588 18.9959 9.92097 19.1361 10.1858 19.1361H15.6522L14.9321 28.9481C14.9064 29.2977 15.1272 29.618 15.463 29.7185C15.8016 29.8199 16.1608 29.6699 16.3298 29.3663L23.7875 15.9744C23.9163 15.743 23.913 15.4608 23.7789 15.2324Z" fill="url(#paint2_linear_1226_28653)"/>
<defs>
<linearGradient id="paint0_linear_1226_28653" x1="5.95239" y1="18.9235" x2="14.1995" y2="18.9235" gradientUnits="userSpaceOnUse">
<stop stop-color="#2942CB"/>
<stop offset="1" stop-color="#273DB1"/>
</linearGradient>
<linearGradient id="paint1_linear_1226_28653" x1="19.1211" y1="19.0969" x2="27.3681" y2="19.0969" gradientUnits="userSpaceOnUse">
<stop stop-color="#2942CB"/>
<stop offset="1" stop-color="#273DB1"/>
</linearGradient>
<linearGradient id="paint2_linear_1226_28653" x1="9.43872" y1="19.4792" x2="23.8818" y2="19.4792" gradientUnits="userSpaceOnUse">
<stop stop-color="#2942CB"/>
<stop offset="1" stop-color="#273DB1"/>
</linearGradient>
</defs>
</svg>
