<svg width="14" height="14" viewBox="0 0 14 14" fill="none" xmlns="http://www.w3.org/2000/svg">
<path fill-rule="evenodd" clip-rule="evenodd" d="M6.10459 5.19083H7.18569C7.26315 5.19083 7.32629 5.25399 7.32632 5.33142V8.30036L6.82519 8.16609C6.55828 7.97892 6.27039 7.80671 5.96397 7.69319V5.33142C5.964 5.25399 6.02717 5.19083 6.10459 5.19083V5.19083ZM3.45294 13.0645L2.47773 13.4695C2.26614 13.5573 2.02196 13.4566 1.93387 13.2451C1.38344 11.9233 0.832976 10.6015 0.282541 9.27976C0.193525 9.06601 0.293313 8.82416 0.507147 8.73534L1.48236 8.3304C1.69394 8.24253 1.93812 8.34328 2.02621 8.55478C2.57667 9.87654 3.12714 11.1983 3.67757 12.5201C3.76659 12.7339 3.6668 12.9757 3.45294 13.0645ZM9.37905 9.94781C9.22841 10.51 8.64364 10.848 8.08142 10.6975L5.6369 10.0425C5.532 10.0145 5.46967 9.90672 5.49771 9.80181C5.52575 9.69691 5.63353 9.63458 5.73843 9.66262L8.18216 10.3174C8.54076 10.4081 8.89879 10.2016 8.99908 9.84622C9.09046 9.48527 8.87882 9.12397 8.52793 9.02995L6.68878 8.53717C6.66181 8.52997 6.63765 8.51748 6.61712 8.50111C6.03369 8.08891 5.60048 7.93934 5.20369 7.94955C4.80226 7.9599 4.41268 8.13529 3.93514 8.36879C3.5032 8.58001 3.06999 8.78774 2.63537 8.99333L3.77463 11.7289L4.2129 11.5158C4.5344 11.3595 4.86408 11.3319 5.20729 11.4315L7.23573 12.0205C7.77128 12.176 8.46988 11.9041 9.02406 11.6884C10.3324 11.1794 11.6446 10.6783 12.9547 10.1734C13.261 10.0554 13.4818 9.75068 13.5394 9.44263C13.5804 9.22362 13.5379 8.9991 13.3529 8.85797C13.1213 8.68123 12.681 8.62866 11.9588 8.84053L9.41125 9.58789C9.42116 9.70585 9.41134 9.82727 9.37905 9.94781V9.94781ZM5.96487 4.37247C5.86803 4.42087 5.75027 4.38164 5.70184 4.28481C5.65341 4.18797 5.69267 4.07021 5.78951 4.02178L11.8181 1.00506L11.4863 0.892925C11.3836 0.858528 11.3281 0.747294 11.3625 0.644525C11.3969 0.541756 11.5082 0.486293 11.6109 0.52069L12.3891 0.783659C12.4918 0.818056 12.5473 0.929291 12.5129 1.03206L12.2499 1.8102C12.2155 1.91296 12.1043 1.96843 12.0015 1.934C11.8987 1.8996 11.8433 1.7884 11.8777 1.6856L11.9883 1.35837L5.96487 4.37247ZM2.35938 0.0012207C3.52435 0.0012207 4.46876 0.945631 4.46876 2.1106C4.46876 3.27557 3.52435 4.21998 2.35938 4.21998C1.19441 4.21998 0.25 3.27557 0.25 2.1106C0.25 0.945631 1.19441 0.0012207 2.35938 0.0012207ZM1.7503 3.05813C1.87532 3.17609 1.99724 3.26918 2.16703 3.30889L2.16998 3.43093C2.17252 3.53924 2.2624 3.62496 2.37071 3.62243C2.47902 3.6199 2.56475 3.53001 2.56219 3.4217L2.55938 3.30501C2.87331 3.22615 3.12334 2.96037 3.12334 2.62633C3.12334 2.21508 2.75361 1.92303 2.35935 1.92303C2.18225 1.92303 1.98835 1.80696 1.98835 1.61349C1.98835 1.41993 2.1836 1.30319 2.35935 1.30319C2.44114 1.30319 2.65317 1.37952 2.69865 1.44876C2.75811 1.53921 2.87966 1.56435 2.97014 1.5049C3.06059 1.44544 3.08574 1.32389 3.02628 1.23341C2.92902 1.08547 2.7214 0.984191 2.55229 0.9395L2.54872 0.790241C2.54618 0.681931 2.4563 0.596206 2.34799 0.598737C2.23968 0.601268 2.15395 0.691156 2.15648 0.799466L2.15972 0.934663C1.84517 1.0135 1.59536 1.27886 1.59533 1.61346C1.59533 2.02532 1.96577 2.31676 2.35932 2.31676C2.53643 2.31676 2.72953 2.43283 2.72953 2.6263C2.72953 2.81977 2.53643 2.93584 2.35932 2.93584C2.20168 2.93584 2.12977 2.87613 2.01943 2.77202C1.94043 2.69768 1.81614 2.70148 1.74181 2.78048C1.66753 2.85951 1.6713 2.9838 1.7503 3.05813V3.05813ZM11.0182 2.73205H12.0993C12.1768 2.73205 12.2399 2.79522 12.2399 2.87268V8.36586C12.1021 8.39289 11.9696 8.427 11.8479 8.4627L10.8776 8.74738V2.87268C10.8776 2.79522 10.9408 2.73205 11.0182 2.73205V2.73205ZM8.56137 3.96145H9.6425C9.71996 3.96145 9.7831 4.02462 9.78312 4.10205V9.06845L9.30503 9.20871C9.1754 8.94273 8.93715 8.73202 8.62989 8.64967L8.42078 8.59365V4.10205C8.42078 4.02462 8.48394 3.96145 8.56137 3.96145Z" fill="url(#paint0_linear_1449_19609)"/>
<defs>
<linearGradient id="paint0_linear_1449_19609" x1="0.25" y1="8.06372" x2="13.5538" y2="8.06372" gradientUnits="userSpaceOnUse">
<stop stop-color="#2942CB"/>
<stop offset="1" stop-color="#273DB1"/>
</linearGradient>
</defs>
</svg>
