<svg width="18" height="18" viewBox="0 0 18 18" fill="none" xmlns="http://www.w3.org/2000/svg">
<path d="M17.5814 14.0231C17.5814 11.828 15.7998 10.0464 13.6047 10.0464C11.4095 10.0464 9.62791 11.828 9.62791 14.0231C9.62791 16.2183 11.4095 17.9999 13.6047 17.9999C15.7998 17.9999 17.5814 16.2183 17.5814 14.0231ZM12.9767 12.3487V14.0231C12.9767 14.2609 13.1115 14.4786 13.3242 14.5849L14.1614 15.0035C14.472 15.1584 14.8487 15.0328 15.0045 14.7222C15.1593 14.4124 15.0329 14.0349 14.7232 13.88L14.2326 13.6347V12.3487C14.2326 12.0021 13.9513 11.7208 13.6047 11.7208C13.258 11.7208 12.9767 12.0021 12.9767 12.3487Z" fill="url(#paint0_linear_1359_26387)"/>
<path d="M10.8921 18C9.62372 17.1327 8.7907 15.6742 8.7907 14.0233C8.7907 11.366 10.9473 9.2093 13.6047 9.2093C13.675 9.2093 13.7445 9.21098 13.814 9.21349V5.184C13.814 4.77126 13.6398 4.37777 13.3342 4.09981C12.5046 3.34549 10.0256 1.09256 9.24363 0.38093C8.97321 0.135628 8.62242 0 8.25739 0C7.26781 0 4.23293 0 2.30233 0C1.692 0 1.10595 0.242791 0.673954 0.673954C0.242791 1.10595 0 1.692 0 2.30233V15.6977C0 16.308 0.242791 16.894 0.673954 17.326C1.10595 17.7572 1.692 18 2.30233 18H10.8921ZM2.72093 12.5581H6.06977C6.41637 12.5581 6.69767 12.2768 6.69767 11.9302C6.69767 11.5836 6.41637 11.3023 6.06977 11.3023H2.72093C2.37433 11.3023 2.09302 11.5836 2.09302 11.9302C2.09302 12.2768 2.37433 12.5581 2.72093 12.5581ZM2.72093 9.62791H8.16279C8.50939 9.62791 8.7907 9.3466 8.7907 9C8.7907 8.6534 8.50939 8.37209 8.16279 8.37209H2.72093C2.37433 8.37209 2.09302 8.6534 2.09302 9C2.09302 9.3466 2.37433 9.62791 2.72093 9.62791ZM2.72093 6.69767H5.65116C5.99777 6.69767 6.27907 6.41637 6.27907 6.06977C6.27907 5.72316 5.99777 5.44186 5.65116 5.44186H2.72093C2.37433 5.44186 2.09302 5.72316 2.09302 6.06977C2.09302 6.41637 2.37433 6.69767 2.72093 6.69767ZM8.16279 1.11181C8.24986 1.14781 8.33107 1.19972 8.40223 1.26419C9.18502 1.97581 11.6632 4.22874 12.4937 4.98307C12.5715 5.05507 12.6352 5.13963 12.6812 5.23256H8.5814C8.35033 5.23256 8.16279 5.04502 8.16279 4.81395V1.11181Z" fill="url(#paint1_linear_1359_26387)"/>
<defs>
<linearGradient id="paint0_linear_1359_26387" x1="9.62791" y1="14.7964" x2="17.5814" y2="14.7964" gradientUnits="userSpaceOnUse">
<stop stop-color="#2942CB"/>
<stop offset="1" stop-color="#273DB1"/>
</linearGradient>
<linearGradient id="paint1_linear_1359_26387" x1="-1.77096e-08" y1="10.75" x2="13.814" y2="10.75" gradientUnits="userSpaceOnUse">
<stop stop-color="#2942CB"/>
<stop offset="1" stop-color="#273DB1"/>
</linearGradient>
</defs>
</svg>
