<svg width="24" height="24" viewBox="0 0 24 24" fill="none" xmlns="http://www.w3.org/2000/svg">
<path d="M17.2095 6.16992H16.1528C15.8607 6.16992 15.6244 6.40624 15.6244 6.69832C15.6244 6.99037 15.8607 7.22672 16.1528 7.22672H17.2095C17.5016 7.22672 17.7379 6.9904 17.7379 6.69832C17.7379 6.40624 17.5016 6.16992 17.2095 6.16992Z" fill="#5A5A5A"/>
<path d="M11.8701 4.34856L11.3417 3.2918C11.2102 3.03069 10.8938 2.92596 10.6327 3.05548C10.3716 3.18601 10.2658 3.50337 10.3964 3.76447L10.9248 4.82123C11.0552 5.08128 11.3709 5.18812 11.6338 5.05755C11.8948 4.92702 12.0006 4.60966 11.8701 4.34856Z" fill="#5A5A5A"/>
<path d="M15.3324 3.05547C15.0723 2.92596 14.7539 3.03072 14.6234 3.29179L14.095 4.34855C13.9644 4.60965 14.0702 4.92697 14.3313 5.05754C14.5949 5.18847 14.9103 5.0804 15.0403 4.82122L15.5687 3.76446C15.6992 3.50336 15.5934 3.18601 15.3324 3.05547Z" fill="#5A5A5A"/>
<path d="M9.81221 6.16992H8.75545C8.46341 6.16992 8.22705 6.40624 8.22705 6.69832C8.22705 6.99037 8.46337 7.22672 8.75545 7.22672H9.81221C10.1043 7.22672 10.3406 6.9904 10.3406 6.69832C10.3406 6.40624 10.1043 6.16992 9.81221 6.16992Z" fill="#5A5A5A"/>
<path d="M6.64196 11.489H4.5284C4.2366 11.489 4 11.7256 4 12.0174V20.4715C4 20.7633 4.23657 20.9999 4.5284 20.9999H6.64192C6.93372 20.9999 7.17032 20.7633 7.17032 20.4715V12.0174C7.17032 11.7256 6.93379 11.489 6.64196 11.489Z" fill="#5A5A5A"/>
<path d="M19.8411 12.8898C19.7479 12.0701 18.9822 11.4892 18.1572 11.4892H14.0378C14.3879 10.8623 14.5758 9.08926 14.5675 8.36497C14.5537 7.16607 13.5608 6.20532 12.3619 6.20532H11.9259C11.6338 6.20532 11.3975 6.44164 11.3975 6.73372C11.3975 7.95558 10.9217 10.161 10.0244 11.0583C9.42048 11.6623 8.90418 11.8811 8.22717 12.2195V20.1478C9.26368 20.4933 10.5797 21.0001 12.5856 21.0001H16.042C17.1809 21.0001 18.0679 19.9453 17.6266 18.8308C18.299 18.6477 18.7948 18.031 18.7948 17.3014C18.7948 17.0955 18.7551 16.8984 18.6834 16.7173C19.8164 16.4086 20.2335 15.0095 19.4471 14.1311C19.736 13.8083 19.8953 13.3668 19.8411 12.8898Z" fill="#5A5A5A"/>
</svg>
