<svg width="38" height="38" viewBox="0 0 38 38" fill="none" xmlns="http://www.w3.org/2000/svg">
<path d="M27.9286 18.1071C33.3528 18.1071 37.75 22.5043 37.75 27.9286C37.75 33.3528 33.3528 37.75 27.9286 37.75C22.5043 37.75 18.1071 33.3528 18.1071 27.9286C18.1071 22.5043 22.5043 18.1071 27.9286 18.1071ZM27.9286 21.6772L27.7681 21.6916C27.4036 21.7577 27.1163 22.0451 27.0501 22.4096L27.0357 22.5701L27.0351 27.0343L22.5672 27.0357L22.4067 27.0501C22.0423 27.1163 21.7549 27.4036 21.6888 27.7681L21.6744 27.9286L21.6888 28.0891C21.7549 28.4535 22.0423 28.7409 22.4067 28.807L22.5672 28.8214L27.0369 28.8201L27.0377 33.2919L27.0521 33.4524C27.1182 33.8169 27.4056 34.1043 27.7701 34.1704L27.9306 34.1848L28.091 34.1704C28.4555 34.1043 28.7429 33.8169 28.809 33.4524L28.8234 33.2919L28.8226 28.8201L33.2939 28.8214L33.4544 28.807C33.8188 28.7409 34.1062 28.4535 34.1723 28.0891L34.1867 27.9286L34.1723 27.7681C34.1062 27.4036 33.8188 27.1163 33.4544 27.0501L33.2939 27.0357L28.8208 27.0343L28.8214 22.5701L28.807 22.4096C28.7409 22.0451 28.4535 21.7577 28.0891 21.6916L27.9286 21.6772ZM18.1463 21.6782C16.9912 23.4824 16.3214 25.6273 16.3214 27.9286C16.3214 29.5068 16.6364 31.0115 17.207 32.3831C12.6465 32.1381 10.0714 30.202 10.0714 26.5893V24.8036C10.0714 23.0777 11.4705 21.6786 13.1964 21.6786L18.1463 21.6782ZM11.1893 12.7502C11.0424 13.3209 10.9643 13.9192 10.9643 14.5357C10.9643 16.5277 11.7797 18.3293 13.095 19.6248L13.3844 19.8946L13.1964 19.8929C12.6583 19.8929 12.1404 19.9794 11.6559 20.1394C10.1117 20.6491 8.90653 21.9043 8.46646 23.4789L8.40498 23.4804C3.21047 23.4804 0.25 21.5343 0.25 17.6607V15.875C0.25 14.2354 1.5127 12.8907 3.1187 12.7604L3.375 12.75L11.1893 12.7502ZM18.1071 9.17857C21.0658 9.17857 23.4643 11.577 23.4643 14.5357C23.4643 17.4944 21.0658 19.8929 18.1071 19.8929C15.1485 19.8929 12.75 17.4944 12.75 14.5357C12.75 11.577 15.1485 9.17857 18.1071 9.17857ZM32.8393 12.75C34.5652 12.75 35.9643 14.1491 35.9643 15.875L35.9624 17.593C35.9975 18.2516 35.9442 18.8555 35.8062 19.4043C33.7354 17.49 30.9685 16.3214 27.9286 16.3214C26.8834 16.3214 25.8705 16.4596 24.9071 16.7186C25.1306 16.0326 25.25 15.2981 25.25 14.5357C25.25 13.9192 25.1719 13.3209 25.025 12.7502L32.8393 12.75ZM8.28571 0.25C11.2444 0.25 13.6429 2.64847 13.6429 5.60714C13.6429 8.56581 11.2444 10.9643 8.28571 10.9643C5.32705 10.9643 2.92857 8.56581 2.92857 5.60714C2.92857 2.64847 5.32705 0.25 8.28571 0.25ZM27.9286 0.25C30.8872 0.25 33.2857 2.64847 33.2857 5.60714C33.2857 8.56581 30.8872 10.9643 27.9286 10.9643C24.9699 10.9643 22.5714 8.56581 22.5714 5.60714C22.5714 2.64847 24.9699 0.25 27.9286 0.25Z" fill="url(#paint0_linear_1377_1329)"/>
<defs>
<linearGradient id="paint0_linear_1377_1329" x1="0.25" y1="22.6458" x2="37.75" y2="22.6458" gradientUnits="userSpaceOnUse">
<stop stop-color="#2942CB"/>
<stop offset="1" stop-color="#273DB1"/>
</linearGradient>
</defs>
</svg>
