<svg width="35" height="34" viewBox="0 0 35 34" fill="none" xmlns="http://www.w3.org/2000/svg">
<path d="M26.9037 7.59313L24.7787 5.46812C24.5711 5.26059 24.2349 5.26059 24.0274 5.46812C23.8199 5.67566 23.8199 6.01184 24.0274 6.21932L25.7768 7.96871L24.0274 9.7181C23.9278 9.81771 23.8718 9.95258 23.8718 10.0937V11.6875C23.8718 12.8595 24.8249 13.8125 25.9968 13.8125V22.8437C25.9968 23.1368 25.7587 23.375 25.4656 23.375C25.1725 23.375 24.9343 23.1368 24.9343 22.8437V21.7812C24.9343 20.9024 24.2194 20.1875 23.3405 20.1875H22.8093V6.37501C22.8093 5.20301 21.8563 4.25 20.6843 4.25H10.0594C8.8874 4.25 7.93434 5.20301 7.93434 6.37501V25.5C6.76239 25.5 5.80933 26.453 5.80933 27.625V29.2187C5.80933 29.5124 6.04694 29.75 6.34059 29.75H24.4031C24.6967 29.75 24.9343 29.5124 24.9343 29.2187V27.625C24.9343 26.453 23.9813 25.5 22.8093 25.5V21.25H23.3406C23.6337 21.25 23.8719 21.4881 23.8719 21.7813V22.8437C23.8719 23.7226 24.5868 24.4375 25.4656 24.4375C26.3445 24.4375 27.0594 23.7226 27.0594 22.8437V7.96876C27.0593 7.82761 27.0033 7.69274 26.9037 7.59313ZM20.6843 13.2911C20.6843 13.5847 20.4467 13.8223 20.153 13.8223H10.5906C10.2969 13.8223 10.0593 13.5847 10.0593 13.2911V6.90623C10.0593 6.61258 10.2969 6.37496 10.5906 6.37496H20.153C20.4467 6.37496 20.6843 6.61258 20.6843 6.90623V13.2911Z" fill="url(#paint0_linear_1226_28667)"/>
<defs>
<linearGradient id="paint0_linear_1226_28667" x1="5.80933" y1="19.4792" x2="27.0594" y2="19.4792" gradientUnits="userSpaceOnUse">
<stop stop-color="#2942CB"/>
<stop offset="1" stop-color="#273DB1"/>
</linearGradient>
</defs>
</svg>
