<svg width="14" height="12" viewBox="0 0 14 12" fill="none" xmlns="http://www.w3.org/2000/svg">
<path d="M1.8584 0.896729C1.8584 0.678303 1.68132 0.501221 1.46289 0.501221H0.645508C0.427082 0.501221 0.25 0.678303 0.25 0.896729V6.17017C0.25 6.38859 0.427082 6.56567 0.645508 6.56567H1.46289C1.68132 6.56567 1.8584 6.38859 1.8584 6.17017V4.4563H2.64941V2.6106H1.8584V0.896729Z" fill="url(#paint0_linear_1449_11361)"/>
<path d="M13.3545 0.501221H12.5371C12.3187 0.501221 12.1416 0.678303 12.1416 0.896729V2.6106H11.3506V4.4563H12.1416V6.17017C12.1416 6.38859 12.3187 6.56567 12.5371 6.56567H13.3545C13.5729 6.56567 13.75 6.38859 13.75 6.17017V0.896729C13.75 0.678303 13.5729 0.501221 13.3545 0.501221Z" fill="url(#paint1_linear_1449_11361)"/>
<path d="M9.66968 1.55591C9.17819 1.55591 8.77979 1.95432 8.77979 2.4458C8.77979 1.95432 8.38138 1.55591 7.88989 1.55591C7.39841 1.55591 7 1.95432 7 2.4458C7 1.95432 6.60159 1.55591 6.11011 1.55591C5.61862 1.55591 5.22021 1.95432 5.22021 2.4458C5.22021 1.95432 4.82181 1.55591 4.33032 1.55591C3.83884 1.55591 3.44043 1.95432 3.44043 2.4458V4.10741C3.68032 3.99313 3.9485 3.92896 4.23145 3.92896H6.86816C6.91275 3.92896 6.95668 3.93164 7 3.93644C7.59242 4.00226 8.05469 4.50579 8.05469 5.11548V5.24731C8.05469 5.33219 8.04965 5.41585 8.03987 5.49815C8.4599 5.42682 8.77979 5.06143 8.77979 4.62109C8.77979 5.11258 9.17819 5.51099 9.66968 5.51099C10.1612 5.51099 10.5596 5.11258 10.5596 4.62109V2.4458C10.5596 1.95432 10.1612 1.55591 9.66968 1.55591Z" fill="url(#paint2_linear_1449_11361)"/>
<path d="M8.77979 6.04616C8.52149 6.20803 8.21653 6.302 7.88989 6.302C7.88536 6.302 7.88087 6.30179 7.87634 6.30176C7.57963 6.9249 6.94386 7.35669 6.20898 7.35669H5.68164V7.47735C5.68164 7.69031 5.51798 7.87357 5.30525 7.88359C5.07812 7.89429 4.89062 7.71331 4.89062 7.48853V6.96118C4.89062 6.74276 5.06771 6.56567 5.28613 6.56567H5.94531C6.67342 6.56567 7.26367 5.97542 7.26367 5.24731V5.11548C7.26367 4.89705 7.08659 4.71997 6.86816 4.71997H4.23145C3.64897 4.71997 3.17676 5.19218 3.17676 5.77466V7.48853C3.17676 8.53462 3.9933 9.39361 5.02246 9.46171V10.9163C5.02246 11.1347 5.19954 11.3118 5.41797 11.3118H8.58203C8.80046 11.3118 8.97754 11.1347 8.97754 10.9163V9.42633C9.87906 9.24255 10.5596 8.44352 10.5596 7.48853V6.04616C10.3013 6.20803 9.99631 6.302 9.66968 6.302C9.34304 6.302 9.03808 6.20803 8.77979 6.04616Z" fill="url(#paint3_linear_1449_11361)"/>
<defs>
<linearGradient id="paint0_linear_1449_11361" x1="0.25" y1="4.12305" x2="2.64941" y2="4.12305" gradientUnits="userSpaceOnUse">
<stop stop-color="#2942CB"/>
<stop offset="1" stop-color="#273DB1"/>
</linearGradient>
<linearGradient id="paint1_linear_1449_11361" x1="11.3506" y1="4.12305" x2="13.75" y2="4.12305" gradientUnits="userSpaceOnUse">
<stop stop-color="#2942CB"/>
<stop offset="1" stop-color="#273DB1"/>
</linearGradient>
<linearGradient id="paint2_linear_1449_11361" x1="3.44043" y1="3.91797" x2="10.5596" y2="3.91797" gradientUnits="userSpaceOnUse">
<stop stop-color="#2942CB"/>
<stop offset="1" stop-color="#273DB1"/>
</linearGradient>
<linearGradient id="paint3_linear_1449_11361" x1="3.17676" y1="8.65674" x2="10.5596" y2="8.65674" gradientUnits="userSpaceOnUse">
<stop stop-color="#2942CB"/>
<stop offset="1" stop-color="#273DB1"/>
</linearGradient>
</defs>
</svg>
