<svg width="20" height="18" viewBox="0 0 20 18" fill="none" xmlns="http://www.w3.org/2000/svg">
<path d="M16.3882 3.86314C16.6774 4.08004 16.9682 4.15332 17.241 4.15332C17.5891 4.15332 17.9078 4.03384 18.1553 3.94103C18.5903 3.77795 18.7047 3.76488 18.8359 3.86314C19.0883 4.05254 19.4464 4.00132 19.6356 3.74885C19.825 3.49645 19.7738 3.13837 19.5213 2.94909C18.8631 2.45534 18.1957 2.70561 17.7542 2.8712C17.3194 3.03429 17.2048 3.0475 17.0738 2.94909C16.8214 2.7598 16.4634 2.81099 16.274 3.06331C16.0847 3.31574 16.1358 3.67382 16.3882 3.86314Z" fill="url(#paint0_linear_1472_20568)"/>
<path d="M19.5213 5.39667C18.863 4.90289 18.1956 5.15319 17.7541 5.31882C17.3192 5.48187 17.2048 5.49493 17.0738 5.39671C16.8214 5.20735 16.4633 5.2585 16.274 5.51089C16.0846 5.76328 16.1358 6.12137 16.3882 6.31069C16.6774 6.52763 16.9682 6.60098 17.241 6.60094C17.5892 6.60094 17.9078 6.48147 18.1554 6.38865C18.5903 6.22549 18.7048 6.21247 18.8359 6.31073C19.0883 6.50017 19.4464 6.44891 19.6356 6.19643C19.8249 5.94404 19.7737 5.58596 19.5213 5.39667Z" fill="url(#paint1_linear_1472_20568)"/>
<path d="M19.5213 7.84434C18.863 7.35063 18.1957 7.60085 17.7541 7.76645C17.3194 7.92953 17.2048 7.94271 17.0738 7.84434C16.8213 7.65505 16.4633 7.70624 16.274 7.95856C16.0847 8.21099 16.1358 8.56903 16.3882 8.75839C16.6774 8.97529 16.9682 9.04861 17.241 9.04857C17.5892 9.04857 17.9078 8.9291 18.1553 8.83628C18.5903 8.67324 18.7048 8.66013 18.8359 8.75839C19.0883 8.94783 19.4464 8.89653 19.6357 8.6441C19.8249 8.3917 19.7738 8.03362 19.5213 7.84434Z" fill="url(#paint2_linear_1472_20568)"/>
<path d="M5.4107 4.28333C4.54482 4.28333 3.84033 4.9878 3.84033 5.85368C3.84033 6.7196 4.54482 7.42411 5.4107 7.42411C6.27662 7.42411 6.98113 6.7196 6.98113 5.85368C6.98113 4.9878 6.27662 4.28333 5.4107 4.28333Z" fill="url(#paint3_linear_1472_20568)"/>
<path d="M14.3983 1.94606C10.8043 1.20769 6.7771 0.693115 5.41062 0.693115C2.56504 0.693115 0.25 3.00816 0.25 5.85375C0.25 8.69933 2.56504 11.0144 5.41062 11.0144C6.77729 11.0144 10.8045 10.4998 14.3983 9.7615C14.664 9.70688 14.8546 9.47311 14.8546 9.20191V2.50569C14.8546 2.23448 14.664 2.00068 14.3983 1.94606ZM5.41062 8.56675C3.91473 8.56675 2.6977 7.34968 2.6977 5.85375C2.6977 4.35785 3.91473 3.14081 5.41062 3.14081C6.90656 3.14081 8.12363 4.35785 8.12363 5.85375C8.12363 7.34968 6.90656 8.56675 5.41062 8.56675Z" fill="url(#paint4_linear_1472_20568)"/>
<path d="M8.5947 11.8802C7.19577 12.0571 6.05042 12.1568 5.41046 12.1568C4.61393 12.1568 3.85164 12.0079 3.14941 11.7371L3.53671 15.707C3.64643 16.8309 4.65438 17.7453 5.78359 17.7453H7.0074C7.57754 17.7453 8.096 17.5199 8.4673 17.1106C8.8386 16.7013 9.01261 16.1635 8.95724 15.596L8.5947 11.8802Z" fill="url(#paint5_linear_1472_20568)"/>
<defs>
<linearGradient id="paint0_linear_1472_20568" x1="16.1597" y1="3.55139" x2="19.7499" y2="3.55139" gradientUnits="userSpaceOnUse">
<stop stop-color="#2942CB"/>
<stop offset="1" stop-color="#273DB1"/>
</linearGradient>
<linearGradient id="paint1_linear_1472_20568" x1="16.1597" y1="5.99899" x2="19.7499" y2="5.99899" gradientUnits="userSpaceOnUse">
<stop stop-color="#2942CB"/>
<stop offset="1" stop-color="#273DB1"/>
</linearGradient>
<linearGradient id="paint2_linear_1472_20568" x1="16.1597" y1="8.44665" x2="19.7499" y2="8.44665" gradientUnits="userSpaceOnUse">
<stop stop-color="#2942CB"/>
<stop offset="1" stop-color="#273DB1"/>
</linearGradient>
<linearGradient id="paint3_linear_1472_20568" x1="3.84033" y1="6.15907" x2="6.98113" y2="6.15907" gradientUnits="userSpaceOnUse">
<stop stop-color="#2942CB"/>
<stop offset="1" stop-color="#273DB1"/>
</linearGradient>
<linearGradient id="paint4_linear_1472_20568" x1="0.25" y1="6.8572" x2="14.8546" y2="6.8572" gradientUnits="userSpaceOnUse">
<stop stop-color="#2942CB"/>
<stop offset="1" stop-color="#273DB1"/>
</linearGradient>
<linearGradient id="paint5_linear_1472_20568" x1="3.14941" y1="15.3253" x2="8.96732" y2="15.3253" gradientUnits="userSpaceOnUse">
<stop stop-color="#2942CB"/>
<stop offset="1" stop-color="#273DB1"/>
</linearGradient>
</defs>
</svg>
