<svg width="21" height="17" viewBox="0 0 21 17" fill="none" xmlns="http://www.w3.org/2000/svg">
<path d="M18.3154 3.22418H10.6665C8.07232 3.22418 5.62667 4.24115 3.78007 6.08775C1.93347 7.93435 0.916504 10.38 0.916504 12.9742V13.0148H20.4165V5.32523C20.4165 4.16669 19.474 3.22418 18.3154 3.22418ZM10.4585 11.5423C10.3522 11.6489 10.2048 11.7098 10.0544 11.7098C9.90433 11.7098 9.75694 11.6489 9.65068 11.5423C9.54442 11.436 9.48344 11.289 9.48344 11.1385C9.48344 10.988 9.54442 10.8407 9.65068 10.7345C9.75694 10.6282 9.90429 10.5669 10.0544 10.5669C10.2048 10.5669 10.3522 10.6282 10.4585 10.7345C10.5647 10.8407 10.6257 10.9881 10.6257 11.1385C10.6257 11.289 10.5647 11.436 10.4585 11.5423ZM12.9063 11.5423C12.8 11.6489 12.6526 11.7098 12.5022 11.7098C12.3521 11.7098 12.2047 11.6489 12.0981 11.5423C11.9919 11.436 11.9309 11.2886 11.9309 11.1385C11.9309 10.9881 11.9919 10.8407 12.0981 10.7345C12.2048 10.6282 12.3521 10.5669 12.5022 10.5669C12.6526 10.5669 12.8 10.6282 12.9063 10.7345C13.0125 10.8407 13.0735 10.9881 13.0735 11.1385C13.0734 11.2886 13.0125 11.436 12.9063 11.5423ZM15.354 11.5423C15.2474 11.6489 15.1004 11.7098 14.95 11.7098C14.7995 11.7098 14.6525 11.6489 14.5459 11.5423C14.4396 11.436 14.3787 11.2886 14.3787 11.1385C14.3787 10.9881 14.4396 10.8407 14.5459 10.7345C14.6525 10.6282 14.7995 10.5669 14.95 10.5669C15.1004 10.5669 15.2474 10.6282 15.354 10.7345C15.4603 10.8407 15.5212 10.9881 15.5212 11.1385C15.5212 11.2886 15.4603 11.436 15.354 11.5423ZM16.8262 8.11948H8.79009V8.07888C8.79009 7.38161 9.35738 6.81439 10.0546 6.81439H16.8262V8.11948ZM17.8014 11.5423C17.6952 11.6489 17.5478 11.7098 17.3977 11.7098C17.2473 11.7098 17.0999 11.6489 16.9936 11.5423C16.8874 11.436 16.8264 11.289 16.8264 11.1385C16.8264 10.988 16.8874 10.8407 16.9936 10.7345C17.0999 10.6282 17.2473 10.5669 17.3977 10.5669C17.5478 10.5669 17.6952 10.6282 17.8014 10.7345C17.9077 10.8407 17.969 10.9881 17.969 11.1385C17.969 11.2886 17.9077 11.436 17.8014 11.5423Z" fill="url(#paint0_linear_1472_20544)"/>
<path d="M0.916504 16.0338C0.916504 16.3493 1.17229 16.6051 1.48779 16.6051H18.3154C19.474 16.6051 20.4165 15.6625 20.4165 14.5039V14.1573H0.916504V16.0338Z" fill="url(#paint1_linear_1472_20544)"/>
<path d="M11.2377 2.08162V1.34778C11.2377 1.03227 10.982 0.776489 10.6665 0.776489H8.21875C7.90325 0.776489 7.64746 1.03227 7.64746 1.34778V2.5073C8.61736 2.22718 9.63113 2.08158 10.6665 2.08158H11.2377V2.08162Z" fill="url(#paint2_linear_1472_20544)"/>
<defs>
<linearGradient id="paint0_linear_1472_20544" x1="0.916504" y1="9.07135" x2="20.4165" y2="9.07135" gradientUnits="userSpaceOnUse">
<stop stop-color="#2942CB"/>
<stop offset="1" stop-color="#273DB1"/>
</linearGradient>
<linearGradient id="paint1_linear_1472_20544" x1="0.916504" y1="15.6192" x2="20.4165" y2="15.6192" gradientUnits="userSpaceOnUse">
<stop stop-color="#2942CB"/>
<stop offset="1" stop-color="#273DB1"/>
</linearGradient>
<linearGradient id="paint2_linear_1472_20544" x1="7.64746" y1="1.81017" x2="11.2377" y2="1.81017" gradientUnits="userSpaceOnUse">
<stop stop-color="#2942CB"/>
<stop offset="1" stop-color="#273DB1"/>
</linearGradient>
</defs>
</svg>
