<svg width="35" height="34" viewBox="0 0 35 34" fill="none" xmlns="http://www.w3.org/2000/svg">
<path d="M27.8674 21.8519H7.27716C6.97819 21.8519 6.73584 22.0942 6.73584 22.3932V25.2004C6.73584 25.4994 6.97819 25.7418 7.27716 25.7418H27.8674C28.1664 25.7418 28.4087 25.4994 28.4087 25.2004V22.3932C28.4087 22.0942 28.1664 21.8519 27.8674 21.8519V21.8519Z" fill="url(#paint0_linear_1226_28617)"/>
<path d="M15.7864 17.1291C15.7864 16.7819 15.5015 16.4971 15.1516 16.4971C14.8017 16.4971 14.5195 16.7819 14.5195 17.1291C14.5195 17.4791 14.8016 17.7639 15.1516 17.7639C15.5015 17.7639 15.7864 17.4791 15.7864 17.1291Z" fill="url(#paint1_linear_1226_28617)"/>
<path d="M15.4122 18.3932C15.1653 18.6401 15.1653 19.0416 15.4122 19.2884C15.6591 19.5353 16.0605 19.5353 16.3074 19.2884C16.5569 19.0416 16.5569 18.6401 16.3074 18.3932C16.0605 18.1463 15.6617 18.1463 15.4122 18.3932Z" fill="url(#paint2_linear_1226_28617)"/>
<path d="M15.4122 14.9698C15.1653 15.2194 15.1653 15.6182 15.4122 15.8677C15.6617 16.1146 16.0632 16.1146 16.3101 15.8677C16.557 15.6209 16.557 15.2194 16.3074 14.9726C16.0605 14.7257 15.6591 14.7257 15.4122 14.9698Z" fill="url(#paint3_linear_1226_28617)"/>
<path d="M17.5715 18.9168C17.2216 18.9168 16.9395 19.1989 16.9395 19.5489C16.9395 19.8988 17.2216 20.1836 17.5715 20.1836C17.9214 20.1836 18.2036 19.8988 18.2036 19.5489C18.2036 19.1989 17.9214 18.9168 17.5715 18.9168V18.9168Z" fill="url(#paint4_linear_1226_28617)"/>
<path d="M17.5715 15.3441C17.9214 15.3441 18.2036 15.062 18.2036 14.7121C18.2036 14.3594 17.9214 14.0773 17.5715 14.0773C17.2216 14.0773 16.9395 14.3594 16.9395 14.7121C16.9395 15.0621 17.2216 15.3441 17.5715 15.3441V15.3441Z" fill="url(#paint5_linear_1226_28617)"/>
<path d="M17.5715 16.082C16.9937 16.082 16.5244 16.5513 16.5244 17.1291C16.5244 17.7096 16.9937 18.1762 17.5715 18.1762C18.1493 18.1762 18.6186 17.7096 18.6186 17.1291C18.6186 16.5513 18.1493 16.082 17.5715 16.082V16.082Z" fill="url(#paint6_linear_1226_28617)"/>
<path d="M18.8356 18.3932C18.586 18.6401 18.586 19.0416 18.8356 19.2884C19.0825 19.5353 19.484 19.5353 19.7308 19.2884C19.9776 19.0416 19.9776 18.6401 19.7308 18.3932C19.4812 18.1463 19.0824 18.1463 18.8356 18.3932Z" fill="url(#paint7_linear_1226_28617)"/>
<path d="M19.7306 15.8677C19.9775 15.6182 19.9775 15.2194 19.7306 14.9698C19.4838 14.7257 19.0823 14.7257 18.8355 14.9726C18.5859 15.2194 18.5859 15.6209 18.8328 15.8677C19.0796 16.1146 19.4811 16.1146 19.7306 15.8677V15.8677Z" fill="url(#paint8_linear_1226_28617)"/>
<path d="M19.3564 17.1291C19.3564 17.4791 19.6413 17.7639 19.9912 17.7639C20.3411 17.7639 20.6233 17.4791 20.6233 17.1291C20.6233 16.7819 20.3412 16.4971 19.9912 16.4971C19.6413 16.4971 19.3564 16.7819 19.3564 17.1291Z" fill="url(#paint9_linear_1226_28617)"/>
<path d="M20.0563 10.662L19.6033 12.4578C19.4894 12.7833 19.1829 13.0058 18.8356 13.0058H16.3318C15.9846 13.0058 15.6781 12.7833 15.5641 12.4578L15.1111 10.6593C14.395 10.7326 13.6842 10.8357 12.9762 10.9713V12.5717C12.9762 12.843 12.8406 13.0926 12.6181 13.2472C9.73994 15.222 8.55993 17.1942 7.56982 21.3093H27.576C26.5858 17.2023 25.4139 15.2329 22.5493 13.2635C22.3269 13.1088 22.1913 12.8593 22.1913 12.5907V10.9767C21.4832 10.8383 20.7725 10.7353 20.0563 10.662ZM17.5715 20.6122C15.6482 20.6122 14.0884 19.0551 14.0884 17.1291C14.0884 15.2085 15.6482 13.646 17.5715 13.646C19.4948 13.646 21.0546 15.2085 21.0546 17.1291C21.0546 19.0551 19.4948 20.6122 17.5715 20.6122V20.6122Z" fill="url(#paint10_linear_1226_28617)"/>
<path d="M28.0532 9.12395C21.3366 6.4031 13.8061 6.4031 7.08948 9.12395C5.14448 9.91061 4.29268 12.1622 5.16071 14.0177C7.0325 12.9136 9.03986 12.0618 11.1313 11.4921C11.0744 11.2887 11.0174 11.0852 10.9631 10.879C15.2872 9.6963 19.8553 9.6963 24.1794 10.879C24.1251 11.0852 24.0682 11.2887 24.0112 11.4921C26.1027 12.0618 28.1101 12.9136 29.9818 14.0177C30.8499 12.1622 29.9981 9.91061 28.0532 9.12395V9.12395Z" fill="url(#paint11_linear_1226_28617)"/>
<path d="M10.8631 13.8073C11.3267 13.6609 11.5901 13.1738 11.4618 12.7049L11.2732 12.0154C9.24689 12.5695 7.27704 13.3959 5.41895 14.4947C5.54022 14.6998 5.66149 14.9049 5.78276 15.11C6.03009 15.5282 6.56334 15.6783 6.99086 15.4474C8.23915 14.7733 9.53601 14.2266 10.8631 13.8073V13.8073Z" fill="url(#paint12_linear_1226_28617)"/>
<path d="M23.6808 12.705C23.5526 13.1739 23.816 13.661 24.2796 13.8074C25.6067 14.2266 26.9035 14.7733 28.1517 15.4475C28.5792 15.6784 29.1125 15.5282 29.3598 15.11C29.4811 14.9049 29.6023 14.6998 29.7236 14.4948C27.8655 13.3959 25.8956 12.5695 23.8694 12.0154C23.8066 12.2453 23.7437 12.4751 23.6808 12.705Z" fill="url(#paint13_linear_1226_28617)"/>
<defs>
<linearGradient id="paint0_linear_1226_28617" x1="6.73584" y1="24.175" x2="28.4087" y2="24.175" gradientUnits="userSpaceOnUse">
<stop stop-color="#2942CB"/>
<stop offset="1" stop-color="#273DB1"/>
</linearGradient>
<linearGradient id="paint1_linear_1226_28617" x1="14.5195" y1="17.2536" x2="15.7864" y2="17.2536" gradientUnits="userSpaceOnUse">
<stop stop-color="#2942CB"/>
<stop offset="1" stop-color="#273DB1"/>
</linearGradient>
<linearGradient id="paint2_linear_1226_28617" x1="15.2271" y1="18.9639" x2="16.4945" y2="18.9639" gradientUnits="userSpaceOnUse">
<stop stop-color="#2942CB"/>
<stop offset="1" stop-color="#273DB1"/>
</linearGradient>
<linearGradient id="paint3_linear_1226_28617" x1="15.2271" y1="15.543" x2="16.4949" y2="15.543" gradientUnits="userSpaceOnUse">
<stop stop-color="#2942CB"/>
<stop offset="1" stop-color="#273DB1"/>
</linearGradient>
<linearGradient id="paint4_linear_1226_28617" x1="16.9395" y1="19.6734" x2="18.2036" y2="19.6734" gradientUnits="userSpaceOnUse">
<stop stop-color="#2942CB"/>
<stop offset="1" stop-color="#273DB1"/>
</linearGradient>
<linearGradient id="paint5_linear_1226_28617" x1="16.9395" y1="14.8339" x2="18.2036" y2="14.8339" gradientUnits="userSpaceOnUse">
<stop stop-color="#2942CB"/>
<stop offset="1" stop-color="#273DB1"/>
</linearGradient>
<linearGradient id="paint6_linear_1226_28617" x1="16.5244" y1="17.3327" x2="18.6186" y2="17.3327" gradientUnits="userSpaceOnUse">
<stop stop-color="#2942CB"/>
<stop offset="1" stop-color="#273DB1"/>
</linearGradient>
<linearGradient id="paint7_linear_1226_28617" x1="18.6484" y1="18.9639" x2="19.9159" y2="18.9639" gradientUnits="userSpaceOnUse">
<stop stop-color="#2942CB"/>
<stop offset="1" stop-color="#273DB1"/>
</linearGradient>
<linearGradient id="paint8_linear_1226_28617" x1="18.6479" y1="15.543" x2="19.9158" y2="15.543" gradientUnits="userSpaceOnUse">
<stop stop-color="#2942CB"/>
<stop offset="1" stop-color="#273DB1"/>
</linearGradient>
<linearGradient id="paint9_linear_1226_28617" x1="19.3564" y1="17.2536" x2="20.6233" y2="17.2536" gradientUnits="userSpaceOnUse">
<stop stop-color="#2942CB"/>
<stop offset="1" stop-color="#273DB1"/>
</linearGradient>
<linearGradient id="paint10_linear_1226_28617" x1="7.56982" y1="17.0197" x2="27.576" y2="17.0197" gradientUnits="userSpaceOnUse">
<stop stop-color="#2942CB"/>
<stop offset="1" stop-color="#273DB1"/>
</linearGradient>
<linearGradient id="paint11_linear_1226_28617" x1="4.82129" y1="11.2247" x2="30.3213" y2="11.2247" gradientUnits="userSpaceOnUse">
<stop stop-color="#2942CB"/>
<stop offset="1" stop-color="#273DB1"/>
</linearGradient>
<linearGradient id="paint12_linear_1226_28617" x1="5.41895" y1="14.1298" x2="11.4942" y2="14.1298" gradientUnits="userSpaceOnUse">
<stop stop-color="#2942CB"/>
<stop offset="1" stop-color="#273DB1"/>
</linearGradient>
<linearGradient id="paint13_linear_1226_28617" x1="23.6484" y1="14.1298" x2="29.7236" y2="14.1298" gradientUnits="userSpaceOnUse">
<stop stop-color="#2942CB"/>
<stop offset="1" stop-color="#273DB1"/>
</linearGradient>
</defs>
</svg>
