<svg width="14" height="14" viewBox="0 0 14 14" fill="none" xmlns="http://www.w3.org/2000/svg">
<g clip-path="url(#clip0_703_30796)">
<path d="M1.866 0.0102234C0.837851 0.0102234 0.000752786 0.847161 0 1.87611C0 2.90506 0.837098 3.74216 1.866 3.74216C2.89452 3.74216 3.73119 2.90506 3.73119 1.87611C3.73119 0.847268 2.89446 0.0102234 1.866 0.0102234Z" fill="url(#paint0_linear_703_30796)"/>
<path d="M3.26644 4.49197H0.465321C0.332078 4.49197 0.223999 4.6 0.223999 4.73335V13.7493C0.223999 13.8826 0.332078 13.9906 0.465321 13.9906H3.26638C3.39968 13.9906 3.50776 13.8826 3.50776 13.7493V4.73335C3.50781 4.59994 3.39973 4.49197 3.26644 4.49197Z" fill="url(#paint1_linear_703_30796)"/>
<path d="M10.4274 4.38533C9.40234 4.38533 8.50152 4.69747 7.95182 5.20646V4.73285C7.95182 4.5995 7.84375 4.49147 7.71045 4.49147H5.02348C4.89018 4.49147 4.7821 4.5995 4.7821 4.73285V13.7488C4.7821 13.8821 4.89018 13.9901 5.02348 13.9901H7.82191C7.95521 13.9901 8.06329 13.8821 8.06329 13.7488V9.28818C8.06329 8.00833 8.2987 7.21505 9.47353 7.21505C10.631 7.21645 10.7176 8.0671 10.7176 9.36464V13.7488C10.7176 13.8821 10.8257 13.9901 10.959 13.9901H13.7588C13.892 13.9901 14.0001 13.8821 14.0001 13.7488V8.80317C14 6.74628 13.594 4.38533 10.4274 4.38533Z" fill="url(#paint2_linear_703_30796)"/>
</g>
<defs>
<linearGradient id="paint0_linear_703_30796" x1="-4.7834e-09" y1="2.23902" x2="3.73119" y2="2.23902" gradientUnits="userSpaceOnUse">
<stop stop-color="#2942CB"/>
<stop offset="1" stop-color="#273DB1"/>
</linearGradient>
<linearGradient id="paint1_linear_703_30796" x1="0.223999" y1="10.1648" x2="3.50776" y2="10.1648" gradientUnits="userSpaceOnUse">
<stop stop-color="#2942CB"/>
<stop offset="1" stop-color="#273DB1"/>
</linearGradient>
<linearGradient id="paint2_linear_703_30796" x1="4.7821" y1="10.1215" x2="14.0001" y2="10.1215" gradientUnits="userSpaceOnUse">
<stop stop-color="#2942CB"/>
<stop offset="1" stop-color="#273DB1"/>
</linearGradient>
<clipPath id="clip0_703_30796">
<rect width="14" height="14" fill="white"/>
</clipPath>
</defs>
</svg>
