<svg width="17" height="21" viewBox="0 0 17 21" fill="none" xmlns="http://www.w3.org/2000/svg">
<path d="M3.61325 7.65503C3.31822 7.55287 3.04395 7.40619 2.79893 7.22264L3.48524 6.53634L3.3623 5.46047L2.19953 6.62324C1.90873 6.23494 1.71119 5.77458 1.63913 5.2731H3.34111L3.30931 4.99332C3.28727 4.79917 3.31398 4.60545 3.37799 4.42529H1.63913C1.71119 3.92381 1.90873 3.46345 2.19953 3.07557L3.4297 4.30575C3.481 4.19765 3.54204 4.09379 3.623 4.0035C3.73661 3.87548 3.87523 3.77587 4.02656 3.7038L2.79893 2.47617C3.18681 2.18537 3.64717 1.98783 4.14865 1.91577V3.65717C4.2843 3.60927 4.42588 3.57748 4.57255 3.57748H4.99646V1.91577C5.49794 1.98783 5.9583 2.18537 6.34617 2.47617L5.24487 3.57748H6.44367L6.94558 3.07557C7.06215 3.23115 7.15923 3.40071 7.24358 3.57748H8.61619C8.07486 1.85939 6.46699 0.610137 4.57255 0.610137C2.23514 0.610137 0.333496 2.51178 0.333496 4.84919C0.333496 6.9115 1.8142 8.63213 3.76798 9.00941L3.61325 7.65503ZM16.8633 4.89752L15.1677 19.7342C15.1431 19.9483 14.9616 20.1098 14.7463 20.1098H6.26818C6.05283 20.1098 5.8714 19.9483 5.84681 19.7342L4.15119 4.89752C4.13763 4.77755 4.17578 4.65716 4.25632 4.5673C4.33644 4.477 4.45174 4.42529 4.57255 4.42529H14.0418L14.7548 0.948837C14.8018 0.719504 15.0261 0.57029 15.2554 0.619039C15.4847 0.666092 15.6327 0.890338 15.5852 1.11967L14.9074 4.42529H16.4419C16.5627 4.42529 16.678 4.477 16.7581 4.56687C16.8387 4.65716 16.8768 4.77755 16.8633 4.89752V4.89752ZM13.2592 8.24044L13.868 5.2731H5.04775L5.38688 8.24044H13.2592ZM8.26265 13.0285L9.57252 11.7186C9.73742 11.5537 9.73742 11.2858 9.57252 11.1209L8.26265 9.81101C8.09775 9.64611 7.82985 9.64611 7.66495 9.81101L6.35508 11.1209C6.19018 11.2858 6.19018 11.5537 6.35508 11.7186L7.66495 13.0285C7.82985 13.1934 8.09775 13.1934 8.26265 13.0285ZM12.0426 14.563L10.4737 13.9131C10.258 13.8237 10.0108 13.9263 9.9214 14.1421L9.27155 15.7109C9.1821 15.9267 9.28469 16.1738 9.50046 16.2633L11.0693 16.9131C11.2851 17.0026 11.5322 16.9 11.6217 16.6842L12.2715 15.1153C12.361 14.8992 12.2584 14.652 12.0426 14.563ZM14.7103 11.4715L14.0604 9.90257C13.971 9.68681 13.7238 9.58465 13.5081 9.67367L11.9392 10.3235C11.7234 10.413 11.6213 10.6601 11.7103 10.8759L12.3601 12.4447C12.4496 12.6605 12.6967 12.7627 12.9125 12.6736L14.4813 12.0238C14.6971 11.9344 14.7993 11.6872 14.7103 11.4715ZM15.9667 5.2731H14.7332L14.1244 8.24044H15.6276L15.9667 5.2731Z" fill="url(#paint0_linear_1472_1239)"/>
<defs>
<linearGradient id="paint0_linear_1472_1239" x1="0.333496" y1="12.2556" x2="16.866" y2="12.2556" gradientUnits="userSpaceOnUse">
<stop stop-color="#2942CB"/>
<stop offset="1" stop-color="#273DB1"/>
</linearGradient>
</defs>
</svg>
