<svg width="19" height="27" viewBox="0 0 19 27" fill="none" xmlns="http://www.w3.org/2000/svg">
<path d="M6.91235 2.69115V0.375H11.5447V2.69115H6.91235ZM18.1072 11.1838V24.3088C18.1072 25.588 17.0702 26.625 15.791 26.625H2.66601C1.38683 26.625 0.349854 25.588 0.349854 24.3088V11.1838C0.349854 10.7574 0.695512 10.4118 1.12192 10.4118H17.3351C17.7615 10.4118 18.1072 10.7574 18.1072 11.1838ZM15.405 8.86764H13.0888V0.375L15.1789 2.46505C15.3237 2.60984 15.405 2.8062 15.405 3.01097V8.86764H15.405ZM3.27816 2.46505L5.36822 0.375V8.86764H3.05206V3.01097C3.05201 2.8062 3.13338 2.60984 3.27816 2.46505Z" fill="url(#paint0_linear_1682_25329)"/>
<defs>
<linearGradient id="paint0_linear_1682_25329" x1="0.349853" y1="16.0521" x2="18.1072" y2="16.0521" gradientUnits="userSpaceOnUse">
<stop stop-color="#2942CB"/>
<stop offset="1" stop-color="#273DB1"/>
</linearGradient>
</defs>
</svg>
