<svg width="15" height="18" viewBox="0 0 15 18" fill="none" xmlns="http://www.w3.org/2000/svg">
<path d="M2.45454 4.09091C2.45454 3.2818 2.69447 2.49087 3.14399 1.81812C3.5935 1.14538 4.23241 0.621034 4.97993 0.311403C5.72744 0.00177252 6.54999 -0.079241 7.34354 0.0786074C8.1371 0.236456 8.86603 0.626077 9.43816 1.1982C10.0103 1.77032 10.3999 2.49925 10.5577 3.29281C10.7156 4.08637 10.6346 4.90891 10.325 5.65643C10.0153 6.40394 9.49098 7.04286 8.81823 7.49237C8.14549 7.94188 7.35455 8.18181 6.54545 8.18181C5.46047 8.18181 4.41994 7.75081 3.65274 6.98361C2.88555 6.21642 2.45454 5.17588 2.45454 4.09091ZM3.27272 9.81817C2.40474 9.81817 1.57231 10.163 0.958559 10.7767C0.344804 11.3905 0 12.2229 0 13.0909V17.1818C0 17.3988 0.0862009 17.6069 0.23964 17.7603C0.393078 17.9138 0.601186 18 0.818181 18H5.94818C5.80397 17.7514 5.72778 17.4692 5.72727 17.1818V14.7273C5.72909 14.294 5.9027 13.8791 6.20999 13.5736L9.89181 9.88363L9.96545 9.81817H3.27272ZM14.0809 10.4645C13.5998 9.98788 12.95 9.72047 12.2727 9.72047C11.5955 9.72047 10.9456 9.98788 10.4645 10.4645L6.78272 14.1464C6.70689 14.2228 6.6469 14.3135 6.60618 14.4132C6.56547 14.5128 6.54483 14.6196 6.54545 14.7273V17.1818C6.54545 17.3988 6.63165 17.6069 6.78509 17.7603C6.93853 17.9138 7.14663 18 7.36363 18H9.81817C9.92585 18.0006 10.0326 17.98 10.1323 17.9393C10.232 17.8985 10.3226 17.8385 10.3991 17.7627L14.0809 14.0809C14.5576 13.5998 14.825 12.95 14.825 12.2727C14.825 11.5955 14.5576 10.9456 14.0809 10.4645Z" fill="url(#paint0_linear_1359_26381)"/>
<defs>
<linearGradient id="paint0_linear_1359_26381" x1="-1.90057e-08" y1="10.75" x2="14.825" y2="10.75" gradientUnits="userSpaceOnUse">
<stop stop-color="#2942CB"/>
<stop offset="1" stop-color="#273DB1"/>
</linearGradient>
</defs>
</svg>
