<svg width="12" height="15" viewBox="0 0 12 15" fill="none" xmlns="http://www.w3.org/2000/svg">
<path d="M5.93262 0.75C3.56049 0.75 1.58203 2.66083 1.58203 5.10059C1.58203 6.02876 1.86094 6.85643 2.39622 7.63199L5.59968 12.6307C5.75509 12.8737 6.11046 12.8732 6.26556 12.6307L9.48291 7.61499C10.0067 6.87457 10.2832 6.00517 10.2832 5.10059C10.2832 2.70167 8.33153 0.75 5.93262 0.75ZM5.93262 7.07812C4.84225 7.07812 3.95508 6.19095 3.95508 5.10059C3.95508 4.01022 4.84225 3.12305 5.93262 3.12305C7.02298 3.12305 7.91016 4.01022 7.91016 5.10059C7.91016 6.19095 7.02298 7.07812 5.93262 7.07812Z" fill="#5A5A5A"/>
<path d="M9.02454 9.83862L7.033 12.9522C6.51749 13.756 5.34487 13.7533 4.83184 12.953L2.83706 9.83944C1.08195 10.2452 0 10.9886 0 11.8769C0 13.4184 3.0567 14.25 5.93262 14.25C8.80854 14.25 11.8652 13.4184 11.8652 11.8769C11.8652 10.988 10.7818 10.2442 9.02454 9.83862Z" fill="#5A5A5A"/>
</svg>
