<svg width="17" height="18" viewBox="0 0 17 18" fill="none" xmlns="http://www.w3.org/2000/svg">
<path d="M15.75 8.16169C15.336 8.16169 15 7.82569 15 7.41169C15 5.30794 14.181 3.33094 12.6937 1.84294C12.4005 1.54969 12.4005 1.07569 12.6937 0.782438C12.987 0.489187 13.461 0.489187 13.7542 0.782438C15.525 2.55319 16.5 4.90744 16.5 7.41169C16.5 7.82569 16.164 8.16169 15.75 8.16169Z" fill="url(#paint0_linear_1359_26398)"/>
<path d="M0.75 8.16169C0.336 8.16169 0 7.82569 0 7.41169C0 4.90744 0.975 2.55319 2.74575 0.782438C3.039 0.489187 3.513 0.489187 3.80625 0.782438C4.0995 1.07569 4.0995 1.54969 3.80625 1.84294C2.319 3.33019 1.5 5.30794 1.5 7.41169C1.5 7.82569 1.164 8.16169 0.75 8.16169Z" fill="url(#paint1_linear_1359_26398)"/>
<path d="M15.2843 12.6847C14.1502 11.7262 13.5 10.3252 13.5 8.841V6.75C13.5 4.11075 11.5395 1.926 9 1.56V0.75C9 0.33525 8.664 0 8.25 0C7.836 0 7.5 0.33525 7.5 0.75V1.56C4.95975 1.926 3 4.11075 3 6.75V8.841C3 10.3252 2.34975 11.7262 1.209 12.6908C0.91725 12.9405 0.75 13.3035 0.75 13.6875C0.75 14.4113 1.33875 15 2.0625 15H14.4375C15.1613 15 15.75 14.4113 15.75 13.6875C15.75 13.3035 15.5827 12.9405 15.2843 12.6847Z" fill="url(#paint2_linear_1359_26398)"/>
<path d="M8.25004 18C9.60829 18 10.7445 17.0317 11.0055 15.75H5.49454C5.75554 17.0317 6.89179 18 8.25004 18Z" fill="url(#paint3_linear_1359_26398)"/>
<defs>
<linearGradient id="paint0_linear_1359_26398" x1="12.4738" y1="5.1009" x2="16.5" y2="5.1009" gradientUnits="userSpaceOnUse">
<stop stop-color="#2942CB"/>
<stop offset="1" stop-color="#273DB1"/>
</linearGradient>
<linearGradient id="paint1_linear_1359_26398" x1="-5.16159e-09" y1="5.1009" x2="4.02619" y2="5.1009" gradientUnits="userSpaceOnUse">
<stop stop-color="#2942CB"/>
<stop offset="1" stop-color="#273DB1"/>
</linearGradient>
<linearGradient id="paint2_linear_1359_26398" x1="0.75" y1="8.95833" x2="15.75" y2="8.95833" gradientUnits="userSpaceOnUse">
<stop stop-color="#2942CB"/>
<stop offset="1" stop-color="#273DB1"/>
</linearGradient>
<linearGradient id="paint3_linear_1359_26398" x1="5.49454" y1="17.0938" x2="11.0055" y2="17.0938" gradientUnits="userSpaceOnUse">
<stop stop-color="#2942CB"/>
<stop offset="1" stop-color="#273DB1"/>
</linearGradient>
</defs>
</svg>
