<svg width="21" height="24" viewBox="0 0 21 24" fill="none" xmlns="http://www.w3.org/2000/svg">
<path d="M10.5537 0.75C6.60017 0.75 3.30273 3.93472 3.30273 8.00098C3.30273 9.54794 3.76759 10.9274 4.65972 12.22L9.99881 20.5511C10.2578 20.9561 10.8501 20.9554 11.1086 20.5511L16.4709 12.1916C17.3438 10.9576 17.8047 9.50861 17.8047 8.00098C17.8047 4.00279 14.5519 0.75 10.5537 0.75ZM10.5537 11.2969C8.73644 11.2969 7.25781 9.81825 7.25781 8.00098C7.25781 6.18371 8.73644 4.70508 10.5537 4.70508C12.371 4.70508 13.8496 6.18371 13.8496 8.00098C13.8496 9.81825 12.371 11.2969 10.5537 11.2969Z" fill="url(#paint0_linear_1529_17166)"/>
<path d="M15.7069 15.8977L12.3877 21.0871C11.5285 22.4266 9.57413 22.4223 8.71908 21.0884L5.39444 15.8991C2.46927 16.5754 0.666016 17.8144 0.666016 19.2949C0.666016 21.8641 5.76051 23.25 10.5537 23.25C15.3469 23.25 20.4414 21.8641 20.4414 19.2949C20.4414 17.8133 18.6356 16.5737 15.7069 15.8977Z" fill="url(#paint1_linear_1529_17166)"/>
<defs>
<linearGradient id="paint0_linear_1529_17166" x1="3.30273" y1="12.7569" x2="17.8047" y2="12.7569" gradientUnits="userSpaceOnUse">
<stop stop-color="#2942CB"/>
<stop offset="1" stop-color="#273DB1"/>
</linearGradient>
<linearGradient id="paint1_linear_1529_17166" x1="0.666016" y1="20.2887" x2="20.4414" y2="20.2887" gradientUnits="userSpaceOnUse">
<stop stop-color="#2942CB"/>
<stop offset="1" stop-color="#273DB1"/>
</linearGradient>
</defs>
</svg>
