<svg width="18" height="18" viewBox="0 0 18 18" fill="none" xmlns="http://www.w3.org/2000/svg">
<path d="M15.4286 8.03557C15.4286 7.50301 14.9969 7.07129 14.4643 7.07129H3.53573C3.00317 7.07129 2.57144 7.50301 2.57144 8.03557V9.96415H15.4286V8.03557ZM4.50001 8.357H3.85716V8.99986C3.85716 9.17738 3.71325 9.32129 3.53573 9.32129C3.35821 9.32129 3.2143 9.17738 3.2143 8.99986V8.03557C3.2143 7.85805 3.35821 7.71415 3.53573 7.71415H4.50001C4.67753 7.71415 4.82144 7.85805 4.82144 8.03557C4.82144 8.21309 4.67753 8.357 4.50001 8.357Z" fill="url(#paint0_linear_1359_26391)"/>
<path d="M2.57144 17.0355C2.57144 17.5681 3.00317 17.9998 3.53573 17.9998H14.4643C14.9969 17.9998 15.4286 17.5681 15.4286 17.0355V15.1069H2.57144V17.0355Z" fill="url(#paint1_linear_1359_26391)"/>
<path d="M17.6786 10.6069H0.321429C0.143908 10.6069 0 10.7508 0 10.9284V14.1426C0 14.3202 0.143908 14.4641 0.321429 14.4641H17.6786C17.8561 14.4641 18 14.3202 18 14.1426V10.9284C18 10.7508 17.8561 10.6069 17.6786 10.6069ZM3.07125 12.9109C3.21895 13.0095 3.25881 13.2091 3.16029 13.3568C3.06176 13.5045 2.86216 13.5443 2.71446 13.4458L2.25 13.1359V13.4998C2.25 13.6773 2.10609 13.8212 1.92857 13.8212C1.75105 13.8212 1.60714 13.6773 1.60714 13.4998V13.1359L1.14268 13.4458C0.994982 13.5443 0.795381 13.5045 0.696857 13.3568C0.598333 13.2091 0.638196 13.0095 0.785893 12.9109L1.35 12.5355L0.785893 12.1601C0.638196 12.0616 0.598333 11.862 0.696857 11.7143C0.795381 11.5666 0.994982 11.5267 1.14268 11.6252L1.60714 11.9351V11.5712C1.60714 11.3937 1.75105 11.2498 1.92857 11.2498C2.10609 11.2498 2.25 11.3937 2.25 11.5712V11.9351L2.71446 11.6252C2.81001 11.5615 2.93229 11.5536 3.03526 11.6044C3.13823 11.6553 3.20623 11.7573 3.21365 11.8719C3.22108 11.9865 3.16679 12.0963 3.07125 12.1601L2.50714 12.5355L3.07125 12.9109ZM6.60696 12.9109C6.75466 13.0095 6.79452 13.2091 6.696 13.3568C6.59748 13.5045 6.39788 13.5443 6.25018 13.4458L5.78571 13.1359V13.4998C5.78571 13.6773 5.64181 13.8212 5.46429 13.8212C5.28677 13.8212 5.14286 13.6773 5.14286 13.4998V13.1359L4.67839 13.4458C4.5307 13.5443 4.3311 13.5045 4.23257 13.3568C4.13405 13.2091 4.17391 13.0095 4.32161 12.9109L4.88571 12.5355L4.32257 12.1601C4.17487 12.0616 4.13501 11.862 4.23354 11.7143C4.33206 11.5666 4.53166 11.5267 4.67936 11.6252L5.14286 11.9351V11.5712C5.14286 11.3937 5.28677 11.2498 5.46429 11.2498C5.64181 11.2498 5.78571 11.3937 5.78571 11.5712V11.9351L6.25018 11.6252C6.34572 11.5615 6.46801 11.5536 6.57097 11.6044C6.67394 11.6553 6.74194 11.7573 6.74937 11.8719C6.75679 11.9865 6.70251 12.0963 6.60696 12.1601L6.04286 12.5355L6.60696 12.9109ZM10.1427 12.9109C10.2904 13.0095 10.3302 13.2091 10.2317 13.3568C10.1332 13.5045 9.93359 13.5443 9.78589 13.4458L9.32143 13.1359V13.4998C9.32143 13.6773 9.17752 13.8212 9 13.8212C8.82248 13.8212 8.67857 13.6773 8.67857 13.4998V13.1359L8.21411 13.4458C8.06641 13.5443 7.86681 13.5045 7.76829 13.3568C7.66976 13.2091 7.70962 13.0095 7.85732 12.9109L8.42143 12.5355L7.85829 12.1601C7.71059 12.0616 7.67073 11.862 7.76925 11.7143C7.86777 11.5666 8.06738 11.5267 8.21507 11.6252L8.67857 11.9351V11.5712C8.67857 11.3937 8.82248 11.2498 9 11.2498C9.17752 11.2498 9.32143 11.3937 9.32143 11.5712V11.9351L9.78589 11.6252C9.88144 11.5615 10.0037 11.5536 10.1067 11.6044C10.2097 11.6553 10.2777 11.7573 10.2851 11.8719C10.2925 11.9865 10.2382 12.0963 10.1427 12.1601L9.57857 12.5355L10.1427 12.9109ZM13.6784 12.9109C13.8261 13.0095 13.866 13.2091 13.7674 13.3568C13.6689 13.5045 13.4693 13.5443 13.3216 13.4458L12.8571 13.1359V13.4998C12.8571 13.6773 12.7132 13.8212 12.5357 13.8212C12.3582 13.8212 12.2143 13.6773 12.2143 13.4998V13.1359L11.7498 13.4458C11.6021 13.5443 11.4025 13.5045 11.304 13.3568C11.2055 13.2091 11.2453 13.0095 11.393 12.9109L11.9571 12.5355L11.394 12.1601C11.2463 12.0616 11.2064 11.862 11.305 11.7143C11.4035 11.5666 11.6031 11.5267 11.7508 11.6252L12.2143 11.9351V11.5712C12.2143 11.3937 12.3582 11.2498 12.5357 11.2498C12.7132 11.2498 12.8571 11.3937 12.8571 11.5712V11.9351L13.3216 11.6252C13.4171 11.5615 13.5394 11.5536 13.6424 11.6044C13.7454 11.6553 13.8134 11.7573 13.8208 11.8719C13.8282 11.9865 13.7739 12.0963 13.6784 12.1601L13.1143 12.5355L13.6784 12.9109ZM17.0357 13.8212H15.1071C14.9296 13.8212 14.7857 13.6773 14.7857 13.4998C14.7857 13.3223 14.9296 13.1784 15.1071 13.1784H17.0357C17.2132 13.1784 17.3571 13.3223 17.3571 13.4998C17.3571 13.6773 17.2132 13.8212 17.0357 13.8212Z" fill="url(#paint2_linear_1359_26391)"/>
<path d="M5.46427 4.82143C5.46427 2.86871 7.04727 1.28571 8.99999 1.28571C10.9527 1.28571 12.5357 2.86871 12.5357 4.82143V6.42857H13.8214V4.82143C13.8214 2.15863 11.6628 0 8.99999 0C6.33719 0 4.17856 2.15863 4.17856 4.82143V6.42857H5.46427V4.82143Z" fill="url(#paint3_linear_1359_26391)"/>
<defs>
<linearGradient id="paint0_linear_1359_26391" x1="2.57144" y1="8.79897" x2="15.4286" y2="8.79897" gradientUnits="userSpaceOnUse">
<stop stop-color="#2942CB"/>
<stop offset="1" stop-color="#273DB1"/>
</linearGradient>
<linearGradient id="paint1_linear_1359_26391" x1="2.57144" y1="16.8346" x2="15.4286" y2="16.8346" gradientUnits="userSpaceOnUse">
<stop stop-color="#2942CB"/>
<stop offset="1" stop-color="#273DB1"/>
</linearGradient>
<linearGradient id="paint2_linear_1359_26391" x1="-2.30761e-08" y1="12.9105" x2="18" y2="12.9105" gradientUnits="userSpaceOnUse">
<stop stop-color="#2942CB"/>
<stop offset="1" stop-color="#273DB1"/>
</linearGradient>
<linearGradient id="paint3_linear_1359_26391" x1="4.17856" y1="3.83929" x2="13.8214" y2="3.83929" gradientUnits="userSpaceOnUse">
<stop stop-color="#2942CB"/>
<stop offset="1" stop-color="#273DB1"/>
</linearGradient>
</defs>
</svg>
