<svg width="18" height="18" viewBox="0 0 18 18" fill="none" xmlns="http://www.w3.org/2000/svg">
<path d="M18 2.35481C18 1.05426 16.9457 0 15.6452 0H2.35481C1.05426 0 0 1.05426 0 2.35481V15.6451C0 16.9457 1.05426 18 2.35481 18H15.6451C16.9457 18 18 16.9457 18 15.6452V2.35481ZM4.04042 14.6983C3.65042 14.8029 3.29352 14.446 3.39813 14.056L4.04487 11.6453L6.45097 14.0514L4.04042 14.6983ZM14.4315 5.93158L7.31052 13.0527L4.91545 10.6576L12.0365 3.53661C12.3742 3.19887 12.9217 3.19887 13.2594 3.53661L14.4315 4.70874C14.7692 5.04639 14.7692 5.59384 14.4315 5.93158Z" fill="url(#paint0_linear_1425_26599)" fill-opacity="0.7"/>
<defs>
<linearGradient id="paint0_linear_1425_26599" x1="-2.30761e-08" y1="10.75" x2="18" y2="10.75" gradientUnits="userSpaceOnUse">
<stop stop-color="#2942CB"/>
<stop offset="1" stop-color="#273DB1"/>
</linearGradient>
</defs>
</svg>
