<svg width="12" height="14" viewBox="0 0 12 14" fill="none" xmlns="http://www.w3.org/2000/svg">
<path d="M2.59091 3.31818C2.59091 2.71135 2.77085 2.11815 3.10799 1.61359C3.44512 1.10903 3.92431 0.715776 4.48495 0.483553C5.04558 0.251329 5.66249 0.190569 6.25766 0.308956C6.85283 0.427342 7.39952 0.719558 7.82862 1.14865C8.25771 1.57774 8.54992 2.12444 8.66831 2.71961C8.7867 3.31478 8.72594 3.93169 8.49371 4.49232C8.26149 5.05296 7.86823 5.53214 7.36368 5.86928C6.85912 6.20641 6.26591 6.38636 5.65909 6.38636C4.84535 6.38636 4.06495 6.06311 3.48956 5.48771C2.91416 4.91232 2.59091 4.13191 2.59091 3.31818V3.31818ZM3.20454 7.61363C2.55356 7.61363 1.92924 7.87223 1.46892 8.33255C1.0086 8.79287 0.75 9.41719 0.75 10.0682V13.1364C0.75 13.2991 0.814651 13.4552 0.92973 13.5703C1.04481 13.6853 1.20089 13.75 1.36364 13.75H5.21113C5.10298 13.5635 5.04583 13.3519 5.04545 13.1364V11.2954C5.04682 10.9705 5.17702 10.6593 5.4075 10.4302L8.16886 7.66272L8.22408 7.61363H3.20454ZM11.3107 8.0984C10.9498 7.74091 10.4625 7.54035 9.95454 7.54035C9.44661 7.54035 8.95922 7.74091 8.5984 8.0984L5.83704 10.8598C5.78017 10.9171 5.73517 10.9851 5.70464 11.0599C5.6741 11.1346 5.65862 11.2147 5.65909 11.2954V13.1364C5.65909 13.2991 5.72374 13.4552 5.83882 13.5703C5.9539 13.6853 6.10998 13.75 6.27272 13.75H8.11363C8.19439 13.7505 8.27444 13.735 8.34921 13.7044C8.42397 13.6739 8.49197 13.6289 8.54931 13.572L11.3107 10.8107C11.6682 10.4499 11.8687 9.96247 11.8687 9.45454C11.8687 8.94661 11.6682 8.45922 11.3107 8.0984V8.0984Z" fill="url(#paint0_linear_1297_1176)"/>
<defs>
<linearGradient id="paint0_linear_1297_1176" x1="0.75" y1="8.3125" x2="11.8687" y2="8.3125" gradientUnits="userSpaceOnUse">
<stop stop-color="#2942CB"/>
<stop offset="1" stop-color="#273DB1"/>
</linearGradient>
</defs>
</svg>
