<svg width="39" height="38" viewBox="0 0 39 38" fill="none" xmlns="http://www.w3.org/2000/svg">
<path d="M26.0842 21.1772C26.0887 21.1689 26.0933 21.1605 26.0987 21.1525C27.3398 19.045 28.0027 16.6368 28.0027 14.1264C28.0027 10.4199 26.5597 6.93522 23.9384 4.31434C21.3179 1.6934 17.8328 0.25 14.1268 0.25C10.4198 0.25 6.93563 1.69331 4.3143 4.31425C1.69388 6.93513 0.25 10.4199 0.25 14.1263C0.25 17.8328 1.69388 21.3174 4.3143 23.9384C6.93563 26.5592 10.4198 28.0025 14.1268 28.0025C16.6372 28.0025 19.0458 27.3396 21.1525 26.0979C21.1606 26.0925 21.1688 26.0884 21.177 26.0837C22.1717 25.4948 23.1 24.7772 23.9384 23.9384C24.7776 23.0996 25.495 22.1719 26.0842 21.1772ZM20.7733 20.7731C18.9985 22.5485 16.6372 23.5263 14.1268 23.5263C11.6155 23.5263 9.25509 22.5485 7.47935 20.7731C5.70452 18.9977 4.72618 16.6371 4.72618 14.1263C4.72618 11.6154 5.70452 9.25487 7.47935 7.4794C9.25509 5.70393 11.6155 4.72615 14.1268 4.72615C16.6372 4.72615 18.9976 5.70393 20.7733 7.4794C24.4384 11.1445 24.4384 17.108 20.7733 20.7731Z" fill="url(#paint0_linear_1377_2201)"/>
<path d="M28.6863 24.255L26.5523 22.1211C25.9867 22.996 25.3257 23.8175 24.5711 24.5715C23.8173 25.3254 22.9963 25.9871 22.1216 26.5523L24.2546 28.6862L28.6863 24.255Z" fill="url(#paint1_linear_1377_2201)"/>
<path d="M31.5349 26.4704L32.1677 25.8374C32.4214 25.5837 32.5614 25.2465 32.5614 24.8879C32.5614 24.5292 32.4214 24.192 32.1677 23.9383C31.914 23.6846 31.5767 23.5449 31.2185 23.5449C30.8593 23.5449 30.5229 23.6846 30.2683 23.9383L29.6355 24.5713L24.571 29.6354L23.9382 30.2685C23.4145 30.7922 23.4145 31.644 23.9382 32.1677C24.1919 32.4213 24.5292 32.561 24.8884 32.561C25.2466 32.561 25.5839 32.4213 25.8376 32.1677L26.4704 31.5351C26.4704 31.5349 26.4704 31.5348 26.4704 31.5347L31.5349 26.4704Z" fill="url(#paint2_linear_1377_2201)"/>
<path d="M14.1266 5.62109C11.8544 5.62109 9.71861 6.50569 8.11289 8.11213C6.50627 9.71848 5.62158 11.8543 5.62158 14.126C5.62158 16.3976 6.50627 18.5334 8.11289 20.1398C9.71861 21.7461 11.8544 22.6308 14.1266 22.6308C16.3979 22.6308 18.5337 21.7461 20.1403 20.1398C23.4563 16.8238 23.4563 11.4282 20.1403 8.11213C18.5337 6.50578 16.3979 5.62109 14.1266 5.62109ZM18.0872 10.7979C17.9999 10.8853 17.8854 10.9289 17.7708 10.9289C17.6562 10.9289 17.5417 10.8853 17.4544 10.7979C16.5652 9.90887 15.3831 9.41934 14.1266 9.41934C12.8691 9.41934 11.6871 9.90887 10.7979 10.7979C10.6233 10.9727 10.3405 10.9727 10.165 10.7979C9.99046 10.6231 9.99046 10.3396 10.165 10.1648C11.2234 9.10675 12.63 8.52402 14.1266 8.52402C15.6232 8.52402 17.0298 9.10675 18.0872 10.1648C18.2627 10.3397 18.2627 10.6232 18.0872 10.7979Z" fill="url(#paint3_linear_1377_2201)"/>
<path d="M30.9738 3.28047C31.7139 3.28047 32.3158 2.67805 32.3158 1.9376C32.3158 1.19713 31.7139 0.594727 30.9738 0.594727C30.2328 0.594727 29.6309 1.19713 29.6309 1.9376C29.6309 2.67805 30.2328 3.28047 30.9738 3.28047Z" fill="url(#paint4_linear_1377_2201)"/>
<path d="M5.90642 33.7188C5.1663 33.7188 4.56348 34.3211 4.56348 35.0616C4.56348 35.8021 5.1663 36.4045 5.90642 36.4045C6.64745 36.4045 7.24937 35.8021 7.24937 35.0616C7.24937 34.321 6.64745 33.7188 5.90642 33.7188Z" fill="url(#paint5_linear_1377_2201)"/>
<path d="M16.6491 32.8242C15.909 32.8242 15.3062 33.4266 15.3062 34.1671C15.3062 34.9076 15.909 35.5099 16.6491 35.5099C17.3892 35.5099 17.992 34.9076 17.992 34.1671C17.992 33.4265 17.3892 32.8242 16.6491 32.8242Z" fill="url(#paint6_linear_1377_2201)"/>
<path d="M31.8516 27.4199L27.4209 31.8513L32.4017 36.8323C32.9936 37.424 33.7801 37.75 34.6166 37.75C35.454 37.75 36.2405 37.424 36.8324 36.8323C37.4243 36.2403 37.7507 35.4536 37.7507 34.6166C37.7507 33.7796 37.4243 32.9928 36.8324 32.4009L31.8516 27.4199Z" fill="url(#paint7_linear_1377_2201)"/>
<path d="M36.3451 10.4424C35.1112 10.4424 34.1074 11.4464 34.1074 12.6805C34.1074 13.9146 35.1112 14.9186 36.3451 14.9186C37.5798 14.9186 38.5836 13.9146 38.5836 12.6805C38.5836 11.4464 37.5798 10.4424 36.3451 10.4424Z" fill="url(#paint8_linear_1377_2201)"/>
<defs>
<linearGradient id="paint0_linear_1377_2201" x1="0.25" y1="16.8244" x2="28.0027" y2="16.8244" gradientUnits="userSpaceOnUse">
<stop stop-color="#2942CB"/>
<stop offset="1" stop-color="#273DB1"/>
</linearGradient>
<linearGradient id="paint1_linear_1377_2201" x1="22.1216" y1="26.0419" x2="28.6863" y2="26.0419" gradientUnits="userSpaceOnUse">
<stop stop-color="#2942CB"/>
<stop offset="1" stop-color="#273DB1"/>
</linearGradient>
<linearGradient id="paint2_linear_1377_2201" x1="23.5454" y1="28.9295" x2="32.5614" y2="28.9295" gradientUnits="userSpaceOnUse">
<stop stop-color="#2942CB"/>
<stop offset="1" stop-color="#273DB1"/>
</linearGradient>
<linearGradient id="paint3_linear_1377_2201" x1="5.62158" y1="15.7797" x2="22.6273" y2="15.7797" gradientUnits="userSpaceOnUse">
<stop stop-color="#2942CB"/>
<stop offset="1" stop-color="#273DB1"/>
</linearGradient>
<linearGradient id="paint4_linear_1377_2201" x1="29.6309" y1="2.19871" x2="32.3158" y2="2.19871" gradientUnits="userSpaceOnUse">
<stop stop-color="#2942CB"/>
<stop offset="1" stop-color="#273DB1"/>
</linearGradient>
<linearGradient id="paint5_linear_1377_2201" x1="4.56348" y1="35.3227" x2="7.24937" y2="35.3227" gradientUnits="userSpaceOnUse">
<stop stop-color="#2942CB"/>
<stop offset="1" stop-color="#273DB1"/>
</linearGradient>
<linearGradient id="paint6_linear_1377_2201" x1="15.3062" y1="34.4282" x2="17.992" y2="34.4282" gradientUnits="userSpaceOnUse">
<stop stop-color="#2942CB"/>
<stop offset="1" stop-color="#273DB1"/>
</linearGradient>
<linearGradient id="paint7_linear_1377_2201" x1="27.4209" y1="33.5892" x2="37.7507" y2="33.5892" gradientUnits="userSpaceOnUse">
<stop stop-color="#2942CB"/>
<stop offset="1" stop-color="#273DB1"/>
</linearGradient>
<linearGradient id="paint8_linear_1377_2201" x1="34.1074" y1="13.1157" x2="38.5836" y2="13.1157" gradientUnits="userSpaceOnUse">
<stop stop-color="#2942CB"/>
<stop offset="1" stop-color="#273DB1"/>
</linearGradient>
</defs>
</svg>
