<svg width="38" height="38" viewBox="0 0 38 38" fill="none" xmlns="http://www.w3.org/2000/svg">
<path d="M7.3418 5.74316V7.00098H30.8047V5.74316C30.8047 2.99038 28.5643 0.75 25.8115 0.75H12.335C9.58217 0.75 7.3418 2.99038 7.3418 5.74316Z" fill="url(#paint0_linear_1529_22504)" stroke="url(#paint1_linear_1529_22504)"/>
<path d="M29.1074 23.6143V32.5498V34.4541V35.5527C29.1074 36.7662 28.1237 37.75 26.9102 37.75H11.2363C10.0228 37.75 9.03906 36.7662 9.03906 35.5527V34.4541V32.5498V23.6143H29.1074ZM16.1436 32.9893H22.0029C22.6097 32.9893 23.1016 32.4974 23.1016 31.8906C23.1016 31.2839 22.6097 30.792 22.0029 30.792H16.1436C15.5368 30.792 15.0449 31.2839 15.0449 31.8906C15.0449 32.4974 15.5368 32.9893 16.1436 32.9893ZM16.1436 28.3018H22.0029C22.6097 28.3018 23.1016 27.8099 23.1016 27.2031C23.1016 26.5964 22.6097 26.1045 22.0029 26.1045H16.1436C15.5368 26.1045 15.0449 26.5964 15.0449 27.2031C15.0449 27.8099 15.5368 28.3018 16.1436 28.3018Z" fill="url(#paint2_linear_1529_22504)"/>
<path d="M5.81641 9.69824H32.2568C35.2858 9.69824 37.75 12.1625 37.75 15.1914V23.9805C37.75 27.0094 35.2858 29.4736 32.2568 29.4736H31.3047V23.6143H31.9639C32.5706 23.6143 33.0625 23.1224 33.0625 22.5156C33.0625 21.9089 32.5706 21.417 31.9639 21.417H30.2061H7.94043H6.18262C5.57588 21.417 5.08398 21.9089 5.08398 22.5156C5.08398 23.1224 5.57588 23.6143 6.18262 23.6143H6.8418V29.4736H5.81641C2.78748 29.4736 0.323242 27.0094 0.323242 23.9805V15.1914C0.323242 12.1625 2.78748 9.69824 5.81641 9.69824ZM28.4482 16.583H31.9639C32.5706 16.583 33.0625 16.0911 33.0625 15.4844C33.0625 14.8776 32.5706 14.3857 31.9639 14.3857H28.4482C27.8415 14.3857 27.3496 14.8776 27.3496 15.4844C27.3496 16.0911 27.8415 16.583 28.4482 16.583Z" fill="url(#paint3_linear_1529_22504)"/>
<defs>
<linearGradient id="paint0_linear_1529_22504" x1="31.3047" y1="4.58044" x2="6.8418" y2="4.58044" gradientUnits="userSpaceOnUse">
<stop stop-color="#2942CB"/>
<stop offset="1" stop-color="#273DB1"/>
</linearGradient>
<linearGradient id="paint1_linear_1529_22504" x1="31.3047" y1="4.58044" x2="6.8418" y2="4.58044" gradientUnits="userSpaceOnUse">
<stop stop-color="#2942CB"/>
<stop offset="1" stop-color="#273DB1"/>
</linearGradient>
<linearGradient id="paint2_linear_1529_22504" x1="29.1074" y1="32.0564" x2="9.03906" y2="32.0564" gradientUnits="userSpaceOnUse">
<stop stop-color="#2942CB"/>
<stop offset="1" stop-color="#273DB1"/>
</linearGradient>
<linearGradient id="paint3_linear_1529_22504" x1="37.75" y1="21.5085" x2="0.323242" y2="21.5085" gradientUnits="userSpaceOnUse">
<stop stop-color="#2942CB"/>
<stop offset="1" stop-color="#273DB1"/>
</linearGradient>
</defs>
</svg>
