<svg width="18" height="18" viewBox="0 0 18 18" fill="none" xmlns="http://www.w3.org/2000/svg">
<path d="M7.60312 0.212325C7.44957 0.815004 7.07778 1.25909 6.64842 1.42465C6.40801 1.51734 6.40929 1.8569 6.64949 1.94978C7.07879 2.11579 7.44968 2.56127 7.60201 3.1643C7.67385 3.44874 8.07602 3.44869 8.14802 3.1643C8.30068 2.5614 8.67148 2.1169 9.10109 1.95198C9.34162 1.85965 9.34304 1.52003 9.10322 1.42684C8.67419 1.26014 8.30123 0.815116 8.14794 0.212325C8.11684 0.0900403 8.01213 -7.44048e-06 7.87554 4.61118e-10C7.73894 7.44141e-06 7.63279 0.0958688 7.60312 0.212325ZM16.3202 1.40597C16.1667 2.00865 15.7949 2.45274 15.3655 2.61829C15.1251 2.71098 15.1264 3.05056 15.3666 3.14343C15.7959 3.30945 16.1667 3.75491 16.3191 4.35795C16.3909 4.64239 16.7931 4.64234 16.8651 4.35795C17.0177 3.75504 17.3885 3.31054 17.8181 3.14563C18.0587 3.05329 18.0606 2.71379 17.8203 2.62049C17.3912 2.4539 17.0183 2.00877 16.865 1.40597C16.8339 1.28352 16.7289 1.19339 16.5926 1.19339C16.4563 1.19339 16.3499 1.28936 16.3202 1.40597ZM1.13439 4.70951C0.98085 5.31219 0.609048 5.75627 0.179685 5.92183C-0.0607111 6.01452 -0.0594305 6.35408 0.180748 6.44696C0.610042 6.61298 0.980945 7.05845 1.13326 7.66148C1.20511 7.94592 1.60727 7.94587 1.67928 7.66148C1.83194 7.05858 2.20274 6.61407 2.63235 6.44916C2.8729 6.35682 2.87481 6.01734 2.63447 5.92402C2.20543 5.75745 1.83246 5.3123 1.67922 4.70951C1.64809 4.58706 1.54313 4.49692 1.4068 4.49692C1.27047 4.49692 1.1641 4.59289 1.13439 4.70951ZM8.29692 5.34341C7.75157 5.34341 7.31254 5.78243 7.31254 6.32776C7.31254 6.8731 7.75157 7.31212 8.29692 7.31212H16.4531C16.9985 7.31212 17.4375 6.8731 17.4375 6.32776C17.4375 5.78243 16.9985 5.34341 16.4531 5.34341H8.29692ZM5.34435 7.31158C2.39651 7.31158 6.08132e-05 9.7079 6.08132e-05 12.6558C6.08132e-05 15.6037 2.39651 18 5.34435 18C8.29218 18 10.6881 15.6037 10.6881 12.6558C10.6881 9.7079 8.29218 7.31158 5.34435 7.31158ZM8.79514 7.87461C9.51081 8.39317 10.1104 9.06315 10.5354 9.84333H14.7656C15.311 9.84333 15.75 9.40431 15.75 8.85897C15.75 8.31364 15.311 7.87461 14.7656 7.87461H8.79514ZM5.3427 8.57828C7.59769 8.57828 9.42245 10.4069 9.42245 12.6558C9.42245 14.9046 7.59303 16.7333 5.3427 16.7333C3.09236 16.7333 1.26568 14.9046 1.26568 12.6558C1.26568 10.4069 3.0877 8.57828 5.3427 8.57828ZM5.3427 9.14077C3.40339 9.14077 1.82818 10.7109 1.82818 12.6558C1.82818 14.6007 3.40411 16.1708 5.3427 16.1708C7.28128 16.1708 8.85996 14.6007 8.85996 12.6558C8.85996 10.7109 7.282 9.14077 5.3427 9.14077ZM5.34589 10.2652C5.48371 10.266 5.62603 10.3602 5.62603 10.5459V10.8211C6.11888 10.9461 6.41513 11.2937 6.55437 11.734C6.65036 12.1024 6.1367 12.2502 6.0166 11.9027C5.9041 11.5468 5.68022 11.3657 5.33545 11.3523C4.95225 11.3559 4.6565 11.6425 4.6565 12.0082C4.6565 12.1815 4.71858 12.2355 4.80206 12.2762C4.91426 12.331 5.13251 12.3652 5.37501 12.3905C5.61752 12.4157 5.88535 12.4335 6.13691 12.5564C6.38846 12.6792 6.59778 12.9195 6.59778 13.3287C6.59777 13.9118 6.17813 14.3975 5.62604 14.5212V14.7657C5.62604 15.1321 5.06354 15.1463 5.06354 14.7657V14.5185C4.69552 14.4239 4.31891 14.1655 4.13795 13.605C4.0358 13.2447 4.55181 13.0804 4.67517 13.4347C4.7822 13.7873 5.03466 13.9849 5.35633 13.9912C5.73954 13.9875 6.03528 13.6878 6.03528 13.3287C6.03528 13.1371 5.95917 13.0998 5.88971 13.0612C5.77751 13.0064 5.55929 12.9739 5.31678 12.9486C5.07426 12.9233 4.80643 12.9055 4.55488 12.7827C4.30332 12.6598 4.09401 12.4228 4.09401 12.0082C4.09401 11.4192 4.51258 10.9392 5.06354 10.8151C5.06354 10.8151 5.06354 10.6356 5.06354 10.5459C5.06354 10.357 5.20806 10.2644 5.34589 10.2652ZM10.8033 10.4058C11.0571 11.0179 11.2111 11.6806 11.2439 12.3745H17.0161C17.5614 12.3745 18.0005 11.9355 18.0005 11.3902C18.0005 10.8448 17.5614 10.4058 17.0161 10.4058H10.8033ZM11.2439 12.937C11.211 13.631 11.0571 14.2937 10.8033 14.9057H17.0161C17.5614 14.9057 18.0005 14.4667 18.0005 13.9214C18.0005 13.3761 17.5614 12.937 17.0161 12.937H11.2439ZM10.5358 15.4682C10.1124 16.2456 9.51553 16.9137 8.80327 17.4315C8.82241 17.4325 8.84048 17.4368 8.85982 17.4368H17.016C17.5614 17.4368 18.0004 16.9978 18.0004 16.4524C18.0004 15.9071 17.5614 15.4681 17.016 15.4681L10.5358 15.4682Z" fill="url(#paint0_linear_1377_2121)"/>
<defs>
<linearGradient id="paint0_linear_1377_2121" x1="-2.30767e-08" y1="10.75" x2="18.0005" y2="10.75" gradientUnits="userSpaceOnUse">
<stop stop-color="#2942CB"/>
<stop offset="1" stop-color="#273DB1"/>
</linearGradient>
</defs>
</svg>
