<svg width="21" height="14" viewBox="0 0 21 14" fill="none" xmlns="http://www.w3.org/2000/svg">
<path d="M20.3459 8.18232C20.1996 6.54042 19.9587 6.22065 19.8677 6.10039C19.6584 5.82247 19.3236 5.64085 18.9693 5.45029C18.9493 5.4397 18.932 5.42459 18.9188 5.40617C18.9056 5.38774 18.8968 5.3665 18.8933 5.34412C18.8897 5.32174 18.8913 5.29884 18.8981 5.27721C18.9049 5.25558 18.9166 5.23583 18.9323 5.21951C18.998 5.15296 19.0484 5.073 19.0802 4.98512C19.1119 4.89724 19.1243 4.80352 19.1164 4.7104C19.1011 4.54528 19.0243 4.39193 18.9013 4.28077C18.7782 4.16961 18.6179 4.10876 18.4521 4.11028H17.8182C17.7911 4.11044 17.7639 4.11221 17.737 4.11556C17.7185 4.10754 17.6993 4.10115 17.6797 4.09647C17.3043 3.30294 16.7903 2.21647 15.7249 1.68624C14.1448 0.900433 11.234 0.859802 10.6652 0.859802C10.0963 0.859802 7.18552 0.900433 5.60741 1.68502C4.54207 2.21525 4.02809 3.30172 3.65266 4.09525L3.64941 4.10175C3.63068 4.10438 3.61229 4.10901 3.59455 4.11556C3.56759 4.11221 3.54046 4.11044 3.51329 4.11028H2.87823C2.71241 4.10876 2.55208 4.16961 2.42903 4.28077C2.30598 4.39193 2.2292 4.54528 2.21391 4.7104C2.2067 4.8033 2.21962 4.89666 2.25181 4.98411C2.284 5.07155 2.33469 5.15102 2.40041 5.21707C2.41613 5.23339 2.42785 5.25315 2.43463 5.27477C2.44141 5.2964 2.44308 5.3193 2.43949 5.34168C2.43591 5.36406 2.42717 5.3853 2.41397 5.40373C2.40077 5.42215 2.38347 5.43726 2.36344 5.44785C2.00913 5.63963 1.67271 5.82125 1.46508 6.09795C1.37407 6.21984 1.13354 6.53798 0.986858 8.17988C0.905596 9.10383 0.893407 10.0603 0.957198 10.6762C1.09087 11.9561 1.34157 12.7297 1.35213 12.7618C1.3906 12.8786 1.46141 12.9821 1.55635 13.0603C1.65128 13.1385 1.76644 13.1881 1.88846 13.2035V13.2116C1.88846 13.384 1.95695 13.5494 2.07887 13.6713C2.20078 13.7932 2.36614 13.8617 2.53856 13.8617H4.81389C4.98631 13.8617 5.15166 13.7932 5.27358 13.6713C5.39549 13.5494 5.46399 13.384 5.46399 13.2116C5.81382 13.2116 6.0572 13.149 6.3152 13.0824C6.6877 12.982 7.06845 12.9153 7.45287 12.8829C8.69252 12.7647 9.92527 12.724 10.6652 12.724C11.39 12.724 12.6772 12.7647 13.9189 12.8829C14.3048 12.9153 14.6871 12.9824 15.061 13.0832C15.3081 13.1466 15.5425 13.2051 15.8671 13.2112C15.8671 13.3836 15.9356 13.549 16.0575 13.6709C16.1795 13.7928 16.3448 13.8613 16.5172 13.8613H18.7926C18.965 13.8613 19.1303 13.7928 19.2523 13.6709C19.3742 13.549 19.4427 13.3836 19.4427 13.2112V13.2063C19.565 13.1913 19.6805 13.1418 19.7757 13.0636C19.871 12.9854 19.942 12.8817 19.9806 12.7647C19.9912 12.7326 20.2419 11.959 20.3756 10.6791C20.4393 10.0627 20.428 9.10789 20.3459 8.18232V8.18232ZM4.8277 4.65108C5.15275 3.96035 5.52453 3.17861 6.1864 2.8491C7.14286 2.3729 9.12524 2.15837 10.6652 2.15837C12.2051 2.15837 14.1875 2.37127 15.1439 2.8491C15.8058 3.17861 16.1759 3.96076 16.5026 4.65108L16.5432 4.73925C16.567 4.78944 16.5775 4.84489 16.5737 4.90029C16.57 4.9557 16.5521 5.00922 16.5218 5.05575C16.4915 5.10228 16.4498 5.14027 16.4006 5.16609C16.3514 5.19191 16.2965 5.20471 16.2409 5.20325C14.8908 5.16669 12.0466 5.04967 10.6652 5.04967C9.2837 5.04967 6.43954 5.16953 5.08734 5.2061C5.03182 5.20755 4.97686 5.19475 4.9277 5.16893C4.87853 5.14311 4.8368 5.10512 4.80649 5.05859C4.77618 5.01206 4.75829 4.95854 4.75453 4.90314C4.75078 4.84773 4.76128 4.79229 4.78504 4.74209C4.79926 4.71203 4.8143 4.68155 4.8277 4.65108V4.65108ZM5.31243 7.88652C4.6135 7.97065 3.9101 8.01217 3.20612 8.01085C2.77543 8.01085 2.33134 7.88896 2.24886 7.5054C2.19238 7.2474 2.19847 7.10235 2.22895 6.95648C2.25454 6.83256 2.29518 6.74236 2.49833 6.71066C3.02653 6.6294 3.32192 6.73138 4.18655 6.98614C4.75985 7.15476 5.17347 7.37945 5.40913 7.55741C5.52737 7.64518 5.46439 7.87433 5.31243 7.88652ZM14.3073 11.2183C13.7726 11.2792 12.7032 11.2569 10.6773 11.2569C8.65149 11.2569 7.58249 11.2792 7.04778 11.2183C6.49601 11.1569 5.79269 10.6352 6.27295 10.1704C6.59271 9.86403 7.3387 9.63487 8.33213 9.50607C9.32555 9.37727 9.74609 9.31105 10.6733 9.31105C11.6005 9.31105 11.9784 9.35168 13.0144 9.50648C14.0505 9.66128 14.8335 9.89329 15.0736 10.1708C15.5116 10.6681 14.8587 11.1537 14.3073 11.2207V11.2183ZM19.0815 7.505C19.0002 7.89018 18.5533 8.01045 18.1242 8.01045C17.4067 8.01062 16.6899 7.9691 15.9773 7.88612C15.8529 7.87433 15.7952 7.65615 15.9212 7.55701C16.1532 7.37457 16.5713 7.15435 17.1438 6.98573C18.0084 6.73098 18.5069 6.62899 18.9352 6.71391C19.0396 6.73464 19.0949 6.84678 19.1014 6.91707C19.13 7.11279 19.1233 7.31207 19.0815 7.5054V7.505Z" fill="url(#paint0_linear_1472_10948)"/>
<defs>
<linearGradient id="paint0_linear_1472_10948" x1="0.916504" y1="8.62483" x2="20.4165" y2="8.62483" gradientUnits="userSpaceOnUse">
<stop stop-color="#2942CB"/>
<stop offset="1" stop-color="#273DB1"/>
</linearGradient>
</defs>
</svg>
