<svg width="18" height="17" viewBox="0 0 18 17" fill="none" xmlns="http://www.w3.org/2000/svg">
<path d="M16.6605 0.0394319C11.5179 1.64396 6.03138 3.83772 0.513255 5.87291C-0.175457 6.12744 -0.170183 7.05909 0.523802 7.26299C2.12728 7.73373 3.73709 8.22733 5.34724 8.7276C5.45166 8.75995 5.56486 8.74553 5.65697 8.68788C8.23111 7.07666 10.8253 5.42151 13.3428 3.85635C13.4733 3.77514 13.6153 3.95865 13.5021 4.06236C11.4567 5.93971 9.3301 7.89229 7.23514 9.81428C7.10084 9.93733 7.07658 10.1398 7.17713 10.2928C8.52678 12.3455 9.87186 14.4085 11.1312 16.4349C11.4511 16.951 12.208 16.8431 12.4358 16.256C14.4049 11.1565 16.4784 6.10846 17.961 1.33564C18.1867 0.60369 17.3914 -0.186975 16.6605 0.0394319Z" fill="white"/>
<path d="M5.09766 10.3157C5.11031 11.7427 5.13633 13.1697 5.17535 14.5967C5.19363 15.2063 5.91223 15.5449 6.34395 15.1388C6.79535 14.7155 7.25203 14.2884 7.71293 13.8588C7.93582 13.651 7.9766 13.3068 7.8075 13.0467C7.16625 12.0602 6.51762 11.0734 5.87039 10.0914C5.63906 9.74058 5.09414 9.89948 5.09801 10.3157H5.09766Z" fill="white"/>
</svg>
