<svg width="20" height="30" viewBox="0 0 20 30" fill="none" xmlns="http://www.w3.org/2000/svg">
<path d="M19.4561 12.3068C19.4561 11.56 18.8473 10.9512 18.1004 10.9512C17.3536 10.9512 16.7448 11.56 16.7448 12.3068C16.7448 16.1792 13.5941 19.3236 9.72803 19.3236C5.86192 19.3236 2.7113 16.1729 2.7113 12.3068C2.7113 11.56 2.10251 10.9512 1.35565 10.9512C0.608786 10.9512 0 11.56 0 12.3068C0 17.2148 3.64644 21.2817 8.37238 21.9407V27.288H4.88284C4.13598 27.288 3.5272 27.8968 3.5272 28.6436C3.5272 29.3905 4.13598 29.9993 4.88284 29.9993H14.5795C15.3264 29.9993 15.9351 29.3905 15.9351 28.6436C15.9351 27.8968 15.3264 27.288 14.5795 27.288H11.09V21.9407C15.8096 21.2817 19.4561 17.2085 19.4561 12.3068Z" fill="url(#paint0_linear_1425_26615)" fill-opacity="0.5"/>
<path d="M9.72802 0C6.81589 0 4.45605 2.35983 4.45605 5.27197V12.2197C4.45605 15.1318 6.81589 17.4916 9.72802 17.4916C12.6402 17.4916 15 15.1318 15 12.2197V5.27197C15 2.35983 12.6402 0 9.72802 0ZM9.7343 3.50837C8.7866 3.50837 8.01463 4.28034 8.01463 5.22803C8.01463 5.24059 8.01463 5.25314 8.01463 5.26569L8.00208 11.5356C8.00208 11.9686 7.65062 12.3138 7.22384 12.3138C6.79078 12.3138 6.44559 11.9623 6.44559 11.5356V5.22803V5.22176C6.44559 3.40795 7.92049 1.93305 9.7343 1.93305C10.1674 1.93305 10.5188 2.28452 10.5188 2.71757C10.5188 3.1569 10.1674 3.50837 9.7343 3.50837Z" fill="url(#paint1_linear_1425_26615)" fill-opacity="0.5"/>
<defs>
<linearGradient id="paint0_linear_1425_26615" x1="-2.49428e-08" y1="22.3271" x2="19.4561" y2="22.3271" gradientUnits="userSpaceOnUse">
<stop stop-color="#2942CB"/>
<stop offset="1" stop-color="#273DB1"/>
</linearGradient>
<linearGradient id="paint1_linear_1425_26615" x1="4.45605" y1="10.4464" x2="15" y2="10.4464" gradientUnits="userSpaceOnUse">
<stop stop-color="#2942CB"/>
<stop offset="1" stop-color="#273DB1"/>
</linearGradient>
</defs>
</svg>
