<svg width="38" height="38" viewBox="0 0 38 38" fill="none" xmlns="http://www.w3.org/2000/svg">
<path d="M35.6922 14.9281L32.7547 14.5547C32.5125 13.8094 32.2141 13.0906 31.8656 12.4078L33.6797 10.0719C34.4141 9.12656 34.3281 7.79219 33.4891 6.97969L31.0281 4.51875C30.2078 3.67188 28.8734 3.5875 27.9266 4.32031L25.5938 6.13438C24.9109 5.78594 24.1922 5.4875 23.4453 5.24531L23.0719 2.3125C22.9313 1.13594 21.9328 0.25 20.75 0.25H17.25C16.0672 0.25 15.0688 1.13594 14.9281 2.30781L14.5547 5.24531C13.8078 5.4875 13.0891 5.78438 12.4063 6.13438L10.0719 4.32031C9.12813 3.5875 7.79375 3.67187 6.97969 4.51094L4.51875 6.97031C3.67188 7.79219 3.58594 9.12656 4.32031 10.0734L6.13438 12.4078C5.78438 13.0906 5.4875 13.8094 5.24531 14.5547L2.3125 14.9281C1.13594 15.0688 0.25 16.0672 0.25 17.25V20.75C0.25 21.9328 1.13594 22.9312 2.30781 23.0719L5.24531 23.4453C5.4875 24.1906 5.78594 24.9094 6.13438 25.5922L4.32031 27.9281C3.58594 28.8734 3.67188 30.2078 4.51094 31.0203L6.97188 33.4812C7.79375 34.3266 9.12656 34.4109 10.0734 33.6781L12.4078 31.8641C13.0906 32.2141 13.8094 32.5125 14.5547 32.7531L14.9281 35.6844C15.0688 36.8641 16.0672 37.75 17.25 37.75H20.75C21.9328 37.75 22.9313 36.8641 23.0719 35.6922L23.4453 32.7547C24.1906 32.5125 24.9094 32.2141 25.5922 31.8656L27.9281 33.6797C28.8734 34.4141 30.2078 34.3281 31.0203 33.4891L33.4813 31.0281C34.3281 30.2062 34.4141 28.8734 33.6797 27.9266L31.8656 25.5922C32.2156 24.9094 32.5141 24.1906 32.7547 23.4453L35.6859 23.0719C36.8625 22.9312 37.7484 21.9328 37.7484 20.75V17.25C37.75 16.0672 36.8641 15.0688 35.6922 14.9281V14.9281ZM19 26.8125C14.6922 26.8125 11.1875 23.3078 11.1875 19C11.1875 14.6922 14.6922 11.1875 19 11.1875C23.3078 11.1875 26.8125 14.6922 26.8125 19C26.8125 23.3078 23.3078 26.8125 19 26.8125Z" fill="url(#paint0_linear_1377_23570)"/>
<defs>
<linearGradient id="paint0_linear_1377_23570" x1="0.25" y1="22.6458" x2="37.7484" y2="22.6458" gradientUnits="userSpaceOnUse">
<stop stop-color="#2942CB"/>
<stop offset="1" stop-color="#273DB1"/>
</linearGradient>
</defs>
</svg>
