<svg width="30" height="30" viewBox="0 0 30 30" fill="none" xmlns="http://www.w3.org/2000/svg">
<path d="M15 0C6.71371 0 0 6.71371 0 15C0 23.2863 6.71371 30 15 30C23.2863 30 30 23.2863 30 15C30 6.71371 23.2863 0 15 0ZM19.8387 10.1613C20.9093 10.1613 21.7742 11.0262 21.7742 12.0968C21.7742 13.1673 20.9093 14.0323 19.8387 14.0323C18.7681 14.0323 17.9032 13.1673 17.9032 12.0968C17.9032 11.0262 18.7681 10.1613 19.8387 10.1613ZM10.1613 10.1613C11.2319 10.1613 12.0968 11.0262 12.0968 12.0968C12.0968 13.1673 11.2319 14.0323 10.1613 14.0323C9.09073 14.0323 8.22581 13.1673 8.22581 12.0968C8.22581 11.0262 9.09073 10.1613 10.1613 10.1613ZM21.9435 20.4556C20.2198 22.5242 17.6915 23.7097 15 23.7097C12.3085 23.7097 9.78024 22.5242 8.05645 20.4556C7.23387 19.4698 8.72177 18.2359 9.54435 19.2157C10.8992 20.8427 12.8831 21.7681 15 21.7681C17.1169 21.7681 19.1008 20.8367 20.4556 19.2157C21.2661 18.2359 22.7601 19.4698 21.9435 20.4556Z" fill="url(#paint0_linear_1425_23552)" fill-opacity="0.5"/>
<defs>
<linearGradient id="paint0_linear_1425_23552" x1="-3.84602e-08" y1="17.9167" x2="30" y2="17.9167" gradientUnits="userSpaceOnUse">
<stop stop-color="#2942CB"/>
<stop offset="1" stop-color="#273DB1"/>
</linearGradient>
</defs>
</svg>
