<svg width="27" height="27" viewBox="0 0 27 27" fill="none" xmlns="http://www.w3.org/2000/svg">
<path d="M13.8783 26.624C11.6985 26.6281 9.57036 25.9603 7.78368 24.7115C7.5847 24.5729 7.44896 24.3608 7.40633 24.1221C7.3637 23.8833 7.41766 23.6374 7.55635 23.4384C7.69503 23.2394 7.90708 23.1037 8.14585 23.061C8.38461 23.0184 8.63053 23.0724 8.82951 23.2111C10.1546 24.1336 11.7072 24.6755 13.3186 24.7779C14.93 24.8802 16.5387 24.5392 17.9699 23.7917C19.4011 23.0442 20.6002 21.9189 21.4369 20.5379C22.2736 19.157 22.716 17.5732 22.716 15.9585C22.716 14.3438 22.2736 12.76 21.4369 11.3791C20.6002 9.99814 19.4011 8.87282 17.9699 8.12534C16.5387 7.37785 14.93 7.03676 13.3186 7.13912C11.7072 7.24148 10.1546 7.78337 8.82951 8.70594C8.73098 8.77461 8.6199 8.8232 8.5026 8.84894C8.38529 8.87468 8.26407 8.87706 8.14585 8.85596C8.02762 8.83485 7.91471 8.79066 7.81357 8.72591C7.71242 8.66117 7.62502 8.57714 7.55635 8.47861C7.48768 8.38009 7.43909 8.269 7.41335 8.1517C7.38761 8.0344 7.38522 7.91317 7.40633 7.79495C7.44896 7.55619 7.5847 7.34414 7.78368 7.20545C9.15754 6.24894 10.7373 5.62926 12.395 5.39653C14.0528 5.16381 15.7421 5.32459 17.3262 5.86586C18.9104 6.40712 20.3448 7.31368 21.5136 8.51218C22.6823 9.71068 23.5526 11.1675 24.0539 12.7647C24.5551 14.3619 24.6734 16.0547 24.3991 17.7061C24.1248 19.3575 23.4656 20.9212 22.4749 22.2706C21.4842 23.62 20.1897 24.7172 18.6963 25.4735C17.2028 26.2298 15.5523 26.6239 13.8783 26.624V26.624Z" fill="url(#paint0_linear_1682_4226)"/>
<path d="M7.78351 17.4846H2.90784C2.66538 17.4846 2.43286 17.3883 2.26141 17.2169C2.08997 17.0454 1.99365 16.8129 1.99365 16.5704C1.99365 16.328 2.08997 16.0955 2.26141 15.924C2.43286 15.7526 2.66538 15.6562 2.90784 15.6562H7.78351C8.02597 15.6562 8.2585 15.7526 8.42994 15.924C8.60139 16.0955 8.6977 16.328 8.6977 16.5704C8.6977 16.8129 8.60139 17.0454 8.42994 17.2169C8.2585 17.3883 8.02597 17.4846 7.78351 17.4846V17.4846Z" fill="url(#paint1_linear_1682_4226)"/>
<path d="M8.61254 13.8245H1.68909C1.44663 13.8245 1.21411 13.7282 1.04266 13.5567C0.871218 13.3853 0.774902 13.1527 0.774902 12.9103C0.774902 12.6678 0.871218 12.4353 1.04266 12.2639C1.21411 12.0924 1.44663 11.9961 1.68909 11.9961H8.61254C8.855 11.9961 9.08753 12.0924 9.25897 12.2639C9.43042 12.4353 9.52673 12.6678 9.52673 12.9103C9.52673 13.1527 9.43042 13.3853 9.25897 13.5567C9.08753 13.7282 8.855 13.8245 8.61254 13.8245V13.8245Z" fill="url(#paint2_linear_1682_4226)"/>
<path d="M9.0026 21.1409H1.68909C1.44663 21.1409 1.21411 21.0446 1.04266 20.8731C0.871218 20.7017 0.774902 20.4691 0.774902 20.2267C0.774902 19.9842 0.871218 19.7517 1.04266 19.5803C1.21411 19.4088 1.44663 19.3125 1.68909 19.3125H9.0026C9.24506 19.3125 9.47758 19.4088 9.64903 19.5803C9.82047 19.7517 9.91679 19.9842 9.91679 20.2267C9.91679 20.4691 9.82047 20.7017 9.64903 20.8731C9.47758 21.0446 9.24506 21.1409 9.0026 21.1409Z" fill="url(#paint3_linear_1682_4226)"/>
<path d="M25.6033 3.33268L21.4931 0.708351C21.0157 0.404978 20.4375 0.303263 19.8853 0.425505C19.333 0.547747 18.8517 0.883971 18.547 1.36047L17.8912 2.38802C17.5875 2.86498 17.4854 3.44298 17.6074 3.99513C17.7295 4.54727 18.0656 5.02842 18.5421 5.33293L22.6547 7.95604C23.1319 8.25843 23.7093 8.35971 24.2608 8.23775C24.8124 8.11579 25.2933 7.7805 25.5984 7.30513L26.2542 6.27759C26.5573 5.80045 26.659 5.22265 26.537 4.6707C26.415 4.11875 26.0793 3.63763 25.6033 3.33268V3.33268Z" fill="url(#paint4_linear_1682_4226)"/>
<path d="M19.7766 8.8441C19.6129 8.84377 19.4523 8.79948 19.3115 8.71587C19.1708 8.63226 19.0551 8.5124 18.9765 8.36879C18.8979 8.22519 18.8593 8.06312 18.8648 7.89951C18.8702 7.7359 18.9195 7.57675 19.0074 7.43869L20.3178 5.38359C20.3824 5.28235 20.4663 5.19482 20.5647 5.12599C20.6631 5.05717 20.7741 5.00841 20.8914 4.98249C21.0086 4.95657 21.1299 4.954 21.2481 4.97493C21.3664 4.99586 21.4793 5.03987 21.5806 5.10446C21.6818 5.16905 21.7694 5.25295 21.8382 5.35136C21.907 5.44978 21.9558 5.56079 21.9817 5.67805C22.0076 5.79531 22.0102 5.91653 21.9892 6.03478C21.9683 6.15304 21.9243 6.26601 21.8597 6.36726L20.5482 8.42114C20.4658 8.55109 20.3518 8.65804 20.2169 8.73201C20.0819 8.80597 19.9305 8.84454 19.7766 8.8441V8.8441Z" fill="url(#paint5_linear_1682_4226)"/>
<path d="M13.8784 8.94937C12.4922 8.94937 11.1371 9.36043 9.98454 10.1306C8.83195 10.9007 7.93362 11.9953 7.40314 13.276C6.87267 14.5567 6.73387 15.9659 7.0043 17.3255C7.27474 18.6851 7.94226 19.9339 8.92246 20.9141C9.90265 21.8943 11.1515 22.5618 12.5111 22.8323C13.8706 23.1027 15.2799 22.9639 16.5606 22.4334C17.8412 21.9029 18.9359 21.0046 19.706 19.852C20.4761 18.6994 20.8872 17.3444 20.8872 15.9582C20.8933 15.036 20.7163 14.1219 20.3662 13.2687C20.0162 12.4156 19.5001 11.6405 18.8481 10.9885C18.196 10.3364 17.4209 9.82039 16.5678 9.47035C15.7147 9.1203 14.8005 8.94322 13.8784 8.94937ZM16.916 14.532L15.6714 15.612C15.6944 15.726 15.7062 15.8419 15.7068 15.9582C15.713 16.3537 15.5928 16.7408 15.3637 17.0633C15.1345 17.3857 14.8085 17.6266 14.4329 17.7509C14.0574 17.8752 13.652 17.8763 13.2757 17.7541C12.8995 17.632 12.5721 17.3929 12.3412 17.0718C12.1102 16.7506 11.9879 16.3641 11.9918 15.9686C11.9958 15.573 12.126 15.1891 12.3633 14.8726C12.6007 14.5562 12.9329 14.3238 13.3115 14.2092C13.6901 14.0947 14.0954 14.104 14.4684 14.2358L15.7165 13.151C15.8997 12.9919 16.1385 12.9121 16.3805 12.9292C16.6224 12.9462 16.8477 13.0587 17.0068 13.2418C17.1658 13.4249 17.2456 13.6637 17.2286 13.9057C17.2115 14.1477 17.0991 14.373 16.916 14.532V14.532Z" fill="url(#paint6_linear_1682_4226)"/>
<defs>
<linearGradient id="paint0_linear_1682_4226" x1="7.39209" y1="18.0324" x2="24.5433" y2="18.0324" gradientUnits="userSpaceOnUse">
<stop stop-color="#2942CB"/>
<stop offset="1" stop-color="#273DB1"/>
</linearGradient>
<linearGradient id="paint1_linear_1682_4226" x1="1.99365" y1="16.7482" x2="8.6977" y2="16.7482" gradientUnits="userSpaceOnUse">
<stop stop-color="#2942CB"/>
<stop offset="1" stop-color="#273DB1"/>
</linearGradient>
<linearGradient id="paint2_linear_1682_4226" x1="0.774902" y1="13.088" x2="9.52673" y2="13.088" gradientUnits="userSpaceOnUse">
<stop stop-color="#2942CB"/>
<stop offset="1" stop-color="#273DB1"/>
</linearGradient>
<linearGradient id="paint3_linear_1682_4226" x1="0.774902" y1="20.4044" x2="9.91679" y2="20.4044" gradientUnits="userSpaceOnUse">
<stop stop-color="#2942CB"/>
<stop offset="1" stop-color="#273DB1"/>
</linearGradient>
<linearGradient id="paint4_linear_1682_4226" x1="17.5571" y1="5.10093" x2="26.5874" y2="5.10093" gradientUnits="userSpaceOnUse">
<stop stop-color="#2942CB"/>
<stop offset="1" stop-color="#273DB1"/>
</linearGradient>
<linearGradient id="paint5_linear_1682_4226" x1="18.8643" y1="7.28005" x2="22.0032" y2="7.28005" gradientUnits="userSpaceOnUse">
<stop stop-color="#2942CB"/>
<stop offset="1" stop-color="#273DB1"/>
</linearGradient>
<linearGradient id="paint6_linear_1682_4226" x1="6.86963" y1="17.3209" x2="20.8873" y2="17.3209" gradientUnits="userSpaceOnUse">
<stop stop-color="#2942CB"/>
<stop offset="1" stop-color="#273DB1"/>
</linearGradient>
</defs>
</svg>
