<svg width="18" height="16" viewBox="0 0 18 16" fill="none" xmlns="http://www.w3.org/2000/svg">
<path d="M17.3859 4.58124L13.3114 0.506672C12.9752 0.170473 12.6341 0 12.2978 0C11.8361 0 11.2969 0.351211 11.2969 1.34107V2.72823C8.33657 2.85725 5.57205 4.0713 3.46352 6.17973C1.23026 8.41285 0.000210938 11.382 0 14.5402C0 14.7671 0.145125 14.9686 0.360352 15.0404C0.415301 15.0588 0.471551 15.0676 0.527273 15.0676C0.689941 15.0676 0.847406 14.9921 0.948938 14.857C3.43867 11.5429 7.18703 9.5844 11.2969 9.42978V10.7956C11.2969 11.7854 11.8361 12.1367 12.2978 12.1367H12.2979C12.6342 12.1367 12.9752 11.9662 13.3114 11.63L17.3859 7.55539C17.7819 7.1595 18 6.63138 18 6.06832C18 5.50536 17.7819 4.97721 17.3859 4.58124Z" fill="#5A5A5A"/>
</svg>
