<svg width="39" height="38" viewBox="0 0 39 38" fill="none" xmlns="http://www.w3.org/2000/svg">
<path d="M38.6326 26.0943L34.9644 22.4258L27.376 30.0142C26.0214 31.3687 24.3213 32.2519 22.4746 32.5824L27.3095 37.4174C27.7523 37.8604 28.4706 37.8604 28.9134 37.4174L38.6326 27.6985C39.0757 27.2554 39.0757 26.5371 38.6326 26.0943V26.0943Z" fill="url(#paint0_linear_1377_26636)"/>
<path d="M33.4701 20.7123C34.7488 19.4339 34.7491 17.3536 33.4719 16.0744C33.4704 16.0729 33.4689 16.0714 33.4675 16.0699C33.1514 15.7542 32.7822 15.5108 32.3802 15.348C32.7287 14.4664 32.8023 12.9753 31.6477 11.8204C31.6447 11.8175 31.6418 11.8142 31.6385 11.8113C31.324 11.4988 30.9571 11.2577 30.5578 11.0959C30.9063 10.2148 30.9801 8.72345 29.8261 7.56914C29.8252 7.56826 29.8246 7.56767 29.8241 7.56707C29.5077 7.25073 29.1382 7.00676 28.7356 6.84401C29.0842 5.96232 29.1577 4.47099 28.0031 3.31609C28.0028 3.31609 28.0028 3.31579 28.0025 3.31579C28.0022 3.3155 28.0019 3.3152 28.0016 3.31491C26.7224 2.03566 24.6412 2.03566 23.3619 3.31491L21.2113 5.46521L22.311 6.56488C24.1435 8.39736 24.1435 11.3788 22.3113 13.2113C21.6946 13.8278 20.9369 14.2513 20.1111 14.4531C19.9135 15.2582 19.5011 16.0215 18.8729 16.6494C18.257 17.2653 17.5006 17.6886 16.6756 17.8906C16.4739 18.7153 16.0503 19.472 15.4347 20.0876C14.8189 20.7034 14.0625 21.1267 13.2375 21.3287C13.0357 22.1534 12.6122 22.9101 11.9966 23.526C11.109 24.4133 9.92873 24.9024 8.6734 24.9024C7.41807 24.9024 6.23777 24.4136 5.35018 23.5257L4.25051 22.426L0.582293 26.0945C0.139236 26.5376 0.139236 27.2556 0.582293 27.6987L10.3012 37.4176C10.7442 37.8607 11.4623 37.8604 11.9054 37.4176L18.8625 30.4607H20.8226C22.6923 30.4607 24.4501 29.7323 25.7722 28.4105L33.4701 20.7123Z" fill="url(#paint1_linear_1377_26636)"/>
<path d="M6.95426 21.9218C7.90358 22.8714 9.44306 22.8714 10.3924 21.9218C11.342 20.9725 11.342 19.4333 10.3924 18.4837C11.342 19.4333 12.8812 19.4333 13.8308 18.4837C14.7801 17.5343 14.7801 15.9949 13.8308 15.0455C14.7801 15.9949 16.3196 15.9949 17.2689 15.0455C18.2182 14.0962 18.2182 12.5567 17.2689 11.6074C18.2182 12.5567 19.7577 12.5567 20.707 11.6074C21.6567 10.6578 21.6567 9.11862 20.707 8.169L15.8594 3.32137C14.9101 2.37204 13.3706 2.37204 12.4213 3.32137C11.472 4.27069 11.472 5.81017 12.4213 6.75949L13.0286 7.36707C12.0792 6.41745 10.5398 6.41745 9.59045 7.36707C8.64113 8.31639 8.64113 9.85587 9.59045 10.8052L10.8053 12.0201C9.85599 11.0707 8.31651 11.0707 7.36719 12.0201C6.41757 12.9694 6.41757 14.5089 7.36719 15.4582L8.58205 16.6733C7.63243 15.7237 6.09325 15.7237 5.14363 16.6733C4.19431 17.6227 4.19431 19.1618 5.14363 20.1115L6.95426 21.9218Z" fill="url(#paint2_linear_1377_26636)"/>
<path d="M21.7577 1.71086C21.9255 1.54309 22.103 1.3889 22.2876 1.24565L21.6242 0.582245C21.2792 0.236956 20.7514 0.151594 20.3152 0.369578L17.5156 1.76934L19.6074 3.86146L21.7577 1.71086Z" fill="url(#paint3_linear_1377_26636)"/>
<defs>
<linearGradient id="paint0_linear_1377_26636" x1="22.4746" y1="31.5775" x2="38.9649" y2="31.5775" gradientUnits="userSpaceOnUse">
<stop stop-color="#2942CB"/>
<stop offset="1" stop-color="#273DB1"/>
</linearGradient>
<linearGradient id="paint1_linear_1377_26636" x1="0.25" y1="23.4937" x2="34.4295" y2="23.4937" gradientUnits="userSpaceOnUse">
<stop stop-color="#2942CB"/>
<stop offset="1" stop-color="#273DB1"/>
</linearGradient>
<linearGradient id="paint2_linear_1377_26636" x1="4.43164" y1="14.5685" x2="21.4193" y2="14.5685" gradientUnits="userSpaceOnUse">
<stop stop-color="#2942CB"/>
<stop offset="1" stop-color="#273DB1"/>
</linearGradient>
<linearGradient id="paint3_linear_1377_26636" x1="17.5156" y1="2.40684" x2="22.2876" y2="2.40684" gradientUnits="userSpaceOnUse">
<stop stop-color="#2942CB"/>
<stop offset="1" stop-color="#273DB1"/>
</linearGradient>
</defs>
</svg>
