<svg width="14" height="11" viewBox="0 0 14 11" fill="none" xmlns="http://www.w3.org/2000/svg">
<path d="M9.79165 7.40835L9.14304 6.36297C9.82373 7.20875 11.0833 7.25077 11.8186 6.46886C12.49 5.75491 12.4557 4.6337 11.7417 3.96218C11.0281 3.29098 9.90661 3.32502 9.23506 4.0391C8.71916 4.58769 8.62558 5.36771 8.91604 5.99709L7.34709 3.46838L9.67537 2.79652C10.3984 2.58787 10.7402 1.76021 10.3728 1.1019C10.106 0.623913 9.55236 0.396048 9.0265 0.547817L5.50163 1.56496C4.58771 1.82871 4.17844 2.89109 4.68026 3.69993L5.74565 5.41704L3.8772 6.57638C6.12508 6.62803 7.74924 7.31245 9.79165 7.40835V7.40835Z" fill="url(#paint0_linear_1449_2092)"/>
<path d="M0.753755 8.57309C5.86363 7.12052 7.79347 10.053 13.4543 8.57533C13.6657 8.52017 13.7922 8.30409 13.7371 8.09276C13.6819 7.88143 13.4658 7.75484 13.2545 7.80997C7.81591 9.22968 5.88341 6.29254 0.537465 7.81221C0.327371 7.87193 0.205449 8.09068 0.265171 8.3008C0.324919 8.51094 0.54374 8.63281 0.753755 8.57309V8.57309Z" fill="url(#paint1_linear_1449_2092)"/>
<path d="M13.2545 9.65567C7.80592 11.078 5.89401 8.13518 0.537465 9.65792C0.327371 9.71764 0.205449 9.93638 0.265171 10.1465C0.324892 10.3566 0.543714 10.4785 0.753755 10.4188C5.86363 8.96623 7.79347 11.8987 13.4543 10.421C13.6657 10.3659 13.7922 10.1498 13.7371 9.93846C13.6819 9.7271 13.4658 9.60051 13.2545 9.65567V9.65567Z" fill="url(#paint2_linear_1449_2092)"/>
<defs>
<linearGradient id="paint0_linear_1449_2092" x1="3.8772" y1="4.62631" x2="12.3005" y2="4.62631" gradientUnits="userSpaceOnUse">
<stop stop-color="#2942CB"/>
<stop offset="1" stop-color="#273DB1"/>
</linearGradient>
<linearGradient id="paint1_linear_1449_2092" x1="0.25" y1="8.34299" x2="13.75" y2="8.34299" gradientUnits="userSpaceOnUse">
<stop stop-color="#2942CB"/>
<stop offset="1" stop-color="#273DB1"/>
</linearGradient>
<linearGradient id="paint2_linear_1449_2092" x1="0.25" y1="10.1883" x2="13.75" y2="10.1883" gradientUnits="userSpaceOnUse">
<stop stop-color="#2942CB"/>
<stop offset="1" stop-color="#273DB1"/>
</linearGradient>
</defs>
</svg>
