<svg width="21" height="21" viewBox="0 0 21 21" fill="none" xmlns="http://www.w3.org/2000/svg">
<path d="M16.6558 8.64594V7.50336H1.72607V10.3598C1.72607 13.0068 3.12265 15.3666 5.21315 16.6821H13.1306C13.644 16.359 14.1524 15.9739 14.5717 15.5395H16.0845C18.2893 15.5395 20.0835 13.7453 20.0835 11.5405V8.64594H16.6558ZM18.9409 11.5405C18.9409 13.1154 17.6594 14.3969 16.0845 14.3969H15.4627C16.2097 13.2411 16.6558 11.8361 16.6558 10.3598V9.78851H18.9409V11.5405Z" fill="url(#paint0_linear_1472_20390)"/>
<path d="M6.67981 0.609802L6.04602 1.56047C6.27309 1.71167 6.40308 1.95488 6.40308 2.22773C6.40308 2.50058 6.27309 2.7438 6.04602 2.895C5.50375 3.25651 5.18018 3.86127 5.18018 4.51289C5.18018 5.1645 5.50375 5.76927 6.04602 6.13078L6.67977 5.18011C6.4527 5.02891 6.32272 4.7857 6.32272 4.51285C6.32272 4.24 6.4527 3.99678 6.67977 3.84558C7.22208 3.48411 7.54566 2.87934 7.54566 2.22769C7.54566 1.57608 7.22208 0.971314 6.67981 0.609802Z" fill="url(#paint1_linear_1472_20390)"/>
<path d="M9.53626 0.609802L8.90247 1.56047C9.12954 1.71167 9.25952 1.95488 9.25952 2.22773C9.25952 2.50058 9.12954 2.7438 8.90247 2.895C8.3602 3.25651 8.03662 3.86127 8.03662 4.51289C8.03662 5.1645 8.3602 5.76927 8.90247 6.13078L9.53622 5.18011C9.30915 5.02891 9.17916 4.7857 9.17916 4.51285C9.17916 4.24 9.30915 3.99678 9.53622 3.84558C10.0785 3.48411 10.4021 2.87934 10.4021 2.22769C10.4021 1.57608 10.0785 0.971314 9.53626 0.609802Z" fill="url(#paint2_linear_1472_20390)"/>
<path d="M12.3927 0.609802L11.7589 1.56047C11.986 1.71167 12.116 1.95488 12.116 2.22773C12.116 2.50058 11.986 2.7438 11.7589 2.895C11.2166 3.25651 10.8931 3.86127 10.8931 4.51289C10.8931 5.1645 11.2166 5.76927 11.7589 6.13078L12.3927 5.18011C12.1656 5.02891 12.0356 4.7857 12.0356 4.51285C12.0356 4.24 12.1656 3.99678 12.3927 3.84558C12.935 3.48411 13.2585 2.87934 13.2585 2.22769C13.2585 1.57608 12.935 0.971314 12.3927 0.609802Z" fill="url(#paint3_linear_1472_20390)"/>
<path d="M0.583496 17.8246C0.583496 19.0867 1.6066 20.1098 2.86865 20.1098H15.5132C16.7752 20.1098 17.7983 19.0867 17.7983 17.8246H0.583496Z" fill="url(#paint4_linear_1472_20390)"/>
<defs>
<linearGradient id="paint0_linear_1472_20390" x1="1.72607" y1="12.9851" x2="20.0835" y2="12.9851" gradientUnits="userSpaceOnUse">
<stop stop-color="#2942CB"/>
<stop offset="1" stop-color="#273DB1"/>
</linearGradient>
<linearGradient id="paint1_linear_1472_20390" x1="5.18018" y1="3.90705" x2="7.54566" y2="3.90705" gradientUnits="userSpaceOnUse">
<stop stop-color="#2942CB"/>
<stop offset="1" stop-color="#273DB1"/>
</linearGradient>
<linearGradient id="paint2_linear_1472_20390" x1="8.03662" y1="3.90705" x2="10.4021" y2="3.90705" gradientUnits="userSpaceOnUse">
<stop stop-color="#2942CB"/>
<stop offset="1" stop-color="#273DB1"/>
</linearGradient>
<linearGradient id="paint3_linear_1472_20390" x1="10.8931" y1="3.90705" x2="13.2585" y2="3.90705" gradientUnits="userSpaceOnUse">
<stop stop-color="#2942CB"/>
<stop offset="1" stop-color="#273DB1"/>
</linearGradient>
<linearGradient id="paint4_linear_1472_20390" x1="0.583496" y1="19.1894" x2="17.7983" y2="19.1894" gradientUnits="userSpaceOnUse">
<stop stop-color="#2942CB"/>
<stop offset="1" stop-color="#273DB1"/>
</linearGradient>
</defs>
</svg>
