<svg width="5" height="18" viewBox="0 0 5 18" fill="none" xmlns="http://www.w3.org/2000/svg">
<path fill-rule="evenodd" clip-rule="evenodd" d="M0.500003 15.75C0.500003 15.305 0.631959 14.87 0.879192 14.4999C1.12642 14.1299 1.47783 13.8416 1.88896 13.6713C2.30009 13.501 2.75249 13.4564 3.18895 13.5432C3.62541 13.63 4.02633 13.8443 4.34099 14.159C4.65566 14.4737 4.86995 14.8745 4.95676 15.311C5.04358 15.7475 4.99903 16.1999 4.82873 16.6111C4.65843 17.0222 4.37005 17.3736 4.00004 17.6208C3.63003 17.868 3.19501 18 2.75 18C2.15326 18 1.58097 17.763 1.15901 17.341C0.737054 16.919 0.500003 16.3467 0.500003 15.75ZM3.5 15.75C3.5 15.6017 3.45601 15.4567 3.3736 15.3333C3.29119 15.21 3.17406 15.1139 3.03702 15.0571C2.89997 15.0004 2.74917 14.9854 2.60369 15.0144C2.4582 15.0433 2.32456 15.1147 2.21967 15.2196C2.11478 15.3245 2.04335 15.4582 2.01441 15.6037C1.98547 15.7492 2.00033 15.9 2.0571 16.037C2.11386 16.1741 2.20999 16.2912 2.33332 16.3736C2.45666 16.456 2.60167 16.5 2.75 16.5C2.94891 16.5 3.13968 16.421 3.28033 16.2804C3.42098 16.1397 3.5 15.9489 3.5 15.75ZM0.500003 9C0.500003 8.555 0.631959 8.11995 0.879192 7.74994C1.12642 7.37993 1.47783 7.0916 1.88896 6.9213C2.30009 6.751 2.75249 6.7064 3.18895 6.79322C3.62541 6.88004 4.02633 7.09433 4.34099 7.409C4.65566 7.72367 4.86995 8.12455 4.95677 8.56101C5.04358 8.99747 4.99903 9.44992 4.82873 9.86106C4.65843 10.2722 4.37005 10.6236 4.00004 10.8708C3.63003 11.118 3.19501 11.25 2.75 11.25C2.15327 11.25 1.58097 11.013 1.15901 10.591C0.737054 10.1691 0.500003 9.59674 0.500003 9ZM3.5 9C3.5 8.85167 3.45601 8.70668 3.3736 8.58335C3.29119 8.46001 3.17406 8.3639 3.03702 8.30713C2.89998 8.25037 2.74918 8.23544 2.60369 8.26438C2.4582 8.29332 2.32456 8.36475 2.21967 8.46964C2.11478 8.57453 2.04335 8.70822 2.01441 8.8537C1.98547 8.99919 2.00033 9.14998 2.0571 9.28702C2.11386 9.42407 2.20999 9.54116 2.33332 9.62357C2.45666 9.70598 2.60167 9.75 2.75 9.75C2.94891 9.75 3.13968 9.67102 3.28033 9.53037C3.42098 9.38972 3.5 9.19892 3.5 9ZM0.500004 2.25001C0.500004 1.805 0.631959 1.36996 0.879192 0.999948C1.12643 0.629938 1.47783 0.341602 1.88896 0.171305C2.30009 0.00100765 2.75249 -0.0435941 3.18895 0.0432226C3.62541 0.130039 4.02633 0.344338 4.34099 0.659006C4.65566 0.973674 4.86995 1.37456 4.95677 1.81101C5.04358 2.24747 4.99903 2.69993 4.82873 3.11106C4.65843 3.52219 4.37005 3.87356 4.00004 4.1208C3.63003 4.36803 3.19501 4.50001 2.75 4.50001C2.15327 4.50001 1.58097 4.26297 1.15901 3.84101C0.737055 3.41905 0.500004 2.84675 0.500004 2.25001ZM3.5 2.25001C3.5 2.10167 3.45601 1.95669 3.3736 1.83335C3.29119 1.71002 3.17406 1.6139 3.03702 1.55714C2.89998 1.50037 2.74918 1.48544 2.60369 1.51438C2.4582 1.54332 2.32456 1.61475 2.21967 1.71964C2.11478 1.82453 2.04335 1.95822 2.01441 2.10371C1.98547 2.24919 2.00033 2.39998 2.0571 2.53703C2.11386 2.67407 2.20999 2.79116 2.33332 2.87357C2.45666 2.95598 2.60167 3.00001 2.75 3.00001C2.94891 3.00001 3.13968 2.92103 3.28033 2.78037C3.42098 2.63972 3.5 2.44892 3.5 2.25001Z" fill="url(#paint0_linear_1425_26600)" fill-opacity="0.7"/>
<defs>
<linearGradient id="paint0_linear_1425_26600" x1="2.3125" y1="-1.4055e-07" x2="2.3125" y2="18" gradientUnits="userSpaceOnUse">
<stop stop-color="#2942CB"/>
<stop offset="1" stop-color="#273DB1"/>
</linearGradient>
</defs>
</svg>
