<svg width="35" height="34" viewBox="0 0 35 34" fill="none" xmlns="http://www.w3.org/2000/svg">
<path d="M25.3967 23.3752C25.8368 23.3752 26.1935 23.0185 26.1935 22.5784C26.1935 22.1383 25.8368 21.7816 25.3967 21.7816C24.9566 21.7816 24.5999 22.1383 24.5999 22.5784C24.5999 23.0185 24.9566 23.3752 25.3967 23.3752Z" fill="url(#paint0_linear_1226_28638)"/>
<path d="M8.66309 15.4069H18.2252V23.3753H8.66309V15.4069Z" fill="url(#paint1_linear_1226_28638)"/>
<path d="M25.3967 17.0005C25.8368 17.0005 26.1935 16.6438 26.1935 16.2037C26.1935 15.7636 25.8368 15.4069 25.3967 15.4069C24.9566 15.4069 24.5999 15.7636 24.5999 16.2037C24.5999 16.6438 24.9566 17.0005 25.3967 17.0005Z" fill="url(#paint2_linear_1226_28638)"/>
<path d="M27.7871 10.6258H7.06924C6.43544 10.6265 5.82781 10.8786 5.37965 11.3267C4.93149 11.7749 4.67941 12.3825 4.67871 13.0163V25.7658C4.67941 26.3996 4.93149 27.0072 5.37965 27.4554C5.82781 27.9035 6.43544 28.1556 7.06924 28.1563H27.7871C28.4209 28.1556 29.0286 27.9035 29.4767 27.4554C29.9249 27.0072 30.177 26.3996 30.1777 25.7658V13.0163C30.177 12.3825 29.9249 11.7749 29.4767 11.3267C29.0286 10.8786 28.4209 10.6265 27.7871 10.6258V10.6258ZM19.8187 24.1721C19.8187 24.3834 19.7348 24.5861 19.5853 24.7356C19.4359 24.885 19.2332 24.969 19.0219 24.969H7.86608C7.65474 24.969 7.45206 24.885 7.30263 24.7356C7.15319 24.5861 7.06924 24.3834 7.06924 24.1721V14.61C7.06924 14.3987 7.15319 14.196 7.30263 14.0466C7.45206 13.8971 7.65474 13.8132 7.86608 13.8132H19.0219C19.2332 13.8132 19.4359 13.8971 19.5853 14.0466C19.7348 14.196 19.8187 14.3987 19.8187 14.61V24.1721ZM25.3966 24.969C24.9238 24.969 24.4616 24.8288 24.0685 24.5661C23.6754 24.3034 23.369 23.9301 23.1881 23.4932C23.0071 23.0564 22.9598 22.5758 23.052 22.1121C23.1443 21.6483 23.3719 21.2224 23.7063 20.8881C24.0406 20.5537 24.4665 20.3261 24.9302 20.2338C25.394 20.1416 25.8746 20.1889 26.3114 20.3699C26.7482 20.5508 27.1216 20.8572 27.3843 21.2503C27.6469 21.6434 27.7871 22.1056 27.7871 22.5784C27.7864 23.2122 27.5344 23.8199 27.0862 24.268C26.638 24.7162 26.0304 24.9683 25.3966 24.969ZM25.3966 18.5942C24.9238 18.5942 24.4616 18.454 24.0685 18.1913C23.6754 17.9287 23.369 17.5553 23.1881 17.1185C23.0071 16.6817 22.9598 16.201 23.052 15.7373C23.1443 15.2736 23.3719 14.8477 23.7063 14.5133C24.0406 14.179 24.4665 13.9513 24.9302 13.8591C25.394 13.7669 25.8746 13.8142 26.3114 13.9951C26.7482 14.1761 27.1216 14.4825 27.3843 14.8756C27.6469 15.2687 27.7871 15.7309 27.7871 16.2037C27.7864 16.8375 27.5344 17.4451 27.0862 17.8933C26.638 18.3414 26.0304 18.5935 25.3966 18.5942V18.5942Z" fill="url(#paint3_linear_1226_28638)"/>
<path d="M17.8985 9.03213H10.5835C10.7018 8.77133 10.8459 8.52307 11.0138 8.29107C11.3279 7.85736 11.7263 7.49148 12.1851 7.21533C12.8052 6.84001 13.5162 6.6416 14.241 6.6416C14.9658 6.6416 15.6768 6.84001 16.2969 7.21533C16.7557 7.49148 17.1541 7.85736 17.4682 8.29107C17.6361 8.52307 17.7802 8.77133 17.8985 9.03213Z" fill="url(#paint4_linear_1226_28638)"/>
<path d="M12.6234 8.86476C12.5414 8.94116 12.4434 8.99833 12.3365 9.0321H11.8505C11.7134 9.00009 11.5905 8.92462 11.4999 8.81695L11.0138 8.29104L8.52764 5.58974C8.38393 5.43441 8.30781 5.22835 8.31603 5.0169C8.32425 4.80544 8.41613 4.60592 8.57147 4.46221C8.7268 4.3185 8.93285 4.24238 9.14431 4.2506C9.35576 4.25882 9.55529 4.3507 9.699 4.50604L12.1851 7.2153L12.6712 7.74121C12.742 7.81808 12.7968 7.90813 12.8327 8.00623C12.8686 8.10433 12.8848 8.20854 12.8803 8.3129C12.8759 8.41727 12.8509 8.51973 12.8068 8.61442C12.7627 8.70912 12.7004 8.79419 12.6234 8.86476V8.86476Z" fill="url(#paint5_linear_1226_28638)"/>
<path d="M19.954 5.58974L17.4679 8.29104L16.9818 8.81695C16.8929 8.9227 16.773 8.99794 16.6391 9.0321H16.1451C16.0382 8.99833 15.9402 8.94116 15.8582 8.86476C15.7812 8.79419 15.7189 8.70912 15.6748 8.61442C15.6307 8.51973 15.6057 8.41727 15.6013 8.3129C15.5969 8.20854 15.613 8.10433 15.6489 8.00623C15.6848 7.90813 15.7397 7.81808 15.8104 7.74121L16.2965 7.2153L18.7827 4.50604C18.9264 4.3507 19.1259 4.25882 19.3373 4.2506C19.5488 4.24238 19.7549 4.3185 19.9102 4.46221C20.0655 4.60592 20.1574 4.80544 20.1656 5.0169C20.1738 5.22835 20.0977 5.43441 19.954 5.58974V5.58974Z" fill="url(#paint6_linear_1226_28638)"/>
<path d="M7.86618 29.75C7.65484 29.75 7.45216 29.6661 7.30273 29.5166C7.15329 29.3672 7.06934 29.1645 7.06934 28.9532V26.5627C7.06934 26.3513 7.15329 26.1486 7.30273 25.9992C7.45216 25.8498 7.65484 25.7658 7.86618 25.7658C8.07751 25.7658 8.28019 25.8498 8.42963 25.9992C8.57907 26.1486 8.66302 26.3513 8.66302 26.5627V28.9532C8.66302 29.1645 8.57907 29.3672 8.42963 29.5166C8.28019 29.6661 8.07751 29.75 7.86618 29.75Z" fill="url(#paint7_linear_1226_28638)"/>
<path d="M26.9902 29.75C26.7789 29.75 26.5762 29.6661 26.4267 29.5166C26.2773 29.3672 26.1934 29.1645 26.1934 28.9532V26.5627C26.1934 26.3513 26.2773 26.1486 26.4267 25.9992C26.5762 25.8498 26.7789 25.7658 26.9902 25.7658C27.2015 25.7658 27.4042 25.8498 27.5537 25.9992C27.7031 26.1486 27.787 26.3513 27.787 26.5627V28.9532C27.787 29.1645 27.7031 29.3672 27.5537 29.5166C27.4042 29.6661 27.2015 29.75 26.9902 29.75Z" fill="url(#paint8_linear_1226_28638)"/>
<defs>
<linearGradient id="paint0_linear_1226_28638" x1="24.5999" y1="22.7333" x2="26.1935" y2="22.7333" gradientUnits="userSpaceOnUse">
<stop stop-color="#2942CB"/>
<stop offset="1" stop-color="#273DB1"/>
</linearGradient>
<linearGradient id="paint1_linear_1226_28638" x1="8.66309" y1="20.1658" x2="18.2252" y2="20.1658" gradientUnits="userSpaceOnUse">
<stop stop-color="#2942CB"/>
<stop offset="1" stop-color="#273DB1"/>
</linearGradient>
<linearGradient id="paint2_linear_1226_28638" x1="24.5999" y1="16.3586" x2="26.1935" y2="16.3586" gradientUnits="userSpaceOnUse">
<stop stop-color="#2942CB"/>
<stop offset="1" stop-color="#273DB1"/>
</linearGradient>
<linearGradient id="paint3_linear_1226_28638" x1="4.67871" y1="21.0954" x2="30.1777" y2="21.0954" gradientUnits="userSpaceOnUse">
<stop stop-color="#2942CB"/>
<stop offset="1" stop-color="#273DB1"/>
</linearGradient>
<linearGradient id="paint4_linear_1226_28638" x1="10.5835" y1="8.06928" x2="17.8985" y2="8.06928" gradientUnits="userSpaceOnUse">
<stop stop-color="#2942CB"/>
<stop offset="1" stop-color="#273DB1"/>
</linearGradient>
<linearGradient id="paint5_linear_1226_28638" x1="8.31543" y1="7.10598" x2="12.8811" y2="7.10598" gradientUnits="userSpaceOnUse">
<stop stop-color="#2942CB"/>
<stop offset="1" stop-color="#273DB1"/>
</linearGradient>
<linearGradient id="paint6_linear_1226_28638" x1="15.6006" y1="7.10598" x2="20.1662" y2="7.10598" gradientUnits="userSpaceOnUse">
<stop stop-color="#2942CB"/>
<stop offset="1" stop-color="#273DB1"/>
</linearGradient>
<linearGradient id="paint7_linear_1226_28638" x1="7.06934" y1="28.1453" x2="8.66302" y2="28.1453" gradientUnits="userSpaceOnUse">
<stop stop-color="#2942CB"/>
<stop offset="1" stop-color="#273DB1"/>
</linearGradient>
<linearGradient id="paint8_linear_1226_28638" x1="26.1934" y1="28.1453" x2="27.787" y2="28.1453" gradientUnits="userSpaceOnUse">
<stop stop-color="#2942CB"/>
<stop offset="1" stop-color="#273DB1"/>
</linearGradient>
</defs>
</svg>
