<svg width="19" height="18" viewBox="0 0 19 18" fill="none" xmlns="http://www.w3.org/2000/svg">
<path d="M11.3041 2.64927L11.304 2.64914C10.2624 1.58134 8.8874 1 7.42515 1C5.96258 1 4.58793 1.58123 3.54588 2.6491L11.3041 2.64927ZM11.3041 2.64927C12.3469 3.71789 12.9231 5.13883 12.9231 6.66066C12.9231 7.68809 12.66 8.66792 12.1709 9.52373C12.1654 9.53297 12.1608 9.54098 12.1572 9.54742L12.1542 9.5527C11.9205 9.9557 11.6364 10.3316 11.3042 10.672L11.3039 10.6723M11.3041 2.64927L11.3039 10.6723M11.3039 10.6723C10.9727 11.0119 10.6075 11.3017 10.2175 11.5394C10.2109 11.5433 10.2012 11.549 10.1894 11.5563C9.36057 12.0549 8.41457 12.3212 7.42515 12.3212C5.96259 12.3212 4.58794 11.74 3.54589 10.6722L11.3039 10.6723ZM3.5965 10.5495L3.59632 10.5493C2.58066 9.50792 2.02292 8.12327 2.02292 6.66062C2.02292 5.19792 2.58066 3.81332 3.5963 2.77192L3.59648 2.77173C4.61354 1.72941 5.97581 1.14855 7.42515 1.14855C8.87411 1.14855 10.2364 1.72944 11.2534 2.77173L11.2535 2.77179C13.3487 4.91944 13.3488 8.40163 11.2536 10.5493L3.5965 10.5495ZM3.5965 10.5495C4.61353 11.5917 5.97579 12.1726 7.42515 12.1726C8.87394 12.1726 10.2367 11.5918 11.2534 10.5494L3.5965 10.5495ZM1.92676 6.66062C1.92676 5.13903 2.50331 3.71798 3.54577 2.64922L3.54575 10.672C2.5033 9.60323 1.92676 8.18223 1.92676 6.66062Z" stroke="white" stroke-width="2"/>
<path d="M14.2434 11.5223L13.2441 10.498C12.9792 10.918 12.6697 11.3123 12.3163 11.6742C11.9633 12.0361 11.5788 12.3537 11.1692 12.625L12.1681 13.6493L14.2434 11.5223Z" fill="white"/>
<path d="M15.5773 12.5859L15.8737 12.282C15.9925 12.1603 16.0581 11.9984 16.0581 11.8263C16.0581 11.6541 15.9925 11.4923 15.8737 11.3704C15.7549 11.2487 15.5969 11.1816 15.4292 11.1816C15.261 11.1816 15.1034 11.2487 14.9842 11.3704L14.6879 11.6743L12.3162 14.1051L12.0199 14.409C11.7746 14.6603 11.7746 15.0692 12.0199 15.3206C12.1387 15.4423 12.2966 15.5094 12.4648 15.5094C12.6326 15.5094 12.7906 15.4423 12.9094 15.3206L13.2057 15.0169C13.2057 15.0168 13.2057 15.0168 13.2057 15.0167L15.5773 12.5859Z" fill="white"/>
<path d="M7.42521 2.57812C6.36116 2.57812 5.36099 3.00273 4.60905 3.77382C3.85668 4.54487 3.44238 5.57005 3.44238 6.66048C3.44238 7.75087 3.85668 8.77605 4.60905 9.5471C5.36099 10.3181 6.36116 10.7428 7.42521 10.7428C8.48883 10.7428 9.48901 10.3181 10.2414 9.5471C11.7942 7.95543 11.7942 5.36554 10.2414 3.77382C9.48901 3.00278 8.48883 2.57812 7.42521 2.57812ZM9.27995 5.063C9.23908 5.10495 9.18543 5.1259 9.13178 5.1259C9.07813 5.1259 9.02448 5.10495 8.9836 5.063C8.56718 4.63626 8.01365 4.40128 7.42521 4.40128C6.83634 4.40128 6.28282 4.63626 5.8664 5.063C5.78465 5.14689 5.65223 5.14689 5.57005 5.063C5.4883 4.97908 5.4883 4.843 5.57005 4.75912C6.06567 4.25124 6.72436 3.97153 7.42521 3.97153C8.12606 3.97153 8.78476 4.25124 9.27995 4.75912C9.36213 4.84304 9.36213 4.97912 9.27995 5.063Z" fill="white"/>
<path d="M15.3147 1.45517C15.6613 1.45517 15.9431 1.16601 15.9431 0.810594C15.9431 0.455171 15.6613 0.166016 15.3147 0.166016C14.9677 0.166016 14.6858 0.455171 14.6858 0.810594C14.6858 1.16601 14.9677 1.45517 15.3147 1.45517Z" fill="white"/>
<path d="M3.57567 16.0645C3.22908 16.0645 2.94678 16.3536 2.94678 16.709C2.94678 17.0645 3.22908 17.3536 3.57567 17.3536C3.92269 17.3536 4.20456 17.0645 4.20456 16.709C4.20456 16.3535 3.92269 16.0645 3.57567 16.0645Z" fill="white"/>
<path d="M8.60619 15.6348C8.25959 15.6348 7.97729 15.9239 7.97729 16.2793C7.97729 16.6348 8.25959 16.9239 8.60619 16.9239C8.95278 16.9239 9.23507 16.6348 9.23507 16.2793C9.23507 15.9239 8.95278 15.6348 8.60619 15.6348Z" fill="white"/>
<path d="M15.7255 13.041L13.6506 15.1681L15.9831 17.5589C16.2603 17.843 16.6286 17.9994 17.0203 17.9994C17.4125 17.9994 17.7808 17.843 18.058 17.5589C18.3352 17.2748 18.488 16.8972 18.488 16.4954C18.488 16.0937 18.3352 15.716 18.058 15.4319L15.7255 13.041Z" fill="white"/>
<path d="M17.8299 4.89258C17.2521 4.89258 16.782 5.37449 16.782 5.96686C16.782 6.55923 17.2521 7.04119 17.8299 7.04119C18.4081 7.04119 18.8781 6.55923 18.8781 5.96686C18.8781 5.37449 18.4081 4.89258 17.8299 4.89258Z" fill="white"/>
</svg>
