<svg width="34" height="34" viewBox="0 0 34 34" fill="none" xmlns="http://www.w3.org/2000/svg">
<path d="M18.6938 5.12867C17.995 3.93665 17.2552 3.97775 16.5564 5.12867C13.3503 9.89674 8.5 17.0488 8.5 20.6249C8.5 23.1322 9.5276 25.4341 11.1718 27.0782C12.8159 28.7224 15.1178 29.75 17.6251 29.75C20.1324 29.75 22.4343 28.7224 24.0784 27.0782C25.7226 25.4341 26.7502 23.1322 26.7502 20.6249C26.7502 17.0077 21.8999 9.89674 18.6938 5.12867ZM24.2017 24.6942C23.5441 25.7629 22.5987 26.7083 21.4478 27.366C20.9134 27.6537 20.2558 27.4893 19.968 26.9549C19.6392 26.3795 19.8447 25.7218 20.3791 25.4341C21.2012 24.9819 21.8588 24.3243 22.3521 23.5433C22.8453 22.7623 23.133 21.858 23.1741 20.9126C23.2153 20.2961 23.7085 19.8439 24.3251 19.885C24.9416 19.9261 25.3938 20.4194 25.3527 21.0359C25.2705 22.3513 24.8594 23.5844 24.2017 24.6942Z" fill="url(#paint0_linear_1226_28675)"/>
<defs>
<linearGradient id="paint0_linear_1226_28675" x1="8.5" y1="19.4792" x2="26.7502" y2="19.4792" gradientUnits="userSpaceOnUse">
<stop stop-color="#2942CB"/>
<stop offset="1" stop-color="#273DB1"/>
</linearGradient>
</defs>
</svg>
