<svg width="16" height="16" viewBox="0 0 16 16" fill="none" xmlns="http://www.w3.org/2000/svg">
<path fill-rule="evenodd" clip-rule="evenodd" d="M3.42969 0.859863H12.5703C13.3469 0.861358 14.0912 1.1705 14.6403 1.7196C15.1894 2.2687 15.4985 3.01301 15.5 3.78955V12.9302C15.4985 13.7067 15.1894 14.451 14.6403 15.0001C14.0912 15.5492 13.3469 15.8584 12.5703 15.8599H3.42969C2.65315 15.8584 1.90884 15.5492 1.35974 15.0001C0.810637 14.451 0.501494 13.7067 0.5 12.9302L0.5 3.78955C0.501494 3.01301 0.810637 2.2687 1.35974 1.7196C1.90884 1.1705 2.65315 0.861358 3.42969 0.859863V0.859863ZM3.60547 12.2051C3.60551 12.3508 3.6634 12.4905 3.7664 12.5935C3.86941 12.6965 4.00911 12.7544 4.15479 12.7544H7.02978C7.10239 12.7551 7.17443 12.7415 7.24174 12.7142C7.30904 12.687 7.37027 12.6466 7.42188 12.5955C7.4735 12.5444 7.51447 12.4836 7.54243 12.4166C7.5704 12.3496 7.58479 12.2777 7.58479 12.2051C7.58479 12.1325 7.5704 12.0606 7.54243 11.9935C7.51447 11.9265 7.4735 11.8657 7.42188 11.8146C7.37027 11.7635 7.30904 11.7232 7.24174 11.6959C7.17443 11.6687 7.10239 11.655 7.02978 11.6558H5.481L7.52592 9.61084C7.62896 9.50782 7.68686 9.36808 7.68687 9.22237C7.68688 9.07666 7.62901 8.93691 7.52599 8.83387C7.47498 8.78285 7.41442 8.74238 7.34776 8.71476C7.28111 8.68714 7.20967 8.67293 7.13752 8.67292C6.99181 8.67291 6.85207 8.73078 6.74902 8.8338L4.7041 10.879V9.33009C4.70261 9.18538 4.64407 9.04711 4.54122 8.94531C4.43837 8.84352 4.2995 8.78642 4.15479 8.78642C4.01007 8.78642 3.8712 8.84352 3.76835 8.94531C3.6655 9.04711 3.60696 9.18538 3.60547 9.33009V12.2051ZM12.3945 4.51468C12.3945 4.369 12.3366 4.22929 12.2336 4.12628C12.1306 4.02326 11.9909 3.96537 11.8452 3.96533H8.97022C8.89761 3.96458 8.82557 3.97824 8.75826 4.00551C8.69096 4.03278 8.62973 4.07312 8.57812 4.1242C8.5265 4.17528 8.48553 4.23609 8.45757 4.30311C8.4296 4.37013 8.41521 4.44203 8.41521 4.51465C8.41521 4.58727 8.4296 4.65916 8.45757 4.72618C8.48553 4.7932 8.5265 4.85401 8.57812 4.9051C8.62973 4.95618 8.69096 4.99652 8.75826 5.02379C8.82557 5.05106 8.89761 5.06471 8.97022 5.06396H10.5192L8.47394 7.10889C8.37089 7.21193 8.313 7.35168 8.313 7.49741C8.313 7.64313 8.37089 7.78289 8.47394 7.88593C8.57698 7.98897 8.71673 8.04686 8.86246 8.04686C9.00818 8.04686 9.14793 7.98897 9.25098 7.88593L11.2959 5.84071V7.38967C11.2974 7.53437 11.3559 7.67264 11.4588 7.77444C11.5616 7.87624 11.7005 7.93334 11.8452 7.93334C11.9899 7.93334 12.1288 7.87624 12.2316 7.77444C12.3345 7.67264 12.393 7.53437 12.3945 7.38967V4.51468Z" fill="url(#paint0_linear_1498_20662)"/>
<defs>
<linearGradient id="paint0_linear_1498_20662" x1="0.5" y1="9.8182" x2="15.5" y2="9.8182" gradientUnits="userSpaceOnUse">
<stop stop-color="#2942CB"/>
<stop offset="1" stop-color="#273DB1"/>
</linearGradient>
</defs>
</svg>
