<svg width="18" height="16" viewBox="0 0 18 16" fill="none" xmlns="http://www.w3.org/2000/svg">
<path d="M15.0234 8.36674C14.9801 8.34494 14.9368 8.33405 14.8932 8.33405C14.7993 8.33405 14.7165 8.37012 14.6444 8.44236L13.9516 9.13501C13.8869 9.20005 13.8543 9.27933 13.8543 9.37323V12.1222C13.8543 12.5986 13.6851 13.0061 13.3458 13.3454C13.0066 13.6845 12.5989 13.8541 12.1226 13.8541H3.11724C2.64093 13.8541 2.2332 13.6845 1.89409 13.3454C1.55491 13.0061 1.38541 12.5986 1.38541 12.1222V3.11706C1.38541 2.6408 1.55491 2.23313 1.89409 1.8939C2.2332 1.55475 2.64093 1.38522 3.11724 1.38522H12.1227C12.2814 1.38522 12.4438 1.40687 12.6097 1.4502C12.653 1.46453 12.6855 1.47185 12.7069 1.47185C12.8008 1.47185 12.8838 1.43587 12.956 1.36372L13.4863 0.833351C13.5728 0.746878 13.6055 0.642168 13.5836 0.519603C13.562 0.404128 13.4969 0.321103 13.3887 0.270644C12.9993 0.0904922 12.577 0 12.1224 0H3.11724C2.25857 0 1.52431 0.304879 0.914556 0.914633C0.304877 1.52446 0 2.25862 0 3.11731V12.1227C0 12.9813 0.304877 13.7155 0.914595 14.3253C1.52435 14.9352 2.2586 15.24 3.11728 15.24H12.1226C12.9812 15.24 13.7155 14.9352 14.3253 14.3253C14.935 13.7155 15.2402 12.9813 15.2402 12.1227V8.68055C15.2401 8.52913 15.1676 8.42457 15.0234 8.36674Z" fill="url(#paint0_linear_1220_1902)"/>
<path d="M17.7403 2.15407L16.5495 0.963341C16.3763 0.790203 16.1706 0.703613 15.9324 0.703613C15.6945 0.703613 15.4885 0.790203 15.3155 0.963341L8.31244 7.96638L5.46597 5.11971C5.29276 4.94646 5.08702 4.85997 4.84902 4.85997C4.6109 4.85997 4.40531 4.94646 4.23206 5.11971L3.04146 6.31031C2.86828 6.48346 2.78162 6.68919 2.78162 6.92737C2.78162 7.16545 2.86828 7.37108 3.04146 7.54433L7.69562 12.1985C7.86884 12.3718 8.07454 12.4582 8.31258 12.4582C8.55062 12.4582 8.75629 12.3718 8.92954 12.1985L17.7401 3.38795C17.9132 3.2148 18 3.00907 18 2.77099C18 2.53291 17.9134 2.32721 17.7403 2.15407Z" fill="url(#paint1_linear_1220_1902)"/>
<defs>
<linearGradient id="paint0_linear_1220_1902" x1="-1.9538e-08" y1="9.10169" x2="15.2402" y2="9.10169" gradientUnits="userSpaceOnUse">
<stop stop-color="#2942CB"/>
<stop offset="1" stop-color="#273DB1"/>
</linearGradient>
<linearGradient id="paint1_linear_1220_1902" x1="2.78162" y1="7.72373" x2="18" y2="7.72373" gradientUnits="userSpaceOnUse">
<stop stop-color="#2942CB"/>
<stop offset="1" stop-color="#273DB1"/>
</linearGradient>
</defs>
</svg>
