<svg width="2000" height="2000" viewBox="0 0 2000 2000" fill="none" xmlns="http://www.w3.org/2000/svg">
<rect x="100" y="100" width="1800" height="1800" rx="294" fill="white" stroke="#C4D600" stroke-width="200"/>
<path d="M1488.38 316C1596.28 316 1684 403.57 1684 511.619V1489.71C1684 1597.61 1596.28 1685.33 1488.38 1685.33H510.286C402.237 1685.33 314.667 1597.61 314.667 1489.71V511.619C314.667 403.57 402.237 316 510.286 316H1488.38ZM1488.38 462.714H510.286C483.266 462.714 461.381 484.599 461.381 511.619V1489.71C461.381 1516.61 483.266 1538.62 510.286 1538.62H1488.38C1515.28 1538.62 1537.29 1516.61 1537.29 1489.71V511.619C1537.29 484.599 1515.28 462.714 1488.38 462.714Z" fill="#004C6C"/>
<path d="M1010.6 1429.4C955.4 1429.4 905.8 1419.8 861.8 1400.6C818.6 1380.6 784.6 1353.4 759.8 1319C735 1283.8 722.2 1243.4 721.4 1197.8H837.8C841.8 1237 857.8 1270.2 885.8 1297.4C914.6 1323.8 956.2 1337 1010.6 1337C1062.6 1337 1103.4 1324.2 1133 1298.6C1163.4 1272.2 1178.6 1238.6 1178.6 1197.8C1178.6 1165.8 1169.8 1139.8 1152.2 1119.8C1134.6 1099.8 1112.6 1084.6 1086.2 1074.2C1059.8 1063.8 1024.2 1052.6 979.4 1040.6C924.2 1026.2 879.8 1011.8 846.2 997.4C813.4 983 785 960.6 761 930.2C737.8 899 726.2 857.4 726.2 805.4C726.2 759.8 737.8 719.4 761 684.2C784.2 649 816.6 621.8 858.2 602.6C900.6 583.4 949 573.8 1003.4 573.8C1081.8 573.8 1145.8 593.4 1195.4 632.6C1245.8 671.8 1274.2 723.8 1280.6 788.6H1160.6C1156.6 756.6 1139.8 728.6 1110.2 704.6C1080.6 679.8 1041.4 667.4 992.6 667.4C947 667.4 909.8 679.4 881 703.4C852.2 726.6 837.8 759.4 837.8 801.8C837.8 832.2 846.2 857 863 876.2C880.6 895.4 901.8 910.2 926.6 920.6C952.2 930.2 987.8 941.4 1033.4 954.2C1088.6 969.4 1133 984.6 1166.6 999.8C1200.2 1014.2 1229 1037 1253 1068.2C1277 1098.6 1289 1140.2 1289 1193C1289 1233.8 1278.2 1272.2 1256.6 1308.2C1235 1344.2 1203 1373.4 1160.6 1395.8C1118.2 1418.2 1068.2 1429.4 1010.6 1429.4Z" fill="#00B3AE"/>
</svg>
