<svg width="99" height="30" viewBox="0 0 99 30" fill="none" xmlns="http://www.w3.org/2000/svg">
<rect width="30" height="30" rx="6" fill="#9F28F3"/>
<path d="M19 15C19 17.7614 16.7614 20 14 20L14 10.5C14 8.01472 16.0147 6 18.5 6L19 6L19 15Z" fill="#C578FC"/>
<path d="M11 15C11 12.2386 13.2386 10 16 10V19.5C16 21.9853 13.9853 24 11.5 24H11V15Z" fill="white"/>
<path d="M44.266 21.5V10.826H40.18V8.54H50.8V10.826H46.714V21.5H44.266ZM55.6829 21.77C54.6869 21.77 53.8079 21.557 53.0459 21.131C52.2899 20.699 51.6959 20.108 51.2639 19.358C50.8379 18.602 50.6249 17.738 50.6249 16.766C50.6249 15.704 50.8349 14.78 51.2549 13.994C51.6749 13.208 52.2539 12.599 52.9919 12.167C53.7299 11.729 54.5789 11.51 55.5389 11.51C56.5589 11.51 57.4259 11.75 58.1399 12.23C58.8539 12.71 59.3819 13.385 59.7239 14.255C60.0659 15.125 60.1859 16.148 60.0839 17.324H57.6629V16.424C57.6629 15.434 57.5039 14.723 57.1859 14.291C56.8739 13.853 56.3609 13.634 55.6469 13.634C54.8129 13.634 54.1979 13.889 53.8019 14.399C53.4119 14.903 53.2169 15.65 53.2169 16.64C53.2169 17.546 53.4119 18.248 53.8019 18.746C54.1979 19.238 54.7769 19.484 55.5389 19.484C56.0189 19.484 56.4299 19.379 56.7719 19.169C57.1139 18.959 57.3749 18.656 57.5549 18.26L60.0029 18.962C59.6369 19.85 59.0579 20.54 58.2659 21.032C57.4799 21.524 56.6189 21.77 55.6829 21.77ZM52.4609 17.324V15.506H58.9049V17.324H52.4609ZM61.0445 21.5L64.5185 16.586L61.1165 11.78H63.9965L65.9405 14.66L67.8485 11.78H70.7285L67.3265 16.586L70.8185 21.5H67.9385L65.9405 18.512L63.9245 21.5H61.0445ZM76.6495 21.77C75.6715 21.77 74.8135 21.551 74.0755 21.113C73.3375 20.675 72.7615 20.072 72.3475 19.304C71.9395 18.53 71.7355 17.642 71.7355 16.64C71.7355 15.626 71.9455 14.735 72.3655 13.967C72.7855 13.193 73.3645 12.59 74.1025 12.158C74.8405 11.726 75.6895 11.51 76.6495 11.51C77.6275 11.51 78.4855 11.729 79.2235 12.167C79.9675 12.605 80.5465 13.211 80.9605 13.985C81.3745 14.753 81.5815 15.638 81.5815 16.64C81.5815 17.648 81.3715 18.539 80.9515 19.313C80.5375 20.081 79.9585 20.684 79.2145 21.122C78.4765 21.554 77.6215 21.77 76.6495 21.77ZM76.6495 19.484C77.4355 19.484 78.0205 19.22 78.4045 18.692C78.7945 18.158 78.9895 17.474 78.9895 16.64C78.9895 15.776 78.7915 15.086 78.3955 14.57C78.0055 14.054 77.4235 13.796 76.6495 13.796C76.1155 13.796 75.6775 13.916 75.3355 14.156C74.9935 14.396 74.7385 14.729 74.5705 15.155C74.4085 15.581 74.3275 16.076 74.3275 16.64C74.3275 17.51 74.5225 18.203 74.9125 18.719C75.3085 19.229 75.8875 19.484 76.6495 19.484ZM82.6691 21.5L86.6291 8.54H90.2831L94.2431 21.5H91.7231L88.1951 10.07H88.6631L85.1891 21.5H82.6691ZM85.0451 18.8V16.514H91.8851V18.8H85.0451ZM96.3962 21.5V8.54H98.8442V21.5H96.3962Z" fill="#9F28F3"/>
</svg>
